{"glyphs":{"0":{"ha":758,"x_min":53,"x_max":706,"o":"m 379 958 q 622 833 538 958 q 706 468 706 708 q 622 101 706 225 q 379 -24 539 -24 q 136 101 219 -24 q 53 468 53 225 q 136 835 53 711 q 379 958 219 958 m 379 800 q 316 771 339 800 q 282 670 293 742 q 271 468 271 599 q 282 264 271 336 q 316 163 293 192 q 379 135 339 135 q 443 163 419 135 q 477 263 467 192 q 488 468 488 335 q 476 672 488 600 q 442 772 465 743 q 379 800 419 800 z "},"1":{"ha":588,"x_min":8,"x_max":490,"o":"m 490 938 l 490 0 l 281 0 l 281 729 l 103 608 l 8 747 l 299 938 l 490 938 z "},"2":{"ha":643,"x_min":-3,"x_max":611,"o":"m 294 958 q 456 923 389 958 q 558 828 524 888 q 593 694 593 768 q 565 551 593 619 q 467 393 538 482 q 263 165 397 304 l 611 165 l 589 0 l 28 0 l 28 153 q 247 405 175 315 q 346 555 318 494 q 374 678 374 615 q 347 763 374 733 q 271 793 319 793 q 194 772 228 793 q 121 700 161 750 l -3 797 q 294 958 111 958 z "},"3":{"ha":657,"x_min":-10,"x_max":618,"o":"m 301 958 q 456 926 390 958 q 556 840 522 894 q 590 718 590 785 q 410 496 590 547 q 562 428 506 485 q 618 267 618 372 q 580 122 618 188 q 467 16 542 56 q 290 -24 393 -24 q 121 13 194 -24 q -10 118 47 49 l 106 225 q 188 159 150 179 q 274 139 226 139 q 365 176 331 139 q 400 279 400 213 q 365 384 400 351 q 260 417 329 417 l 192 417 l 215 564 l 261 564 q 351 597 318 564 q 385 689 385 629 q 356 771 385 742 q 275 800 326 800 q 114 721 189 800 l 7 832 q 301 958 133 958 z "},"4":{"ha":714,"x_min":31,"x_max":690,"o":"m 690 365 l 690 204 l 599 204 l 599 0 l 394 0 l 393 204 l 31 204 l 31 347 l 269 963 l 450 897 l 247 365 l 396 365 l 419 589 l 599 589 l 599 365 l 690 365 z "},"5":{"ha":682,"x_min":14,"x_max":642,"o":"m 578 785 l 272 785 l 272 581 q 400 614 333 614 q 574 534 507 614 q 642 310 642 454 q 600 135 642 211 q 481 18 558 60 q 301 -24 404 -24 q 14 117 128 -24 l 132 224 q 206 160 168 182 q 293 138 244 138 q 391 181 357 138 q 425 308 425 224 q 396 431 425 394 q 314 467 367 467 q 265 460 288 467 q 214 435 242 453 l 71 435 l 71 939 l 601 939 l 578 785 z "},"6":{"ha":726,"x_min":53,"x_max":694,"o":"m 453 631 q 577 594 522 631 q 663 488 632 558 q 694 321 694 418 q 657 142 694 221 q 549 20 619 64 q 382 -24 479 -24 q 134 94 215 -24 q 53 429 53 213 q 99 708 53 589 q 230 893 144 828 q 432 958 315 958 q 628 896 542 958 l 550 771 q 439 806 494 806 q 326 739 369 806 q 272 542 282 672 q 453 631 344 631 m 382 131 q 482 318 479 131 q 460 448 482 411 q 392 485 438 485 q 272 406 329 485 q 285 242 274 301 q 319 157 296 183 q 382 131 342 131 z "},"7":{"ha":592,"x_min":13,"x_max":572,"o":"m 572 939 l 572 793 l 263 -22 l 71 42 l 354 778 l 13 778 l 13 939 l 572 939 z "},"8":{"ha":733,"x_min":33,"x_max":701,"o":"m 525 504 q 659 396 617 457 q 701 254 701 335 q 662 112 701 175 q 545 13 622 49 q 363 -24 468 -24 q 185 12 260 -24 q 72 110 111 47 q 33 250 33 172 q 196 483 33 407 q 97 583 126 528 q 67 706 67 638 q 104 839 67 782 q 210 927 142 896 q 365 958 278 958 q 585 894 501 958 q 668 717 668 829 q 525 504 668 583 m 368 814 q 271 703 271 814 q 293 623 271 653 q 368 569 315 593 l 393 557 q 449 625 433 590 q 464 706 464 660 q 368 814 464 814 m 369 131 q 460 163 429 131 q 490 256 490 196 q 463 345 490 313 q 364 408 436 378 l 324 425 q 244 260 244 368 q 277 163 244 196 q 369 131 310 131 z "},"9":{"ha":718,"x_min":31,"x_max":678,"o":"m 354 958 q 594 860 511 958 q 678 593 678 763 q 620 278 678 403 q 444 79 563 154 q 136 -39 326 4 l 93 111 q 341 223 258 156 q 450 413 424 290 q 276 326 378 326 q 153 364 210 326 q 64 472 97 401 q 31 635 31 542 q 73 808 31 735 q 189 919 115 881 q 354 958 263 958 m 344 475 q 458 556 411 475 q 450 707 460 653 q 417 784 440 761 q 354 807 394 807 q 274 767 303 807 q 244 642 244 726 q 272 515 244 554 q 344 475 299 475 z "},"\r":{"ha":289,"x_min":0,"x_max":0,"o":""}," ":{"ha":289,"x_min":0,"x_max":0,"o":""},"A":{"ha":754,"x_min":-15,"x_max":769,"o":"m 540 0 l 497 210 l 253 210 l 210 0 l -15 0 l 244 963 l 511 963 l 769 0 l 540 0 m 286 369 l 464 369 l 375 800 l 286 369 z "},"Á":{"ha":754,"x_min":-15,"x_max":769,"o":"m 540 0 l 497 210 l 253 210 l 210 0 l -15 0 l 244 963 l 511 963 l 769 0 l 540 0 m 286 369 l 464 369 l 375 800 l 286 369 m 476 1319 l 557 1163 l 253 1043 l 199 1150 l 476 1319 z "},"Ă":{"ha":754,"x_min":-15,"x_max":769,"o":"m 540 0 l 497 210 l 253 210 l 210 0 l -15 0 l 244 963 l 511 963 l 769 0 l 540 0 m 286 369 l 464 369 l 375 800 l 286 369 m 376 1043 q 222 1105 278 1043 q 157 1265 165 1167 l 272 1286 q 309 1217 283 1242 q 376 1192 335 1192 q 444 1217 418 1192 q 482 1286 471 1243 l 597 1265 q 532 1106 589 1168 q 376 1043 475 1043 z "},"Ắ":{"ha":754,"x_min":-15,"x_max":769,"o":"m 540 0 l 497 210 l 253 210 l 210 0 l -15 0 l 244 963 l 511 963 l 769 0 l 540 0 m 286 369 l 464 369 l 375 800 l 286 369 m 376 1024 q 222 1085 278 1024 q 157 1246 165 1147 l 272 1267 q 309 1197 283 1222 q 376 1172 335 1172 q 444 1198 418 1172 q 482 1267 471 1224 l 597 1246 q 532 1086 589 1149 q 376 1024 475 1024 m 475 1558 l 596 1449 l 388 1250 l 306 1321 l 475 1558 z "},"Ặ":{"ha":754,"x_min":-15,"x_max":769,"o":"m 540 0 l 497 210 l 253 210 l 210 0 l -15 0 l 244 963 l 511 963 l 769 0 l 540 0 m 286 369 l 464 369 l 375 800 l 286 369 m 376 1043 q 222 1105 278 1043 q 157 1265 165 1167 l 272 1286 q 309 1217 283 1242 q 376 1192 335 1192 q 444 1217 418 1192 q 482 1286 471 1243 l 597 1265 q 532 1106 589 1168 q 376 1043 475 1043 m 379 -329 q 290 -294 325 -329 q 254 -208 254 -260 q 290 -121 254 -156 q 379 -86 325 -86 q 468 -121 433 -86 q 503 -208 503 -156 q 468 -294 503 -260 q 379 -329 433 -329 z "},"Ằ":{"ha":754,"x_min":-15,"x_max":769,"o":"m 540 0 l 497 210 l 253 210 l 210 0 l -15 0 l 244 963 l 511 963 l 769 0 l 540 0 m 286 369 l 464 369 l 375 800 l 286 369 m 378 1024 q 223 1085 279 1024 q 158 1246 167 1147 l 274 1267 q 310 1197 285 1222 q 378 1172 336 1172 q 446 1198 419 1172 q 483 1267 472 1224 l 599 1246 q 533 1086 590 1149 q 378 1024 476 1024 m 288 1558 l 458 1321 l 375 1250 l 167 1449 l 288 1558 z "},"Ẳ":{"ha":754,"x_min":-15,"x_max":769,"o":"m 540 0 l 497 210 l 253 210 l 210 0 l -15 0 l 244 963 l 511 963 l 769 0 l 540 0 m 286 369 l 464 369 l 375 800 l 286 369 m 378 1024 q 223 1085 279 1024 q 158 1246 167 1147 l 274 1267 q 310 1197 285 1222 q 378 1172 336 1172 q 446 1198 419 1172 q 483 1267 472 1224 l 599 1246 q 533 1086 590 1149 q 378 1024 476 1024 m 317 1372 q 385 1386 365 1375 q 406 1425 406 1397 q 392 1457 406 1446 q 357 1468 379 1468 q 320 1464 336 1468 q 281 1451 304 1460 l 247 1540 q 388 1576 304 1576 q 504 1538 463 1576 q 546 1436 546 1499 q 519 1350 546 1382 q 440 1308 492 1318 l 440 1249 l 317 1249 l 317 1372 z "},"Ẵ":{"ha":754,"x_min":-15,"x_max":769,"o":"m 540 0 l 497 210 l 253 210 l 210 0 l -15 0 l 244 963 l 511 963 l 769 0 l 540 0 m 286 369 l 464 369 l 375 800 l 286 369 m 376 1024 q 222 1085 278 1024 q 157 1246 165 1147 l 272 1267 q 309 1197 283 1222 q 376 1172 335 1172 q 444 1198 418 1172 q 482 1267 471 1224 l 597 1246 q 532 1086 589 1149 q 376 1024 475 1024 m 453 1307 q 406 1315 425 1307 q 358 1340 386 1324 q 331 1357 342 1351 q 307 1363 319 1363 q 272 1350 286 1363 q 240 1307 257 1338 l 138 1353 q 206 1460 163 1419 q 303 1501 249 1501 q 351 1493 331 1501 q 399 1468 372 1485 q 424 1453 411 1460 q 450 1447 438 1447 q 484 1460 469 1447 q 515 1500 499 1472 l 618 1454 q 550 1347 593 1388 q 453 1307 507 1307 z "},"Ǎ":{"ha":754,"x_min":-15,"x_max":769,"o":"m 540 0 l 497 210 l 253 210 l 210 0 l -15 0 l 244 963 l 511 963 l 769 0 l 540 0 m 286 369 l 464 369 l 375 800 l 286 369 m 546 1304 l 619 1222 l 442 1042 l 313 1042 l 135 1222 l 210 1304 l 378 1189 l 546 1304 z "},"Â":{"ha":754,"x_min":-15,"x_max":769,"o":"m 540 0 l 497 210 l 253 210 l 210 0 l -15 0 l 244 963 l 511 963 l 769 0 l 540 0 m 286 369 l 464 369 l 375 800 l 286 369 m 210 1053 l 135 1133 l 314 1315 l 442 1315 l 619 1133 l 546 1053 l 378 1168 l 210 1053 z "},"Ấ":{"ha":754,"x_min":-15,"x_max":797,"o":"m 540 0 l 497 210 l 253 210 l 210 0 l -15 0 l 244 963 l 511 963 l 769 0 l 540 0 m 286 369 l 464 369 l 375 800 l 286 369 m 210 1006 l 135 1086 l 314 1268 l 442 1268 l 619 1086 l 546 1006 l 378 1121 l 210 1006 m 676 1513 l 797 1403 l 589 1204 l 507 1275 l 676 1513 z "},"Ậ":{"ha":754,"x_min":-15,"x_max":769,"o":"m 540 0 l 497 210 l 253 210 l 210 0 l -15 0 l 244 963 l 511 963 l 769 0 l 540 0 m 286 369 l 464 369 l 375 800 l 286 369 m 210 1053 l 135 1133 l 314 1315 l 442 1315 l 619 1133 l 546 1053 l 378 1168 l 210 1053 m 379 -329 q 290 -294 325 -329 q 254 -208 254 -260 q 290 -121 254 -156 q 379 -86 325 -86 q 468 -121 433 -86 q 503 -208 503 -156 q 468 -294 503 -260 q 379 -329 433 -329 z "},"Ầ":{"ha":754,"x_min":-42,"x_max":769,"o":"m 540 0 l 497 210 l 253 210 l 210 0 l -15 0 l 244 963 l 511 963 l 769 0 l 540 0 m 286 369 l 464 369 l 375 800 l 286 369 m 208 1006 l 133 1086 l 313 1268 l 440 1268 l 618 1086 l 544 1006 l 376 1121 l 208 1006 m 79 1513 l 250 1275 l 167 1204 l -42 1403 l 79 1513 z "},"Ẩ":{"ha":754,"x_min":-15,"x_max":769,"o":"m 540 0 l 497 210 l 253 210 l 210 0 l -15 0 l 244 963 l 511 963 l 769 0 l 540 0 m 286 369 l 464 369 l 375 800 l 286 369 m 208 1006 l 133 1086 l 313 1268 l 440 1268 l 618 1086 l 544 1006 l 376 1121 l 208 1006 m 536 1310 q 605 1324 585 1313 q 625 1363 625 1335 q 612 1394 625 1383 q 576 1406 599 1406 q 540 1401 556 1406 q 500 1389 524 1397 l 467 1478 q 607 1514 524 1514 q 724 1475 682 1514 q 765 1374 765 1436 q 738 1288 765 1319 q 660 1246 711 1256 l 660 1186 l 536 1186 l 536 1310 z "},"Ẫ":{"ha":754,"x_min":-15,"x_max":769,"o":"m 540 0 l 497 210 l 253 210 l 210 0 l -15 0 l 244 963 l 511 963 l 769 0 l 540 0 m 286 369 l 464 369 l 375 800 l 286 369 m 207 1006 l 132 1086 l 311 1268 l 439 1268 l 617 1086 l 543 1006 l 375 1121 l 207 1006 m 450 1308 q 403 1317 422 1308 q 356 1342 383 1325 q 328 1358 339 1353 q 304 1364 317 1364 q 269 1351 283 1364 q 238 1308 254 1339 l 135 1354 q 203 1462 160 1421 q 300 1503 246 1503 q 349 1494 328 1503 q 396 1469 369 1486 q 422 1455 408 1461 q 447 1449 435 1449 q 481 1461 467 1449 q 513 1501 496 1474 l 615 1456 q 547 1349 590 1389 q 450 1308 504 1308 z "},"Ȁ":{"ha":754,"x_min":-15,"x_max":769,"o":"m 540 0 l 497 210 l 253 210 l 210 0 l -15 0 l 244 963 l 511 963 l 769 0 l 540 0 m 286 369 l 464 369 l 375 800 l 286 369 m 210 1365 l 333 1094 l 228 1044 l 72 1294 l 210 1365 m 435 1365 l 547 1094 l 440 1050 l 296 1299 l 435 1365 z "},"Ä":{"ha":754,"x_min":-15,"x_max":769,"o":"m 540 0 l 497 210 l 253 210 l 210 0 l -15 0 l 244 963 l 511 963 l 769 0 l 540 0 m 286 369 l 464 369 l 375 800 l 286 369 m 232 1282 q 308 1251 278 1282 q 339 1175 339 1221 q 308 1098 339 1129 q 232 1067 278 1067 q 156 1098 188 1067 q 125 1175 125 1129 q 156 1251 125 1219 q 232 1282 188 1282 m 526 1282 q 603 1251 572 1282 q 635 1175 635 1221 q 604 1098 635 1129 q 526 1067 574 1067 q 451 1098 482 1067 q 419 1175 419 1129 q 451 1251 419 1219 q 526 1282 482 1282 z "},"Ǟ":{"ha":754,"x_min":-15,"x_max":769,"o":"m 540 0 l 497 210 l 253 210 l 210 0 l -15 0 l 244 963 l 511 963 l 769 0 l 540 0 m 286 369 l 464 369 l 375 800 l 286 369 m 229 1250 q 306 1219 275 1250 q 336 1143 336 1189 q 306 1066 336 1097 q 229 1035 275 1035 q 153 1066 185 1035 q 122 1143 122 1097 q 153 1219 122 1188 q 229 1250 185 1250 m 524 1250 q 601 1219 569 1250 q 632 1143 632 1189 q 601 1066 632 1097 q 524 1035 571 1035 q 448 1066 479 1035 q 417 1143 417 1097 q 448 1219 417 1188 q 524 1250 479 1250 m 574 1308 l 185 1308 l 185 1454 l 574 1454 l 574 1308 z "},"Ȧ":{"ha":754,"x_min":-15,"x_max":769,"o":"m 540 0 l 497 210 l 253 210 l 210 0 l -15 0 l 244 963 l 511 963 l 769 0 l 540 0 m 286 369 l 464 369 l 375 800 l 286 369 m 376 1297 q 466 1263 431 1297 q 501 1176 501 1228 q 466 1089 501 1124 q 376 1054 431 1054 q 288 1089 322 1054 q 253 1176 253 1124 q 288 1263 253 1228 q 376 1297 322 1297 z "},"Ạ":{"ha":754,"x_min":-15,"x_max":769,"o":"m 540 0 l 497 210 l 253 210 l 210 0 l -15 0 l 244 963 l 511 963 l 769 0 l 540 0 m 286 369 l 464 369 l 375 800 l 286 369 m 379 -329 q 290 -294 325 -329 q 254 -208 254 -260 q 290 -121 254 -156 q 379 -86 325 -86 q 468 -121 433 -86 q 503 -208 503 -156 q 468 -294 503 -260 q 379 -329 433 -329 z "},"Ǡ":{"ha":754,"x_min":-15,"x_max":769,"o":"m 540 0 l 497 210 l 253 210 l 210 0 l -15 0 l 244 963 l 511 963 l 769 0 l 540 0 m 286 369 l 464 369 l 375 800 l 286 369 m 376 1267 q 466 1232 431 1267 q 501 1146 501 1197 q 466 1058 501 1093 q 376 1024 431 1024 q 288 1058 322 1024 q 253 1146 253 1093 q 288 1232 253 1197 q 376 1267 322 1267 m 572 1308 l 183 1308 l 183 1454 l 572 1454 l 572 1308 z "},"À":{"ha":754,"x_min":-15,"x_max":769,"o":"m 540 0 l 497 210 l 253 210 l 210 0 l -15 0 l 244 963 l 511 963 l 769 0 l 540 0 m 286 369 l 464 369 l 375 800 l 286 369 m 276 1318 l 554 1149 l 500 1043 l 196 1161 l 276 1318 z "},"Ả":{"ha":754,"x_min":-15,"x_max":769,"o":"m 540 0 l 497 210 l 253 210 l 210 0 l -15 0 l 244 963 l 511 963 l 769 0 l 540 0 m 286 369 l 464 369 l 375 800 l 286 369 m 315 1185 q 384 1199 364 1188 q 404 1238 404 1210 q 391 1269 404 1258 q 356 1281 378 1281 q 319 1276 335 1281 q 279 1264 303 1272 l 246 1353 q 386 1389 303 1389 q 503 1350 461 1389 q 544 1249 544 1311 q 517 1163 544 1194 q 439 1121 490 1131 l 439 1061 l 315 1061 l 315 1185 z "},"Ȃ":{"ha":754,"x_min":-15,"x_max":769,"o":"m 540 0 l 497 210 l 253 210 l 210 0 l -15 0 l 244 963 l 511 963 l 769 0 l 540 0 m 286 369 l 464 369 l 375 800 l 286 369 m 376 1319 q 533 1255 476 1319 q 597 1083 590 1190 l 482 1063 q 444 1144 471 1115 q 376 1172 418 1172 q 272 1063 297 1172 l 157 1083 q 220 1255 164 1190 q 376 1319 276 1319 z "},"Ɑ":{"ha":867,"x_min":42,"x_max":839,"o":"m 786 231 q 798 169 786 190 q 839 135 810 149 l 776 -24 q 667 13 710 -11 q 600 75 625 36 q 386 -24 521 -24 q 206 32 283 -24 q 85 197 128 88 q 42 465 42 307 q 86 748 42 631 q 208 926 131 865 q 383 986 285 986 q 583 896 504 986 l 597 963 l 786 963 l 786 231 m 429 136 q 564 199 508 136 l 564 760 q 432 824 510 824 q 313 742 353 824 q 274 465 274 660 q 313 209 274 282 q 429 136 351 136 z "},"Ā":{"ha":754,"x_min":-15,"x_max":769,"o":"m 540 0 l 497 210 l 253 210 l 210 0 l -15 0 l 244 963 l 511 963 l 769 0 l 540 0 m 286 369 l 464 369 l 375 800 l 286 369 m 572 1088 l 183 1088 l 183 1233 l 572 1233 l 572 1088 z "},"Ą":{"ha":754,"x_min":-15,"x_max":769,"o":"m 654 0 q 540 -70 571 -35 q 508 -143 508 -106 q 574 -207 508 -207 q 649 -197 600 -207 l 635 -329 q 547 -340 593 -340 q 409 -297 463 -340 q 356 -181 356 -254 q 402 -54 356 -107 q 533 36 449 -1 l 497 210 l 253 210 l 210 0 l -15 0 l 244 963 l 511 963 l 769 0 l 654 0 m 286 369 l 464 369 l 375 800 l 286 369 z "},"Å":{"ha":754,"x_min":-15,"x_max":769,"o":"m 540 0 l 497 210 l 253 210 l 210 0 l -15 0 l 244 963 l 511 963 l 769 0 l 540 0 m 286 369 l 464 369 l 375 800 l 286 369 m 379 1376 q 510 1326 461 1376 q 558 1197 558 1275 q 510 1068 558 1119 q 379 1017 461 1017 q 248 1068 297 1017 q 199 1197 199 1119 q 248 1326 199 1275 q 379 1376 297 1376 m 379 1268 q 324 1197 324 1268 q 379 1125 324 1125 q 433 1197 433 1125 q 379 1268 433 1268 z "},"Ǻ":{"ha":754,"x_min":-15,"x_max":769,"o":"m 540 0 l 497 210 l 253 210 l 210 0 l -15 0 l 244 963 l 511 963 l 769 0 l 540 0 m 286 369 l 464 369 l 375 800 l 286 369 m 378 1361 q 508 1310 460 1361 q 557 1182 557 1260 q 508 1053 557 1104 q 378 1001 460 1001 q 247 1053 296 1001 q 197 1182 197 1104 q 247 1310 197 1260 q 378 1361 296 1361 m 378 1253 q 322 1182 322 1253 q 378 1110 322 1110 q 432 1182 432 1110 q 378 1253 432 1253 m 475 1646 l 556 1489 l 251 1369 l 197 1476 l 475 1646 z "},"Ⱥ":{"ha":754,"x_min":-15,"x_max":769,"o":"m 564 0 l 517 210 l 374 210 l 300 -103 l 225 -86 l 296 210 l 233 210 l 186 0 l -15 0 l 244 963 l 475 963 l 496 1049 l 569 1032 l 533 879 l 769 0 l 564 0 m 268 360 l 332 360 l 408 682 l 375 828 l 268 360 m 410 360 l 482 360 l 447 514 l 410 360 z "},"Ã":{"ha":754,"x_min":-15,"x_max":769,"o":"m 540 0 l 497 210 l 253 210 l 210 0 l -15 0 l 244 963 l 511 963 l 769 0 l 540 0 m 286 369 l 464 369 l 375 800 l 286 369 m 453 1063 q 406 1071 425 1063 q 358 1097 388 1079 q 330 1115 340 1110 q 307 1121 319 1121 q 272 1108 286 1121 q 240 1063 258 1094 l 138 1111 q 206 1226 163 1182 q 303 1269 249 1269 q 351 1260 331 1269 q 399 1233 372 1251 q 413 1225 401 1232 q 433 1215 424 1218 q 450 1211 442 1211 q 484 1224 469 1211 q 515 1268 499 1238 l 618 1219 q 550 1105 593 1147 q 453 1063 507 1063 z "},"Æ":{"ha":1064,"x_min":-31,"x_max":1031,"o":"m 740 161 l 1031 161 l 1031 0 l 554 0 l 525 210 l 268 210 l 207 0 l -31 0 l 310 963 l 985 963 l 961 804 l 632 804 l 672 565 l 972 565 l 972 408 l 699 408 l 740 161 m 315 371 l 501 371 l 440 800 l 315 371 z "},"Ǽ":{"ha":1064,"x_min":-31,"x_max":1031,"o":"m 740 161 l 1031 161 l 1031 0 l 554 0 l 525 210 l 268 210 l 207 0 l -31 0 l 310 963 l 985 963 l 961 804 l 632 804 l 672 565 l 972 565 l 972 408 l 699 408 l 740 161 m 315 371 l 501 371 l 440 800 l 315 371 m 707 1319 l 788 1163 l 483 1043 l 429 1150 l 707 1319 z "},"Ǣ":{"ha":1064,"x_min":-31,"x_max":1031,"o":"m 740 161 l 1031 161 l 1031 0 l 554 0 l 525 210 l 268 210 l 207 0 l -31 0 l 310 963 l 985 963 l 961 804 l 632 804 l 672 565 l 972 565 l 972 408 l 699 408 l 740 161 m 315 371 l 501 371 l 440 800 l 315 371 m 803 1088 l 414 1088 l 414 1233 l 803 1233 l 803 1088 z "},"B":{"ha":776,"x_min":76,"x_max":749,"o":"m 544 510 q 692 438 636 490 q 749 281 749 385 q 361 0 749 0 l 76 0 l 76 963 l 328 963 q 613 902 513 963 q 713 717 713 842 q 665 581 713 633 q 544 510 618 529 m 299 806 l 299 576 l 360 576 q 488 694 488 576 q 454 778 488 751 q 349 806 421 806 l 299 806 m 363 161 q 481 190 440 161 q 521 292 521 219 q 374 428 521 428 l 299 428 l 299 161 l 363 161 z "},"Ḃ":{"ha":776,"x_min":76,"x_max":749,"o":"m 544 510 q 692 438 636 490 q 749 281 749 385 q 361 0 749 0 l 76 0 l 76 963 l 328 963 q 613 902 513 963 q 713 717 713 842 q 665 581 713 633 q 544 510 618 529 m 299 806 l 299 576 l 360 576 q 488 694 488 576 q 454 778 488 751 q 349 806 421 806 l 299 806 m 363 161 q 481 190 440 161 q 521 292 521 219 q 374 428 521 428 l 299 428 l 299 161 l 363 161 m 369 1297 q 459 1263 424 1297 q 494 1176 494 1228 q 459 1089 494 1124 q 369 1054 424 1054 q 281 1089 315 1054 q 246 1176 246 1124 q 281 1263 246 1228 q 369 1297 315 1297 z "},"Ḅ":{"ha":776,"x_min":76,"x_max":749,"o":"m 544 510 q 692 438 636 490 q 749 281 749 385 q 361 0 749 0 l 76 0 l 76 963 l 328 963 q 613 902 513 963 q 713 717 713 842 q 665 581 713 633 q 544 510 618 529 m 299 806 l 299 576 l 360 576 q 488 694 488 576 q 454 778 488 751 q 349 806 421 806 l 299 806 m 363 161 q 481 190 440 161 q 521 292 521 219 q 374 428 521 428 l 299 428 l 299 161 l 363 161 m 393 -329 q 303 -294 339 -329 q 268 -208 268 -260 q 303 -121 268 -156 q 393 -86 339 -86 q 482 -121 447 -86 q 517 -208 517 -156 q 482 -294 517 -260 q 393 -329 447 -329 z "},"Ꞵ":{"ha":776,"x_min":76,"x_max":749,"o":"m 544 510 q 749 283 749 467 q 653 69 749 138 q 418 0 558 0 q 299 11 358 0 l 299 -292 l 76 -292 l 76 963 l 331 963 q 613 902 514 963 q 713 715 713 842 q 665 581 713 632 q 544 510 618 529 m 382 161 q 521 299 521 161 q 488 397 521 367 q 390 428 454 428 l 358 428 l 371 576 l 385 576 q 460 606 433 576 q 488 690 488 635 q 455 778 488 751 q 350 806 422 806 l 299 806 l 299 167 q 382 161 351 161 z "},"Ɓ":{"ha":965,"x_min":4,"x_max":938,"o":"m 733 510 q 881 438 825 490 q 938 281 938 385 q 550 0 938 0 l 265 0 l 265 804 l 232 804 q 175 746 175 804 q 199 651 175 708 l 63 592 q 19 675 35 635 q 4 764 4 715 q 67 909 4 856 q 243 963 131 963 l 517 963 q 801 902 701 963 q 901 717 901 842 q 854 581 901 633 q 733 510 807 529 m 488 806 l 488 576 l 549 576 q 676 694 676 576 q 643 778 676 751 q 538 806 610 806 l 488 806 m 551 161 q 669 190 629 161 q 710 292 710 219 q 563 428 710 428 l 488 428 l 488 161 l 551 161 z "},"Ƀ":{"ha":794,"x_min":19,"x_max":767,"o":"m 563 510 q 710 438 654 490 q 767 281 767 385 q 379 0 767 0 l 94 0 l 94 244 l 19 244 l 19 353 l 94 353 l 94 963 l 346 963 q 631 902 531 963 q 731 717 731 842 q 683 581 731 633 q 563 510 636 529 m 317 806 l 317 576 l 378 576 q 506 694 506 576 q 472 778 506 751 q 367 806 439 806 l 317 806 m 381 161 q 499 190 458 161 q 539 292 539 219 q 392 428 539 428 l 317 428 l 317 353 l 446 353 l 446 244 l 317 244 l 317 161 l 381 161 z "},"Ƃ":{"ha":754,"x_min":76,"x_max":735,"o":"m 383 618 q 644 542 553 618 q 735 318 735 467 q 640 80 735 160 q 379 0 546 0 l 76 0 l 76 963 l 632 963 l 610 794 l 299 794 l 299 618 l 383 618 m 365 161 q 469 198 436 161 q 503 315 503 235 q 469 427 503 390 q 361 464 435 464 l 299 464 l 299 161 l 365 161 z "},"C":{"ha":728,"x_min":42,"x_max":722,"o":"m 440 986 q 589 960 524 986 q 713 881 654 933 l 607 757 q 533 805 569 789 q 454 821 496 821 q 274 483 274 821 q 456 149 274 149 q 540 167 503 149 q 622 222 576 186 l 722 100 q 599 11 671 46 q 442 -24 528 -24 q 231 33 321 -24 q 92 204 142 90 q 42 483 42 318 q 93 758 42 644 q 234 928 144 871 q 440 986 324 986 z "},"Ć":{"ha":728,"x_min":42,"x_max":722,"o":"m 440 986 q 589 960 524 986 q 713 881 654 933 l 607 757 q 533 805 569 789 q 454 821 496 821 q 274 483 274 821 q 456 149 274 149 q 540 167 503 149 q 622 222 576 186 l 722 100 q 599 11 671 46 q 442 -24 528 -24 q 231 33 321 -24 q 92 204 142 90 q 42 483 42 318 q 93 758 42 644 q 234 928 144 871 q 440 986 324 986 m 549 1319 l 629 1163 l 325 1043 l 271 1150 l 549 1319 z "},"Č":{"ha":728,"x_min":42,"x_max":722,"o":"m 440 986 q 589 960 524 986 q 713 881 654 933 l 607 757 q 533 805 569 789 q 454 821 496 821 q 274 483 274 821 q 456 149 274 149 q 540 167 503 149 q 622 222 576 186 l 722 100 q 599 11 671 46 q 442 -24 528 -24 q 231 33 321 -24 q 92 204 142 90 q 42 483 42 318 q 93 758 42 644 q 234 928 144 871 q 440 986 324 986 m 618 1304 l 692 1222 l 514 1042 l 385 1042 l 207 1222 l 282 1304 l 450 1189 l 618 1304 z "},"Ç":{"ha":728,"x_min":42,"x_max":722,"o":"m 722 100 q 619 21 679 54 q 488 -21 560 -12 l 488 -71 q 586 -113 553 -79 q 619 -204 619 -147 q 568 -319 619 -275 q 428 -362 517 -362 q 282 -321 343 -362 l 331 -225 q 411 -246 369 -246 q 468 -203 468 -246 q 440 -166 468 -178 q 351 -154 411 -154 l 368 -18 q 128 135 215 8 q 42 483 42 263 q 93 758 42 644 q 234 928 144 871 q 440 986 324 986 q 589 960 524 986 q 713 881 654 933 l 607 757 q 533 805 569 789 q 454 821 496 821 q 274 483 274 821 q 456 149 274 149 q 540 167 503 149 q 622 222 576 186 l 722 100 z "},"Ĉ":{"ha":728,"x_min":42,"x_max":722,"o":"m 440 986 q 589 960 524 986 q 713 881 654 933 l 607 757 q 533 805 569 789 q 454 821 496 821 q 274 483 274 821 q 456 149 274 149 q 540 167 503 149 q 622 222 576 186 l 722 100 q 599 11 671 46 q 442 -24 528 -24 q 231 33 321 -24 q 92 204 142 90 q 42 483 42 318 q 93 758 42 644 q 234 928 144 871 q 440 986 324 986 m 282 1053 l 207 1133 l 386 1315 l 514 1315 l 692 1133 l 618 1053 l 450 1168 l 282 1053 z "},"Ċ":{"ha":728,"x_min":42,"x_max":722,"o":"m 440 986 q 589 960 524 986 q 713 881 654 933 l 607 757 q 533 805 569 789 q 454 821 496 821 q 274 483 274 821 q 456 149 274 149 q 540 167 503 149 q 622 222 576 186 l 722 100 q 599 11 671 46 q 442 -24 528 -24 q 231 33 321 -24 q 92 204 142 90 q 42 483 42 318 q 93 758 42 644 q 234 928 144 871 q 440 986 324 986 m 449 1297 q 538 1263 503 1297 q 574 1176 574 1228 q 538 1089 574 1124 q 449 1054 503 1054 q 360 1089 394 1054 q 325 1176 325 1124 q 360 1263 325 1228 q 449 1297 394 1297 z "},"Ꭓ":{"ha":725,"x_min":-8,"x_max":732,"o":"m 492 411 l 732 -221 l 493 -221 l 357 263 l 225 -221 l -8 -221 l 225 404 l 10 963 l 247 963 l 360 543 l 479 963 l 711 963 l 492 411 z "},"Ƈ":{"ha":728,"x_min":42,"x_max":917,"o":"m 742 1182 q 917 1131 839 1182 l 856 1000 q 815 1018 833 1013 q 774 1024 796 1024 q 727 1006 742 1024 q 713 946 713 988 l 713 881 l 615 767 q 454 821 533 821 q 274 483 274 821 q 457 149 274 149 q 539 167 503 149 q 622 224 575 186 l 722 100 q 599 11 671 46 q 440 -24 528 -24 q 231 33 321 -24 q 92 204 142 90 q 42 483 42 318 q 92 757 42 643 q 228 928 143 871 q 417 986 314 986 q 526 965 475 986 q 584 1125 528 1068 q 742 1182 640 1182 z "},"Ȼ":{"ha":728,"x_min":42,"x_max":722,"o":"m 722 100 q 599 11 671 46 q 442 -24 528 -24 q 349 -14 389 -24 l 328 -103 l 253 -86 l 275 10 q 103 179 164 60 q 42 483 42 299 q 93 758 42 644 q 234 928 144 871 q 440 986 324 986 q 507 982 475 986 l 522 1049 l 599 1032 l 582 963 q 713 881 653 936 l 607 757 q 543 800 569 786 l 390 161 q 456 149 422 149 q 540 167 503 149 q 622 222 576 186 l 722 100 m 274 483 q 326 221 274 307 l 468 821 l 454 821 q 274 483 274 821 z "},"D":{"ha":826,"x_min":76,"x_max":783,"o":"m 329 963 q 562 925 463 963 q 722 782 661 888 q 783 486 783 676 q 664 108 783 217 q 347 0 544 0 l 76 0 l 76 963 l 329 963 m 299 801 l 299 161 l 361 161 q 467 189 425 161 q 531 288 508 217 q 554 486 554 360 q 531 682 554 613 q 465 776 507 751 q 360 801 422 801 l 299 801 z "},"Ǳ":{"ha":1475,"x_min":76,"x_max":1449,"o":"m 329 963 q 562 925 463 963 q 722 782 661 888 q 783 486 783 676 q 664 108 783 217 q 347 0 544 0 l 76 0 l 76 963 l 329 963 m 299 801 l 299 161 l 361 161 q 467 189 425 161 q 531 288 508 217 q 554 486 554 360 q 531 682 554 613 q 465 776 507 751 q 360 801 422 801 l 299 801 m 1440 963 l 1440 794 l 1061 178 l 1449 178 l 1426 0 l 811 0 l 811 167 l 1193 790 l 847 790 l 847 963 l 1440 963 z "},"Ǆ":{"ha":1475,"x_min":76,"x_max":1449,"o":"m 329 963 q 562 925 463 963 q 722 782 661 888 q 783 486 783 676 q 664 108 783 217 q 347 0 544 0 l 76 0 l 76 963 l 329 963 m 299 801 l 299 161 l 361 161 q 467 189 425 161 q 531 288 508 217 q 554 486 554 360 q 531 682 554 613 q 465 776 507 751 q 360 801 422 801 l 299 801 m 1440 963 l 1440 794 l 1061 178 l 1449 178 l 1426 0 l 811 0 l 811 167 l 1193 790 l 847 790 l 847 963 l 1440 963 m 1306 1304 l 1379 1222 l 1201 1042 l 1072 1042 l 894 1222 l 969 1304 l 1138 1189 l 1306 1304 z "},"Ɖ":{"ha":849,"x_min":19,"x_max":806,"o":"m 351 963 q 584 925 485 963 q 744 782 683 888 q 806 486 806 676 q 686 108 806 217 q 369 0 567 0 l 99 0 l 99 424 l 19 424 l 19 557 l 99 557 l 99 963 l 351 963 m 383 161 q 489 189 447 161 q 553 288 531 217 q 576 486 576 360 q 553 682 576 613 q 487 776 529 751 q 382 801 444 801 l 321 801 l 321 557 l 468 557 l 468 424 l 321 424 l 321 161 l 383 161 z "},"Ð":{"ha":849,"x_min":19,"x_max":806,"o":"m 351 963 q 584 925 485 963 q 744 782 683 888 q 806 486 806 676 q 686 108 806 217 q 369 0 567 0 l 99 0 l 99 424 l 19 424 l 19 557 l 99 557 l 99 963 l 351 963 m 383 161 q 489 189 447 161 q 553 288 531 217 q 576 486 576 360 q 553 682 576 613 q 487 776 529 751 q 382 801 444 801 l 321 801 l 321 557 l 468 557 l 468 424 l 321 424 l 321 161 l 383 161 z "},"Ď":{"ha":826,"x_min":76,"x_max":783,"o":"m 329 963 q 562 925 463 963 q 722 782 661 888 q 783 486 783 676 q 664 108 783 217 q 347 0 544 0 l 76 0 l 76 963 l 329 963 m 299 801 l 299 161 l 361 161 q 467 189 425 161 q 531 288 508 217 q 554 486 554 360 q 531 682 554 613 q 465 776 507 751 q 360 801 422 801 l 299 801 m 540 1304 l 614 1222 l 436 1042 l 307 1042 l 129 1222 l 204 1304 l 372 1189 l 540 1304 z "},"Ḓ":{"ha":826,"x_min":76,"x_max":783,"o":"m 329 963 q 562 925 463 963 q 722 782 661 888 q 783 486 783 676 q 664 108 783 217 q 347 0 544 0 l 76 0 l 76 963 l 329 963 m 299 801 l 299 161 l 361 161 q 467 189 425 161 q 531 288 508 217 q 554 486 554 360 q 531 682 554 613 q 465 776 507 751 q 360 801 422 801 l 299 801 m 219 -361 l 144 -279 l 322 -87 l 451 -87 l 629 -279 l 554 -361 l 388 -235 l 219 -361 z "},"Đ":{"ha":849,"x_min":19,"x_max":806,"o":"m 351 963 q 584 925 485 963 q 744 782 683 888 q 806 486 806 676 q 686 108 806 217 q 369 0 567 0 l 99 0 l 99 424 l 19 424 l 19 557 l 99 557 l 99 963 l 351 963 m 383 161 q 489 189 447 161 q 553 288 531 217 q 576 486 576 360 q 553 682 576 613 q 487 776 529 751 q 382 801 444 801 l 321 801 l 321 557 l 468 557 l 468 424 l 321 424 l 321 161 l 383 161 z "},"Ḋ":{"ha":826,"x_min":76,"x_max":783,"o":"m 329 963 q 562 925 463 963 q 722 782 661 888 q 783 486 783 676 q 664 108 783 217 q 347 0 544 0 l 76 0 l 76 963 l 329 963 m 299 801 l 299 161 l 361 161 q 467 189 425 161 q 531 288 508 217 q 554 486 554 360 q 531 682 554 613 q 465 776 507 751 q 360 801 422 801 l 299 801 m 371 1297 q 460 1263 425 1297 q 496 1176 496 1228 q 460 1089 496 1124 q 371 1054 425 1054 q 282 1089 317 1054 q 247 1176 247 1124 q 282 1263 247 1228 q 371 1297 317 1297 z "},"Ḍ":{"ha":826,"x_min":76,"x_max":783,"o":"m 329 963 q 562 925 463 963 q 722 782 661 888 q 783 486 783 676 q 664 108 783 217 q 347 0 544 0 l 76 0 l 76 963 l 329 963 m 299 801 l 299 161 l 361 161 q 467 189 425 161 q 531 288 508 217 q 554 486 554 360 q 531 682 554 613 q 465 776 507 751 q 360 801 422 801 l 299 801 m 390 -329 q 301 -294 336 -329 q 265 -208 265 -260 q 301 -121 265 -156 q 390 -86 336 -86 q 479 -121 444 -86 q 514 -208 514 -156 q 479 -294 514 -260 q 390 -329 444 -329 z "},"Ɗ":{"ha":1014,"x_min":4,"x_max":972,"o":"m 518 963 q 751 925 651 963 q 911 782 850 888 q 972 486 972 676 q 853 108 972 217 q 536 0 733 0 l 265 0 l 265 804 l 232 804 q 175 746 175 804 q 199 651 175 708 l 63 592 q 19 675 35 635 q 4 764 4 715 q 67 909 4 856 q 243 963 131 963 l 518 963 m 550 161 q 656 189 614 161 q 720 288 697 217 q 743 486 743 360 q 719 682 743 613 q 653 776 696 751 q 549 801 611 801 l 488 801 l 488 161 l 550 161 z "},"Ḏ":{"ha":826,"x_min":76,"x_max":783,"o":"m 329 963 q 562 925 463 963 q 722 782 661 888 q 783 486 783 676 q 664 108 783 217 q 347 0 544 0 l 76 0 l 76 963 l 329 963 m 299 801 l 299 161 l 361 161 q 467 189 425 161 q 531 288 508 217 q 554 486 554 360 q 531 682 554 613 q 465 776 507 751 q 360 801 422 801 l 299 801 m 583 -262 l 194 -262 l 194 -117 l 583 -117 l 583 -262 z "},"Ƌ":{"ha":754,"x_min":21,"x_max":679,"o":"m 679 0 l 376 0 q 115 76 208 0 q 21 310 21 153 q 113 538 21 458 q 376 618 206 618 l 457 618 l 457 794 l 132 794 l 132 963 l 679 963 l 679 0 m 457 161 l 457 464 l 397 464 q 287 426 321 464 q 253 310 253 389 q 287 196 253 231 q 393 161 321 161 l 457 161 z "},"ǲ":{"ha":1393,"x_min":76,"x_max":1375,"o":"m 329 963 q 562 925 463 963 q 722 782 661 888 q 783 486 783 676 q 664 108 783 217 q 347 0 544 0 l 76 0 l 76 963 l 329 963 m 299 801 l 299 161 l 361 161 q 467 189 425 161 q 531 288 508 217 q 554 486 554 360 q 531 682 554 613 q 465 776 507 751 q 360 801 422 801 l 299 801 m 1368 738 l 1368 586 l 1067 163 l 1375 163 l 1356 0 l 828 0 l 828 151 l 1129 576 l 853 576 l 853 738 l 1368 738 z "},"ǅ":{"ha":1393,"x_min":76,"x_max":1375,"o":"m 329 963 q 562 925 463 963 q 722 782 661 888 q 783 486 783 676 q 664 108 783 217 q 347 0 544 0 l 76 0 l 76 963 l 329 963 m 299 801 l 299 161 l 361 161 q 467 189 425 161 q 531 288 508 217 q 554 486 554 360 q 531 682 554 613 q 465 776 507 751 q 360 801 422 801 l 299 801 m 1368 738 l 1368 586 l 1067 163 l 1375 163 l 1356 0 l 828 0 l 828 151 l 1129 576 l 853 576 l 853 738 l 1368 738 m 1276 1125 l 1350 1042 l 1172 850 l 1043 850 l 865 1042 l 940 1125 l 1108 997 l 1276 1125 z "},"E":{"ha":658,"x_min":76,"x_max":621,"o":"m 621 963 l 597 804 l 299 804 l 299 567 l 560 567 l 560 411 l 299 411 l 299 161 l 618 161 l 618 0 l 76 0 l 76 963 l 621 963 z "},"É":{"ha":658,"x_min":76,"x_max":621,"o":"m 621 963 l 597 804 l 299 804 l 299 567 l 560 567 l 560 411 l 299 411 l 299 161 l 618 161 l 618 0 l 76 0 l 76 963 l 621 963 m 449 1319 l 529 1163 l 225 1043 l 171 1150 l 449 1319 z "},"Ĕ":{"ha":658,"x_min":76,"x_max":621,"o":"m 621 963 l 597 804 l 299 804 l 299 567 l 560 567 l 560 411 l 299 411 l 299 161 l 618 161 l 618 0 l 76 0 l 76 963 l 621 963 m 349 1043 q 194 1105 250 1043 q 129 1265 138 1167 l 244 1286 q 281 1217 256 1242 q 349 1192 307 1192 q 417 1217 390 1192 q 454 1286 443 1243 l 569 1265 q 504 1106 561 1168 q 349 1043 447 1043 z "},"Ě":{"ha":658,"x_min":76,"x_max":621,"o":"m 621 963 l 597 804 l 299 804 l 299 567 l 560 567 l 560 411 l 299 411 l 299 161 l 618 161 l 618 0 l 76 0 l 76 963 l 621 963 m 518 1304 l 592 1222 l 414 1042 l 285 1042 l 107 1222 l 182 1304 l 350 1189 l 518 1304 z "},"Ȩ":{"ha":658,"x_min":76,"x_max":621,"o":"m 299 161 l 618 161 l 618 0 l 401 0 l 401 -71 q 500 -113 467 -79 q 533 -204 533 -147 q 482 -319 533 -275 q 342 -362 431 -362 q 196 -321 257 -362 l 244 -225 q 325 -246 283 -246 q 382 -203 382 -246 q 353 -166 382 -178 q 265 -154 325 -154 l 283 0 l 76 0 l 76 963 l 621 963 l 597 804 l 299 804 l 299 567 l 560 567 l 560 411 l 299 411 l 299 161 z "},"Ê":{"ha":658,"x_min":76,"x_max":621,"o":"m 621 963 l 597 804 l 299 804 l 299 567 l 560 567 l 560 411 l 299 411 l 299 161 l 618 161 l 618 0 l 76 0 l 76 963 l 621 963 m 182 1053 l 107 1133 l 286 1315 l 414 1315 l 592 1133 l 518 1053 l 350 1168 l 182 1053 z "},"Ế":{"ha":658,"x_min":76,"x_max":769,"o":"m 621 963 l 597 804 l 299 804 l 299 567 l 560 567 l 560 411 l 299 411 l 299 161 l 618 161 l 618 0 l 76 0 l 76 963 l 621 963 m 182 1006 l 107 1086 l 286 1268 l 414 1268 l 592 1086 l 518 1006 l 350 1121 l 182 1006 m 649 1513 l 769 1403 l 561 1204 l 479 1275 l 649 1513 z "},"Ệ":{"ha":658,"x_min":76,"x_max":621,"o":"m 621 963 l 597 804 l 299 804 l 299 567 l 560 567 l 560 411 l 299 411 l 299 161 l 618 161 l 618 0 l 76 0 l 76 963 l 621 963 m 182 1053 l 107 1133 l 286 1315 l 414 1315 l 592 1133 l 518 1053 l 350 1168 l 182 1053 m 349 -329 q 259 -294 294 -329 q 224 -208 224 -260 q 259 -121 224 -156 q 349 -86 294 -86 q 438 -121 403 -86 q 472 -208 472 -156 q 438 -294 472 -260 q 349 -329 403 -329 z "},"Ề":{"ha":658,"x_min":-69,"x_max":621,"o":"m 621 963 l 597 804 l 299 804 l 299 567 l 560 567 l 560 411 l 299 411 l 299 161 l 618 161 l 618 0 l 76 0 l 76 963 l 621 963 m 181 1006 l 106 1086 l 285 1268 l 413 1268 l 590 1086 l 517 1006 l 349 1121 l 181 1006 m 51 1513 l 222 1275 l 139 1204 l -69 1403 l 51 1513 z "},"Ể":{"ha":658,"x_min":76,"x_max":738,"o":"m 621 963 l 597 804 l 299 804 l 299 567 l 560 567 l 560 411 l 299 411 l 299 161 l 618 161 l 618 0 l 76 0 l 76 963 l 621 963 m 181 1006 l 106 1086 l 285 1268 l 413 1268 l 590 1086 l 517 1006 l 349 1121 l 181 1006 m 508 1310 q 577 1324 557 1313 q 597 1363 597 1335 q 584 1394 597 1383 q 549 1406 571 1406 q 512 1401 528 1406 q 472 1389 496 1397 l 439 1478 q 579 1514 496 1514 q 696 1475 654 1514 q 738 1374 738 1436 q 710 1288 738 1319 q 632 1246 683 1256 l 632 1186 l 508 1186 l 508 1310 z "},"Ễ":{"ha":658,"x_min":76,"x_max":621,"o":"m 621 963 l 597 804 l 299 804 l 299 567 l 560 567 l 560 411 l 299 411 l 299 161 l 618 161 l 618 0 l 76 0 l 76 963 l 621 963 m 179 1006 l 104 1086 l 283 1268 l 411 1268 l 589 1086 l 515 1006 l 347 1121 l 179 1006 m 422 1308 q 375 1317 394 1308 q 328 1342 356 1325 q 300 1358 311 1353 q 276 1364 289 1364 q 241 1351 256 1364 q 210 1308 226 1339 l 107 1354 q 175 1462 132 1421 q 272 1503 218 1503 q 321 1494 300 1503 q 368 1469 342 1486 q 394 1455 381 1461 q 419 1449 407 1449 q 453 1461 439 1449 q 485 1501 468 1474 l 588 1456 q 519 1349 563 1389 q 422 1308 476 1308 z "},"Ȅ":{"ha":658,"x_min":44,"x_max":621,"o":"m 621 963 l 597 804 l 299 804 l 299 567 l 560 567 l 560 411 l 299 411 l 299 161 l 618 161 l 618 0 l 76 0 l 76 963 l 621 963 m 182 1365 l 306 1094 l 200 1044 l 44 1294 l 182 1365 m 407 1365 l 519 1094 l 413 1050 l 268 1299 l 407 1365 z "},"Ë":{"ha":658,"x_min":76,"x_max":621,"o":"m 621 963 l 597 804 l 299 804 l 299 567 l 560 567 l 560 411 l 299 411 l 299 161 l 618 161 l 618 0 l 76 0 l 76 963 l 621 963 m 204 1282 q 281 1251 250 1282 q 311 1175 311 1221 q 281 1098 311 1129 q 204 1067 250 1067 q 128 1098 160 1067 q 97 1175 97 1129 q 128 1251 97 1219 q 204 1282 160 1282 m 499 1282 q 576 1251 544 1282 q 607 1175 607 1221 q 576 1098 607 1129 q 499 1067 546 1067 q 423 1098 454 1067 q 392 1175 392 1129 q 423 1251 392 1219 q 499 1282 454 1282 z "},"Ė":{"ha":658,"x_min":76,"x_max":621,"o":"m 621 963 l 597 804 l 299 804 l 299 567 l 560 567 l 560 411 l 299 411 l 299 161 l 618 161 l 618 0 l 76 0 l 76 963 l 621 963 m 349 1297 q 438 1263 403 1297 q 474 1176 474 1228 q 438 1089 474 1124 q 349 1054 403 1054 q 260 1089 294 1054 q 225 1176 225 1124 q 260 1263 225 1228 q 349 1297 294 1297 z "},"Ẹ":{"ha":658,"x_min":76,"x_max":621,"o":"m 621 963 l 597 804 l 299 804 l 299 567 l 560 567 l 560 411 l 299 411 l 299 161 l 618 161 l 618 0 l 76 0 l 76 963 l 621 963 m 349 -329 q 259 -294 294 -329 q 224 -208 224 -260 q 259 -121 224 -156 q 349 -86 294 -86 q 438 -121 403 -86 q 472 -208 472 -156 q 438 -294 472 -260 q 349 -329 403 -329 z "},"È":{"ha":658,"x_min":76,"x_max":621,"o":"m 621 963 l 597 804 l 299 804 l 299 567 l 560 567 l 560 411 l 299 411 l 299 161 l 618 161 l 618 0 l 76 0 l 76 963 l 621 963 m 249 1318 l 526 1149 l 472 1043 l 168 1161 l 249 1318 z "},"Ẻ":{"ha":658,"x_min":76,"x_max":621,"o":"m 621 963 l 597 804 l 299 804 l 299 567 l 560 567 l 560 411 l 299 411 l 299 161 l 618 161 l 618 0 l 76 0 l 76 963 l 621 963 m 288 1185 q 356 1199 336 1188 q 376 1238 376 1210 q 363 1269 376 1258 q 328 1281 350 1281 q 291 1276 307 1281 q 251 1264 275 1272 l 218 1353 q 358 1389 275 1389 q 475 1350 433 1389 q 517 1249 517 1311 q 490 1163 517 1194 q 411 1121 463 1131 l 411 1061 l 288 1061 l 288 1185 z "},"Ȇ":{"ha":658,"x_min":76,"x_max":621,"o":"m 621 963 l 597 804 l 299 804 l 299 567 l 560 567 l 560 411 l 299 411 l 299 161 l 618 161 l 618 0 l 76 0 l 76 963 l 621 963 m 349 1319 q 506 1255 449 1319 q 569 1083 563 1190 l 454 1063 q 417 1144 443 1115 q 349 1172 390 1172 q 244 1063 269 1172 l 129 1083 q 192 1255 136 1190 q 349 1319 249 1319 z "},"Ē":{"ha":658,"x_min":76,"x_max":621,"o":"m 621 963 l 597 804 l 299 804 l 299 567 l 560 567 l 560 411 l 299 411 l 299 161 l 618 161 l 618 0 l 76 0 l 76 963 l 621 963 m 544 1088 l 156 1088 l 156 1233 l 544 1233 l 544 1088 z "},"Ę":{"ha":658,"x_min":76,"x_max":621,"o":"m 299 161 l 618 161 l 618 0 l 569 0 q 455 -70 486 -35 q 424 -143 424 -106 q 489 -207 424 -207 q 564 -197 515 -207 l 550 -329 q 463 -340 508 -340 q 324 -297 378 -340 q 271 -181 271 -254 q 381 0 271 -69 l 76 0 l 76 963 l 621 963 l 597 804 l 299 804 l 299 567 l 560 567 l 560 411 l 299 411 l 299 161 z "},"Ɛ":{"ha":682,"x_min":28,"x_max":688,"o":"m 367 986 q 527 955 456 986 q 660 860 599 924 l 556 749 q 394 825 475 825 q 308 793 336 825 q 281 710 281 761 q 314 619 281 651 q 410 588 347 588 l 500 588 l 475 428 l 408 428 q 297 390 335 428 q 260 285 260 353 q 296 178 260 214 q 397 142 332 142 q 488 162 447 142 q 571 224 528 182 l 688 111 q 375 -24 571 -24 q 195 13 274 -24 q 72 115 117 49 q 28 271 28 182 q 87 438 28 378 q 251 511 146 499 q 103 590 153 532 q 54 733 54 647 q 93 863 54 806 q 203 953 132 921 q 367 986 275 986 z "},"Ǝ":{"ha":658,"x_min":40,"x_max":582,"o":"m 47 963 l 582 963 l 582 0 l 40 0 l 40 161 l 360 161 l 360 411 l 97 411 l 97 567 l 360 567 l 360 804 l 47 804 l 47 963 z "},"Ʃ":{"ha":629,"x_min":22,"x_max":607,"o":"m 607 963 l 607 801 l 256 801 l 468 519 l 468 429 l 250 165 l 607 165 l 607 0 l 22 0 l 22 161 l 269 472 l 22 801 l 22 963 l 607 963 z "},"Ɇ":{"ha":658,"x_min":76,"x_max":621,"o":"m 438 411 l 379 161 l 618 161 l 618 0 l 343 0 l 319 -103 l 244 -86 l 264 0 l 76 0 l 76 963 l 485 963 l 504 1049 l 579 1033 l 563 963 l 621 963 l 597 804 l 526 804 l 472 567 l 560 567 l 560 411 l 438 411 m 299 804 l 299 567 l 394 567 l 449 804 l 299 804 m 299 161 l 301 161 l 358 411 l 299 411 l 299 161 z "},"Ẽ":{"ha":658,"x_min":76,"x_max":621,"o":"m 621 963 l 597 804 l 299 804 l 299 567 l 560 567 l 560 411 l 299 411 l 299 161 l 618 161 l 618 0 l 76 0 l 76 963 l 621 963 m 425 1063 q 378 1071 397 1063 q 331 1097 360 1079 q 302 1115 313 1110 q 279 1121 292 1121 q 244 1108 258 1121 q 213 1063 231 1094 l 110 1111 q 178 1226 135 1182 q 275 1269 221 1269 q 324 1260 303 1269 q 371 1233 344 1251 q 385 1225 374 1232 q 405 1215 396 1218 q 422 1211 414 1211 q 456 1224 442 1211 q 488 1268 471 1238 l 590 1219 q 522 1105 565 1147 q 425 1063 479 1063 z "},"Ʒ":{"ha":688,"x_min":3,"x_max":661,"o":"m 388 558 q 591 482 521 553 q 661 285 661 411 q 619 126 661 196 q 499 17 578 57 q 310 -24 419 -24 q 131 13 206 -24 q 3 118 57 49 l 118 224 q 201 161 161 181 q 294 142 242 142 q 396 181 360 142 q 432 293 432 221 q 394 397 432 365 q 279 429 356 429 l 158 429 l 158 554 l 382 801 l 54 801 l 54 963 l 615 963 l 615 806 l 388 558 z "},"Ǯ":{"ha":688,"x_min":3,"x_max":661,"o":"m 388 558 q 591 482 521 553 q 661 285 661 411 q 619 126 661 196 q 499 17 578 57 q 310 -24 419 -24 q 131 13 206 -24 q 3 118 57 49 l 118 224 q 201 161 161 181 q 294 142 242 142 q 396 181 360 142 q 432 293 432 221 q 394 397 432 365 q 279 429 356 429 l 158 429 l 158 554 l 382 801 l 54 801 l 54 963 l 615 963 l 615 806 l 388 558 m 503 1304 l 576 1222 l 399 1042 l 269 1042 l 92 1222 l 167 1304 l 335 1189 l 503 1304 z "},"Ƹ":{"ha":688,"x_min":26,"x_max":685,"o":"m 685 118 q 553 13 629 49 q 372 -24 476 -24 q 188 15 265 -24 q 68 124 110 54 q 26 281 26 193 q 97 477 26 404 q 300 558 168 550 l 72 806 l 72 963 l 633 963 l 633 801 l 307 801 l 529 554 l 529 429 l 408 429 q 294 394 332 429 q 256 285 256 358 q 290 179 256 217 q 388 142 325 142 q 483 161 442 142 q 569 224 525 181 l 685 118 z "},"F":{"ha":613,"x_min":76,"x_max":604,"o":"m 76 0 l 76 963 l 604 963 l 581 804 l 299 804 l 299 543 l 546 543 l 546 385 l 299 385 l 299 0 l 76 0 z "},"Ḟ":{"ha":613,"x_min":76,"x_max":604,"o":"m 76 0 l 76 963 l 604 963 l 581 804 l 299 804 l 299 543 l 546 543 l 546 385 l 299 385 l 299 0 l 76 0 m 351 1297 q 441 1263 406 1297 q 476 1176 476 1228 q 441 1089 476 1124 q 351 1054 406 1054 q 263 1089 297 1054 q 228 1176 228 1124 q 263 1263 228 1228 q 351 1297 297 1297 z "},"Ƒ":{"ha":613,"x_min":-149,"x_max":604,"o":"m 299 804 l 299 543 l 546 543 l 546 385 l 299 385 l 299 0 l 297 0 l 297 -57 q 226 -244 297 -181 q 36 -307 156 -307 q -149 -249 -72 -307 l -75 -121 q -32 -140 -50 -135 q 10 -146 -14 -146 q 75 -69 75 -146 l 75 1 l 76 1 l 76 963 l 604 963 l 581 804 l 299 804 z "},"G":{"ha":819,"x_min":42,"x_max":763,"o":"m 465 986 q 760 868 635 986 l 651 754 q 565 808 604 792 q 475 825 525 825 q 325 745 378 825 q 272 482 272 665 q 290 276 272 350 q 344 171 308 201 q 440 140 381 140 q 551 171 503 140 l 551 396 l 444 396 l 424 553 l 763 553 l 763 76 q 611 3 694 29 q 444 -24 528 -24 q 141 102 240 -24 q 42 482 42 228 q 97 760 42 646 q 249 930 153 874 q 465 986 344 986 z "},"Ǵ":{"ha":819,"x_min":42,"x_max":763,"o":"m 465 986 q 760 868 635 986 l 651 754 q 565 808 604 792 q 475 825 525 825 q 325 745 378 825 q 272 482 272 665 q 290 276 272 350 q 344 171 308 201 q 440 140 381 140 q 551 171 503 140 l 551 396 l 444 396 l 424 553 l 763 553 l 763 76 q 611 3 694 29 q 444 -24 528 -24 q 141 102 240 -24 q 42 482 42 228 q 97 760 42 646 q 249 930 153 874 q 465 986 344 986 m 543 1319 l 624 1163 l 319 1043 l 265 1150 l 543 1319 z "},"Ɣ":{"ha":728,"x_min":-15,"x_max":743,"o":"m 479 126 q 544 -13 524 47 q 564 -136 564 -74 q 517 -262 564 -217 q 368 -307 469 -307 q 219 -262 267 -307 q 171 -137 171 -218 q 190 -24 171 -82 q 257 126 210 35 l -15 963 l 213 963 l 368 268 l 522 963 l 743 963 l 479 126 m 403 -124 q 394 -67 403 -97 q 368 10 386 -37 q 332 -124 332 -78 q 368 -167 332 -167 q 403 -124 403 -167 z "},"Ğ":{"ha":819,"x_min":42,"x_max":763,"o":"m 465 986 q 760 868 635 986 l 651 754 q 565 808 604 792 q 475 825 525 825 q 325 745 378 825 q 272 482 272 665 q 290 276 272 350 q 344 171 308 201 q 440 140 381 140 q 551 171 503 140 l 551 396 l 444 396 l 424 553 l 763 553 l 763 76 q 611 3 694 29 q 444 -24 528 -24 q 141 102 240 -24 q 42 482 42 228 q 97 760 42 646 q 249 930 153 874 q 465 986 344 986 m 443 1043 q 288 1105 344 1043 q 224 1265 232 1167 l 339 1286 q 376 1217 350 1242 q 443 1192 401 1192 q 511 1217 485 1192 q 549 1286 538 1243 l 664 1265 q 599 1106 656 1168 q 443 1043 542 1043 z "},"Ǧ":{"ha":819,"x_min":42,"x_max":763,"o":"m 465 986 q 760 868 635 986 l 651 754 q 565 808 604 792 q 475 825 525 825 q 325 745 378 825 q 272 482 272 665 q 290 276 272 350 q 344 171 308 201 q 440 140 381 140 q 551 171 503 140 l 551 396 l 444 396 l 424 553 l 763 553 l 763 76 q 611 3 694 29 q 444 -24 528 -24 q 141 102 240 -24 q 42 482 42 228 q 97 760 42 646 q 249 930 153 874 q 465 986 344 986 m 613 1304 l 686 1222 l 508 1042 l 379 1042 l 201 1222 l 276 1304 l 444 1189 l 613 1304 z "},"Ĝ":{"ha":819,"x_min":42,"x_max":763,"o":"m 465 986 q 760 868 635 986 l 651 754 q 565 808 604 792 q 475 825 525 825 q 325 745 378 825 q 272 482 272 665 q 290 276 272 350 q 344 171 308 201 q 440 140 381 140 q 551 171 503 140 l 551 396 l 444 396 l 424 553 l 763 553 l 763 76 q 611 3 694 29 q 444 -24 528 -24 q 141 102 240 -24 q 42 482 42 228 q 97 760 42 646 q 249 930 153 874 q 465 986 344 986 m 276 1053 l 201 1133 l 381 1315 l 508 1315 l 686 1133 l 613 1053 l 444 1168 l 276 1053 z "},"Ģ":{"ha":819,"x_min":42,"x_max":763,"o":"m 465 986 q 760 868 635 986 l 651 754 q 565 808 604 792 q 475 825 525 825 q 325 745 378 825 q 272 482 272 665 q 290 276 272 350 q 344 171 308 201 q 440 140 381 140 q 551 171 503 140 l 551 396 l 444 396 l 424 553 l 763 553 l 763 76 q 611 3 694 29 q 444 -24 528 -24 q 141 102 240 -24 q 42 482 42 228 q 97 760 42 646 q 249 930 153 874 q 465 986 344 986 m 442 -94 q 517 -124 488 -94 q 546 -200 546 -154 q 539 -251 546 -226 q 513 -317 532 -275 l 454 -449 l 349 -449 l 385 -289 q 338 -200 338 -256 q 367 -126 338 -157 q 442 -94 397 -94 z "},"Ġ":{"ha":819,"x_min":42,"x_max":763,"o":"m 465 986 q 760 868 635 986 l 651 754 q 565 808 604 792 q 475 825 525 825 q 325 745 378 825 q 272 482 272 665 q 290 276 272 350 q 344 171 308 201 q 440 140 381 140 q 551 171 503 140 l 551 396 l 444 396 l 424 553 l 763 553 l 763 76 q 611 3 694 29 q 444 -24 528 -24 q 141 102 240 -24 q 42 482 42 228 q 97 760 42 646 q 249 930 153 874 q 465 986 344 986 m 443 1297 q 533 1263 497 1297 q 568 1176 568 1228 q 533 1089 568 1124 q 443 1054 497 1054 q 354 1089 389 1054 q 319 1176 319 1124 q 354 1263 319 1228 q 443 1297 389 1297 z "},"Ɠ":{"ha":776,"x_min":42,"x_max":965,"o":"m 790 1182 q 965 1131 885 1182 l 904 1000 q 863 1018 881 1013 q 822 1024 844 1024 q 775 1006 790 1024 q 760 946 760 988 l 760 868 l 660 763 q 568 810 611 794 q 475 825 525 825 q 325 745 378 825 q 272 482 272 665 q 290 276 272 350 q 344 171 308 201 q 440 140 381 140 q 551 171 503 140 l 551 396 l 444 396 l 424 553 l 763 553 l 763 76 q 610 3 694 29 q 442 -24 526 -24 q 141 102 240 -24 q 42 482 42 228 q 97 758 42 644 q 242 929 151 872 q 443 986 333 986 q 575 960 518 986 l 575 963 q 631 1124 575 1067 q 790 1182 688 1182 z "},"Ɂ":{"ha":642,"x_min":1,"x_max":621,"o":"m 182 458 l 246 478 q 357 547 324 503 q 390 674 390 590 q 359 784 390 743 q 272 825 328 825 q 191 807 229 825 q 107 750 153 789 l 1 858 q 301 986 125 986 q 471 948 399 986 q 582 841 543 910 q 621 682 621 772 q 575 503 621 565 q 436 404 529 442 l 404 390 l 404 0 l 181 0 l 182 458 z "},"Ǥ":{"ha":843,"x_min":42,"x_max":847,"o":"m 847 244 l 763 244 l 763 76 q 611 3 694 29 q 442 -24 528 -24 q 141 103 240 -24 q 42 482 42 229 q 97 757 42 643 q 248 928 153 871 q 464 986 343 986 q 760 868 638 986 l 650 753 q 565 807 604 790 q 475 824 525 824 q 272 482 272 824 q 290 278 272 353 q 345 172 308 204 q 442 140 382 140 q 569 172 506 140 l 569 244 l 440 244 l 440 368 l 569 368 l 569 436 l 442 436 l 424 574 l 763 574 l 763 368 l 847 368 l 847 244 z "},"Ȝ":{"ha":654,"x_min":-6,"x_max":626,"o":"m 296 986 q 458 953 389 986 q 563 860 526 919 q 600 726 600 801 q 394 497 600 539 q 567 430 508 485 q 626 271 626 375 q 496 12 626 124 q 88 -157 365 -100 l 69 8 q 268 86 197 46 q 367 172 339 126 q 394 281 394 218 q 357 381 394 347 q 242 414 319 414 l 154 414 l 179 574 l 246 574 q 341 606 308 574 q 374 703 374 639 q 347 792 374 760 q 265 825 321 825 q 94 749 188 825 l -6 860 q 296 986 117 986 z "},"H":{"ha":836,"x_min":76,"x_max":761,"o":"m 539 0 l 539 414 l 299 414 l 299 0 l 76 0 l 76 963 l 299 963 l 299 588 l 539 588 l 539 963 l 761 963 l 761 0 l 539 0 z "},"Ħ":{"ha":851,"x_min":15,"x_max":836,"o":"m 836 821 l 836 696 l 769 696 l 769 0 l 547 0 l 547 414 l 307 414 l 307 0 l 85 0 l 85 696 l 15 696 l 15 821 l 85 821 l 85 963 l 307 963 l 307 821 l 547 821 l 547 963 l 769 963 l 769 821 l 836 821 m 547 588 l 547 696 l 307 696 l 307 588 l 547 588 z "},"Ȟ":{"ha":836,"x_min":76,"x_max":761,"o":"m 539 0 l 539 414 l 299 414 l 299 0 l 76 0 l 76 963 l 299 963 l 299 588 l 539 588 l 539 963 l 761 963 l 761 0 l 539 0 m 588 1304 l 661 1222 l 483 1042 l 354 1042 l 176 1222 l 251 1304 l 419 1189 l 588 1304 z "},"Ĥ":{"ha":836,"x_min":76,"x_max":761,"o":"m 539 0 l 539 414 l 299 414 l 299 0 l 76 0 l 76 963 l 299 963 l 299 588 l 539 588 l 539 963 l 761 963 l 761 0 l 539 0 m 251 1053 l 176 1133 l 356 1315 l 483 1315 l 661 1133 l 588 1053 l 419 1168 l 251 1053 z "},"Ḥ":{"ha":836,"x_min":76,"x_max":761,"o":"m 539 0 l 539 414 l 299 414 l 299 0 l 76 0 l 76 963 l 299 963 l 299 588 l 539 588 l 539 963 l 761 963 l 761 0 l 539 0 m 421 -329 q 331 -294 367 -329 q 296 -208 296 -260 q 331 -121 296 -156 q 421 -86 367 -86 q 510 -121 475 -86 q 544 -208 544 -156 q 510 -294 544 -260 q 421 -329 475 -329 z "},"Ɦ":{"ha":1025,"x_min":4,"x_max":950,"o":"m 950 963 l 950 0 l 728 0 l 728 414 l 488 414 l 488 0 l 265 0 l 265 804 l 232 804 q 175 746 175 804 q 199 651 175 708 l 63 592 q 19 675 35 635 q 4 764 4 715 q 67 909 4 856 q 243 963 131 963 l 488 963 l 488 588 l 728 588 l 728 963 l 950 963 z "},"Ɥ":{"ha":782,"x_min":25,"x_max":706,"o":"m 706 963 l 706 0 l 483 0 l 483 357 q 395 301 440 319 q 292 283 350 283 q 97 363 169 283 q 25 585 25 443 l 25 963 l 243 963 l 243 597 q 271 483 243 517 q 357 449 299 449 q 483 501 433 449 l 483 963 l 706 963 z "},"Ƕ":{"ha":1193,"x_min":76,"x_max":1143,"o":"m 1107 738 q 1133 541 1124 632 q 1143 350 1143 450 q 1097 134 1143 218 q 976 13 1050 50 q 813 -24 901 -24 q 615 42 692 -24 q 539 235 539 108 l 539 414 l 299 414 l 299 0 l 76 0 l 76 963 l 299 963 l 299 588 l 539 588 l 539 963 l 761 963 l 761 232 q 778 158 761 181 q 828 135 794 135 q 929 363 929 135 q 897 738 929 525 l 1107 738 z "},"I":{"ha":374,"x_min":76,"x_max":299,"o":"m 299 963 l 299 0 l 76 0 l 76 963 l 299 963 z "},"Ĳ":{"ha":776,"x_min":76,"x_max":704,"o":"m 299 963 l 299 0 l 76 0 l 76 963 l 299 963 m 704 146 q 626 -101 704 -18 q 414 -232 549 -185 l 356 -75 q 437 -22 410 -51 q 473 47 464 7 q 482 154 482 88 l 482 963 l 704 963 l 704 146 z "},"Í":{"ha":374,"x_min":7,"x_max":365,"o":"m 299 963 l 299 0 l 76 0 l 76 963 l 299 963 m 285 1319 l 365 1163 l 61 1043 l 7 1150 l 285 1319 z "},"Ĭ":{"ha":374,"x_min":-35,"x_max":406,"o":"m 299 963 l 299 0 l 76 0 l 76 963 l 299 963 m 185 1043 q 30 1105 86 1043 q -35 1265 -26 1167 l 81 1286 q 117 1217 92 1242 q 185 1192 143 1192 q 253 1217 226 1192 q 290 1286 279 1243 l 406 1265 q 340 1106 397 1168 q 185 1043 283 1043 z "},"Ǐ":{"ha":374,"x_min":-57,"x_max":428,"o":"m 299 963 l 299 0 l 76 0 l 76 963 l 299 963 m 354 1304 l 428 1222 l 250 1042 l 121 1042 l -57 1222 l 18 1304 l 186 1189 l 354 1304 z "},"Î":{"ha":374,"x_min":-57,"x_max":428,"o":"m 299 963 l 299 0 l 76 0 l 76 963 l 299 963 m 18 1053 l -57 1133 l 122 1315 l 250 1315 l 428 1133 l 354 1053 l 186 1168 l 18 1053 z "},"Ȉ":{"ha":374,"x_min":-119,"x_max":356,"o":"m 299 963 l 299 0 l 76 0 l 76 963 l 299 963 m 18 1365 l 142 1094 l 36 1044 l -119 1294 l 18 1365 m 243 1365 l 356 1094 l 249 1050 l 104 1299 l 243 1365 z "},"Ï":{"ha":374,"x_min":-67,"x_max":443,"o":"m 299 963 l 299 0 l 76 0 l 76 963 l 299 963 m 40 1282 q 117 1251 86 1282 q 147 1175 147 1221 q 117 1098 147 1129 q 40 1067 86 1067 q -35 1098 -4 1067 q -67 1175 -67 1129 q -35 1251 -67 1219 q 40 1282 -4 1282 m 335 1282 q 412 1251 381 1282 q 443 1175 443 1221 q 413 1098 443 1129 q 335 1067 382 1067 q 259 1098 290 1067 q 228 1175 228 1129 q 259 1251 228 1219 q 335 1282 290 1282 z "},"Ḯ":{"ha":374,"x_min":-78,"x_max":450,"o":"m 299 963 l 299 0 l 76 0 l 76 963 l 299 963 m 279 1515 l 400 1406 l 192 1207 l 110 1278 l 279 1515 m 29 1254 q 106 1224 75 1254 q 136 1147 136 1193 q 106 1070 136 1101 q 29 1039 75 1039 q -47 1070 -17 1039 q -78 1147 -78 1101 q -47 1223 -78 1192 q 29 1254 -17 1254 m 343 1254 q 419 1223 389 1254 q 450 1147 450 1192 q 419 1070 450 1101 q 343 1039 389 1039 q 266 1070 297 1039 q 235 1147 235 1101 q 266 1223 235 1192 q 343 1254 297 1254 z "},"İ":{"ha":374,"x_min":61,"x_max":310,"o":"m 299 963 l 299 0 l 76 0 l 76 963 l 299 963 m 185 1297 q 274 1263 239 1297 q 310 1176 310 1228 q 274 1089 310 1124 q 185 1054 239 1054 q 96 1089 131 1054 q 61 1176 61 1124 q 96 1263 61 1228 q 185 1297 131 1297 z "},"Ị":{"ha":374,"x_min":64,"x_max":313,"o":"m 299 963 l 299 0 l 76 0 l 76 963 l 299 963 m 189 -329 q 99 -294 135 -329 q 64 -208 64 -260 q 99 -121 64 -156 q 189 -86 135 -86 q 278 -121 243 -86 q 313 -208 313 -156 q 278 -294 313 -260 q 189 -329 243 -329 z "},"Ì":{"ha":374,"x_min":4,"x_max":363,"o":"m 299 963 l 299 0 l 76 0 l 76 963 l 299 963 m 85 1318 l 363 1149 l 308 1043 l 4 1161 l 85 1318 z "},"Ỉ":{"ha":374,"x_min":54,"x_max":353,"o":"m 299 963 l 299 0 l 76 0 l 76 963 l 299 963 m 124 1185 q 192 1199 172 1188 q 213 1238 213 1210 q 199 1269 213 1258 q 164 1281 186 1281 q 127 1276 143 1281 q 88 1264 111 1272 l 54 1353 q 194 1389 111 1389 q 311 1350 269 1389 q 353 1249 353 1311 q 326 1163 353 1194 q 247 1121 299 1131 l 247 1061 l 124 1061 l 124 1185 z "},"Ȋ":{"ha":374,"x_min":-35,"x_max":406,"o":"m 299 963 l 299 0 l 76 0 l 76 963 l 299 963 m 185 1319 q 342 1255 285 1319 q 406 1083 399 1190 l 290 1063 q 253 1144 279 1115 q 185 1172 226 1172 q 81 1063 106 1172 l -35 1083 q 28 1255 -28 1190 q 185 1319 85 1319 z "},"Ī":{"ha":374,"x_min":-8,"x_max":381,"o":"m 299 963 l 299 0 l 76 0 l 76 963 l 299 963 m 381 1088 l -8 1088 l -8 1233 l 381 1233 l 381 1088 z "},"Į":{"ha":374,"x_min":-47,"x_max":299,"o":"m 299 963 l 299 0 l 251 0 q 137 -70 168 -35 q 106 -143 106 -106 q 171 -207 106 -207 q 246 -197 197 -207 l 232 -329 q 144 -340 190 -340 q 6 -297 60 -340 q -47 -181 -47 -254 q 76 8 -47 -64 l 76 963 l 299 963 z "},"Ɩ":{"ha":499,"x_min":63,"x_max":508,"o":"m 508 36 q 324 -22 432 -22 q 133 41 204 -22 q 63 228 63 104 l 63 963 l 285 963 l 285 215 q 350 139 285 139 q 392 144 374 139 q 435 164 410 150 l 508 36 z "},"Ɨ":{"ha":421,"x_min":7,"x_max":414,"o":"m 414 582 l 414 418 l 322 418 l 322 0 l 100 0 l 100 418 l 7 418 l 7 582 l 100 582 l 100 963 l 322 963 l 322 582 l 414 582 z "},"Ĩ":{"ha":374,"x_min":-54,"x_max":426,"o":"m 299 963 l 299 0 l 76 0 l 76 963 l 299 963 m 261 1063 q 215 1071 233 1063 q 167 1097 196 1079 q 138 1115 149 1110 q 115 1121 128 1121 q 81 1108 94 1121 q 49 1063 67 1094 l -54 1111 q 14 1226 -29 1182 q 111 1269 57 1269 q 160 1260 139 1269 q 207 1233 181 1251 q 221 1225 210 1232 q 241 1215 232 1218 q 258 1211 250 1211 q 292 1224 278 1211 q 324 1268 307 1238 l 426 1219 q 358 1105 401 1147 q 261 1063 315 1063 z "},"J":{"ha":403,"x_min":-18,"x_max":331,"o":"m 331 146 q 253 -101 331 -18 q 40 -232 175 -185 l -18 -75 q 63 -22 36 -51 q 99 47 90 7 q 108 154 108 88 l 108 963 l 331 963 l 331 146 z "},"Ĵ":{"ha":403,"x_min":-24,"x_max":461,"o":"m 331 146 q 253 -101 331 -18 q 40 -232 175 -185 l -18 -75 q 63 -22 36 -51 q 99 47 90 7 q 108 154 108 88 l 108 963 l 331 963 l 331 146 m 51 1053 l -24 1133 l 156 1315 l 283 1315 l 461 1133 l 388 1053 l 219 1168 l 51 1053 z "},"Ʝ":{"ha":457,"x_min":-108,"x_max":514,"o":"m 472 -150 q 365 -107 425 -125 q 88 -307 317 -307 q -57 -264 -6 -307 q -108 -144 -108 -221 q -51 -15 -108 -61 q 108 31 6 31 q 157 28 132 31 l 157 963 l 379 963 l 379 19 l 379 -1 q 514 -61 451 -25 l 472 -150 m 76 -194 q 138 -166 119 -194 q 157 -74 157 -137 q 107 -71 144 -71 q 40 -87 61 -71 q 19 -137 19 -104 q 76 -194 19 -194 z "},"Ɉ":{"ha":428,"x_min":-18,"x_max":422,"o":"m 422 393 l 331 393 l 331 146 q 253 -101 331 -18 q 40 -232 175 -185 l -18 -75 q 63 -22 36 -51 q 99 47 90 7 q 108 154 108 88 l 108 393 l 15 393 l 15 560 l 108 560 l 108 963 l 331 963 l 331 560 l 422 560 l 422 393 z "},"K":{"ha":807,"x_min":76,"x_max":824,"o":"m 299 963 l 299 0 l 76 0 l 76 963 l 299 963 m 801 963 l 532 531 l 824 0 l 575 0 l 306 514 l 575 963 l 801 963 z "},"Ǩ":{"ha":807,"x_min":76,"x_max":824,"o":"m 299 963 l 299 0 l 76 0 l 76 963 l 299 963 m 801 963 l 532 531 l 824 0 l 575 0 l 306 514 l 575 963 l 801 963 m 583 1304 l 657 1222 l 479 1042 l 350 1042 l 172 1222 l 247 1304 l 415 1189 l 583 1304 z "},"Ķ":{"ha":807,"x_min":76,"x_max":824,"o":"m 299 963 l 299 0 l 76 0 l 76 963 l 299 963 m 801 963 l 532 531 l 824 0 l 575 0 l 306 514 l 575 963 l 801 963 m 411 -94 q 486 -124 457 -94 q 515 -200 515 -154 q 508 -251 515 -226 q 482 -317 501 -275 l 424 -449 l 318 -449 l 354 -289 q 307 -200 307 -256 q 337 -126 307 -157 q 411 -94 367 -94 z "},"Ƙ":{"ha":828,"x_min":76,"x_max":844,"o":"m 306 514 l 460 810 q 557 946 507 906 q 693 986 607 986 q 844 936 776 986 l 788 810 q 729 828 760 828 q 686 814 703 828 q 647 760 669 800 l 528 529 l 824 0 l 575 0 l 306 514 m 299 963 l 299 0 l 76 0 l 76 963 l 299 963 z "},"L":{"ha":646,"x_min":76,"x_max":633,"o":"m 299 963 l 299 176 l 633 176 l 610 0 l 76 0 l 76 963 l 299 963 z "},"Ǉ":{"ha":1017,"x_min":76,"x_max":944,"o":"m 299 963 l 299 176 l 633 176 l 610 0 l 76 0 l 76 963 l 299 963 m 944 146 q 867 -101 944 -18 q 654 -232 789 -185 l 596 -75 q 677 -22 650 -51 q 713 47 704 7 q 722 154 722 88 l 722 963 l 944 963 l 944 146 z "},"Ĺ":{"ha":646,"x_min":8,"x_max":633,"o":"m 299 963 l 299 176 l 633 176 l 610 0 l 76 0 l 76 963 l 299 963 m 286 1319 l 367 1163 l 63 1043 l 8 1150 l 286 1319 z "},"Ƚ":{"ha":668,"x_min":7,"x_max":656,"o":"m 321 176 l 656 176 l 632 0 l 99 0 l 99 421 l 7 421 l 7 588 l 99 588 l 99 963 l 321 963 l 321 588 l 414 588 l 414 421 l 321 421 l 321 176 z "},"Ɬ":{"ha":782,"x_min":3,"x_max":769,"o":"m 769 176 l 746 0 l 213 0 l 213 351 q 55 402 107 354 q 3 531 3 450 q 48 649 3 607 q 164 692 93 692 q 213 686 196 692 l 213 963 l 435 963 l 435 478 q 582 497 503 482 l 600 381 q 435 356 521 361 l 435 176 l 769 176 m 140 533 q 213 475 140 475 l 213 576 q 182 579 190 579 q 151 567 163 579 q 140 533 140 556 z "},"Ľ":{"ha":646,"x_min":76,"x_max":633,"o":"m 299 963 l 299 176 l 633 176 l 610 0 l 76 0 l 76 963 l 299 963 m 465 665 l 535 963 l 378 985 l 347 683 l 465 665 z "},"Ḽ":{"ha":646,"x_min":76,"x_max":633,"o":"m 299 963 l 299 176 l 633 176 l 610 0 l 76 0 l 76 963 l 299 963 m 174 -361 l 99 -279 l 276 -87 l 406 -87 l 583 -279 l 508 -361 l 342 -235 l 174 -361 z "},"Ļ":{"ha":646,"x_min":76,"x_max":633,"o":"m 299 963 l 299 176 l 633 176 l 610 0 l 76 0 l 76 963 l 299 963 m 343 -94 q 418 -124 389 -94 q 447 -200 447 -154 q 440 -251 447 -226 q 414 -317 433 -275 l 356 -449 l 250 -449 l 286 -289 q 239 -200 239 -256 q 269 -126 239 -157 q 343 -94 299 -94 z "},"Ŀ":{"ha":646,"x_min":76,"x_max":633,"o":"m 299 963 l 299 176 l 633 176 l 610 0 l 76 0 l 76 963 l 299 963 m 503 675 q 592 640 557 675 q 628 554 628 606 q 592 467 628 501 q 503 432 557 432 q 414 467 449 432 q 379 554 379 501 q 414 640 379 606 q 503 675 449 675 z "},"Ḷ":{"ha":646,"x_min":76,"x_max":633,"o":"m 299 963 l 299 176 l 633 176 l 610 0 l 76 0 l 76 963 l 299 963 m 344 -329 q 255 -294 290 -329 q 219 -208 219 -260 q 255 -121 219 -156 q 344 -86 290 -86 q 433 -121 399 -86 q 468 -208 468 -156 q 433 -294 468 -260 q 344 -329 399 -329 z "},"ǈ":{"ha":985,"x_min":76,"x_max":928,"o":"m 299 963 l 299 176 l 633 176 l 610 0 l 76 0 l 76 963 l 299 963 m 911 67 q 876 -112 911 -40 q 781 -227 842 -183 q 632 -307 721 -271 l 561 -151 q 638 -101 610 -125 q 681 -40 665 -78 q 697 58 697 -3 l 697 738 l 911 738 l 911 67 m 803 1122 q 892 1088 857 1122 q 928 1001 928 1053 q 892 914 928 949 q 803 879 857 879 q 714 914 749 879 q 679 1001 679 949 q 714 1088 679 1053 q 803 1122 749 1122 z "},"Ł":{"ha":701,"x_min":7,"x_max":689,"o":"m 354 176 l 689 176 l 665 0 l 132 0 l 132 314 l 78 278 l 7 396 l 126 478 l 132 482 l 132 963 l 354 963 l 354 629 l 501 726 l 572 610 l 354 464 l 354 176 z "},"M":{"ha":1000,"x_min":42,"x_max":958,"o":"m 958 0 l 746 0 l 733 381 q 728 626 728 547 q 731 769 728 724 l 604 101 l 396 101 l 263 769 q 268 546 268 664 q 265 376 268 493 l 253 0 l 42 0 l 106 963 l 383 963 l 504 307 l 615 963 l 894 963 l 958 0 z "},"Ḿ":{"ha":1000,"x_min":42,"x_max":958,"o":"m 958 0 l 746 0 l 733 381 q 728 626 728 547 q 731 769 728 724 l 604 101 l 396 101 l 263 769 q 268 546 268 664 q 265 376 268 493 l 253 0 l 42 0 l 106 963 l 383 963 l 504 307 l 615 963 l 894 963 l 958 0 m 599 1319 l 679 1163 l 375 1043 l 321 1150 l 599 1319 z "},"Ṁ":{"ha":1000,"x_min":42,"x_max":958,"o":"m 958 0 l 746 0 l 733 381 q 728 626 728 547 q 731 769 728 724 l 604 101 l 396 101 l 263 769 q 268 546 268 664 q 265 376 268 493 l 253 0 l 42 0 l 106 963 l 383 963 l 504 307 l 615 963 l 894 963 l 958 0 m 499 1297 q 588 1263 553 1297 q 624 1176 624 1228 q 588 1089 624 1124 q 499 1054 553 1054 q 410 1089 444 1054 q 375 1176 375 1124 q 410 1263 375 1228 q 499 1297 444 1297 z "},"Ɯ":{"ha":1146,"x_min":63,"x_max":1069,"o":"m 1069 963 l 1069 0 l 875 0 l 860 85 q 769 2 815 28 q 664 -24 722 -24 q 553 10 600 -24 q 481 101 506 43 q 382 6 431 36 q 272 -24 333 -24 q 119 48 175 -24 q 63 231 63 119 l 63 963 l 285 963 l 285 242 q 301 168 285 193 q 350 143 318 143 q 403 164 379 143 q 456 229 426 185 l 456 231 l 456 963 l 676 963 l 676 242 q 693 169 676 196 q 740 143 710 143 q 797 164 772 143 q 847 232 821 185 l 847 963 l 1069 963 z "},"N":{"ha":832,"x_min":76,"x_max":756,"o":"m 756 0 l 478 0 l 242 756 q 244 728 244 739 q 264 547 257 628 q 271 358 271 465 l 271 0 l 76 0 l 76 963 l 351 963 l 592 206 q 561 565 561 386 l 561 963 l 756 963 l 756 0 z "},"Ǌ":{"ha":1235,"x_min":76,"x_max":1163,"o":"m 756 0 l 478 0 l 242 756 q 244 728 244 739 q 264 547 257 628 q 271 358 271 465 l 271 0 l 76 0 l 76 963 l 351 963 l 592 206 q 561 565 561 386 l 561 963 l 756 963 l 756 0 m 1163 146 q 1085 -101 1163 -18 q 872 -232 1007 -185 l 814 -75 q 895 -22 868 -51 q 931 47 922 7 q 940 154 940 88 l 940 963 l 1163 963 l 1163 146 z "},"Ń":{"ha":832,"x_min":76,"x_max":756,"o":"m 756 0 l 478 0 l 242 756 q 244 728 244 739 q 264 547 257 628 q 271 358 271 465 l 271 0 l 76 0 l 76 963 l 351 963 l 592 206 q 561 565 561 386 l 561 963 l 756 963 l 756 0 m 518 1319 l 599 1163 l 294 1043 l 240 1150 l 518 1319 z "},"Ň":{"ha":832,"x_min":76,"x_max":756,"o":"m 756 0 l 478 0 l 242 756 q 244 728 244 739 q 264 547 257 628 q 271 358 271 465 l 271 0 l 76 0 l 76 963 l 351 963 l 592 206 q 561 565 561 386 l 561 963 l 756 963 l 756 0 m 588 1304 l 661 1222 l 483 1042 l 354 1042 l 176 1222 l 251 1304 l 419 1189 l 588 1304 z "},"Ṋ":{"ha":832,"x_min":76,"x_max":756,"o":"m 756 0 l 478 0 l 242 756 q 244 728 244 739 q 264 547 257 628 q 271 358 271 465 l 271 0 l 76 0 l 76 963 l 351 963 l 592 206 q 561 565 561 386 l 561 963 l 756 963 l 756 0 m 247 -361 l 172 -279 l 350 -87 l 479 -87 l 657 -279 l 582 -361 l 415 -235 l 247 -361 z "},"Ņ":{"ha":832,"x_min":76,"x_max":756,"o":"m 756 0 l 478 0 l 242 756 q 244 728 244 739 q 264 547 257 628 q 271 358 271 465 l 271 0 l 76 0 l 76 963 l 351 963 l 592 206 q 561 565 561 386 l 561 963 l 756 963 l 756 0 m 417 -94 q 492 -124 463 -94 q 521 -200 521 -154 q 514 -251 521 -226 q 488 -317 507 -275 l 429 -449 l 324 -449 l 360 -289 q 313 -200 313 -256 q 342 -126 313 -157 q 417 -94 372 -94 z "},"Ṅ":{"ha":832,"x_min":76,"x_max":756,"o":"m 756 0 l 478 0 l 242 756 q 244 728 244 739 q 264 547 257 628 q 271 358 271 465 l 271 0 l 76 0 l 76 963 l 351 963 l 592 206 q 561 565 561 386 l 561 963 l 756 963 l 756 0 m 418 1297 q 508 1263 472 1297 q 543 1176 543 1228 q 508 1089 543 1124 q 418 1054 472 1054 q 329 1089 364 1054 q 294 1176 294 1124 q 329 1263 294 1228 q 418 1297 364 1297 z "},"Ṇ":{"ha":832,"x_min":76,"x_max":756,"o":"m 756 0 l 478 0 l 242 756 q 244 728 244 739 q 264 547 257 628 q 271 358 271 465 l 271 0 l 76 0 l 76 963 l 351 963 l 592 206 q 561 565 561 386 l 561 963 l 756 963 l 756 0 m 418 -329 q 328 -294 364 -329 q 293 -208 293 -260 q 328 -121 293 -156 q 418 -86 364 -86 q 507 -121 472 -86 q 542 -208 542 -156 q 507 -294 542 -260 q 418 -329 472 -329 z "},"Ǹ":{"ha":832,"x_min":76,"x_max":756,"o":"m 756 0 l 478 0 l 242 756 q 244 728 244 739 q 264 547 257 628 q 271 358 271 465 l 271 0 l 76 0 l 76 963 l 351 963 l 592 206 q 561 565 561 386 l 561 963 l 756 963 l 756 0 m 318 1318 l 596 1149 l 542 1043 l 238 1161 l 318 1318 z "},"Ŋ":{"ha":832,"x_min":76,"x_max":756,"o":"m 756 963 l 756 -57 q 685 -244 756 -181 q 494 -307 614 -307 q 310 -249 386 -307 l 383 -121 q 426 -140 408 -135 q 468 -146 444 -146 q 533 -69 533 -146 l 533 0 l 478 0 l 242 756 q 244 728 244 739 q 264 547 257 628 q 271 358 271 465 l 271 0 l 76 0 l 76 963 l 351 963 l 592 206 q 561 565 561 386 l 561 963 l 756 963 z "},"Ɲ":{"ha":832,"x_min":-151,"x_max":756,"o":"m 756 963 l 756 0 l 478 0 l 242 756 q 244 728 244 739 q 264 547 257 628 q 271 358 271 465 l 271 -57 q 205 -242 271 -178 q 29 -307 139 -307 q -151 -249 -75 -307 l -78 -129 q -31 -150 -47 -144 q 8 -156 -15 -156 q 76 -74 76 -156 l 76 963 l 351 963 l 592 206 q 561 565 561 386 l 561 963 l 756 963 z "},"ǋ":{"ha":1192,"x_min":76,"x_max":1135,"o":"m 756 0 l 478 0 l 242 756 q 244 728 244 739 q 264 547 257 628 q 271 358 271 465 l 271 0 l 76 0 l 76 963 l 351 963 l 592 206 q 561 565 561 386 l 561 963 l 756 963 l 756 0 m 1118 67 q 1083 -112 1118 -40 q 988 -227 1049 -183 q 839 -307 928 -271 l 768 -151 q 844 -101 817 -125 q 888 -40 872 -78 q 904 58 904 -3 l 904 738 l 1118 738 l 1118 67 m 1010 1122 q 1099 1088 1064 1122 q 1135 1001 1135 1053 q 1099 914 1135 949 q 1010 879 1064 879 q 921 914 956 879 q 886 1001 886 949 q 921 1088 886 1053 q 1010 1122 956 1122 z "},"Ƞ":{"ha":821,"x_min":76,"x_max":753,"o":"m 526 986 q 695 918 638 986 q 753 738 753 850 l 753 -292 l 529 -292 l 529 701 q 510 792 529 764 q 449 821 492 821 q 372 799 406 821 q 299 731 339 776 l 299 0 l 76 0 l 76 963 l 271 963 l 286 875 q 397 959 340 932 q 526 986 454 986 z "},"Ñ":{"ha":832,"x_min":76,"x_max":756,"o":"m 756 0 l 478 0 l 242 756 q 244 728 244 739 q 264 547 257 628 q 271 358 271 465 l 271 0 l 76 0 l 76 963 l 351 963 l 592 206 q 561 565 561 386 l 561 963 l 756 963 l 756 0 m 494 1063 q 448 1071 467 1063 q 400 1097 429 1079 q 372 1115 382 1110 q 349 1121 361 1121 q 314 1108 328 1121 q 282 1063 300 1094 l 179 1111 q 247 1226 204 1182 q 344 1269 290 1269 q 393 1260 372 1269 q 440 1233 414 1251 q 454 1225 443 1232 q 474 1215 465 1218 q 492 1211 483 1211 q 526 1224 511 1211 q 557 1268 540 1238 l 660 1219 q 592 1105 635 1147 q 494 1063 549 1063 z "},"O":{"ha":875,"x_min":42,"x_max":833,"o":"m 438 986 q 731 858 628 986 q 833 482 833 729 q 730 107 833 238 q 438 -24 626 -24 q 145 106 249 -24 q 42 482 42 235 q 145 856 42 725 q 438 986 249 986 m 438 824 q 313 744 353 824 q 274 482 274 665 q 314 217 274 296 q 438 139 354 139 q 562 217 522 139 q 601 482 601 296 q 562 744 601 665 q 438 824 522 824 z "},"Ȣ":{"ha":825,"x_min":42,"x_max":783,"o":"m 615 554 q 740 458 697 521 q 783 301 783 394 q 738 138 783 213 q 609 20 693 64 q 413 -24 525 -24 q 216 19 300 -24 q 87 135 132 61 q 42 301 42 208 q 85 456 42 392 q 208 551 128 519 q 92 742 92 614 l 92 963 l 314 963 l 314 728 q 336 649 314 678 q 413 621 358 621 q 511 728 511 621 l 511 963 l 733 963 l 733 742 q 703 633 733 681 q 615 554 672 585 m 413 140 q 517 181 483 140 q 551 304 551 221 q 516 423 551 382 q 413 464 481 464 q 309 423 344 464 q 274 304 274 382 q 413 140 274 140 z "},"Ó":{"ha":875,"x_min":42,"x_max":833,"o":"m 438 986 q 731 858 628 986 q 833 482 833 729 q 730 107 833 238 q 438 -24 626 -24 q 145 106 249 -24 q 42 482 42 235 q 145 856 42 725 q 438 986 249 986 m 438 824 q 313 744 353 824 q 274 482 274 665 q 314 217 274 296 q 438 139 354 139 q 562 217 522 139 q 601 482 601 296 q 562 744 601 665 q 438 824 522 824 m 536 1319 l 617 1163 l 313 1043 l 258 1150 l 536 1319 z "},"Ŏ":{"ha":875,"x_min":42,"x_max":833,"o":"m 438 986 q 731 858 628 986 q 833 482 833 729 q 730 107 833 238 q 438 -24 626 -24 q 145 106 249 -24 q 42 482 42 235 q 145 856 42 725 q 438 986 249 986 m 438 824 q 313 744 353 824 q 274 482 274 665 q 314 217 274 296 q 438 139 354 139 q 562 217 522 139 q 601 482 601 296 q 562 744 601 665 q 438 824 522 824 m 436 1043 q 281 1105 338 1043 q 217 1265 225 1167 l 332 1286 q 369 1217 343 1242 q 436 1192 394 1192 q 504 1217 478 1192 q 542 1286 531 1243 l 657 1265 q 592 1106 649 1168 q 436 1043 535 1043 z "},"Ǒ":{"ha":875,"x_min":42,"x_max":833,"o":"m 438 986 q 731 858 628 986 q 833 482 833 729 q 730 107 833 238 q 438 -24 626 -24 q 145 106 249 -24 q 42 482 42 235 q 145 856 42 725 q 438 986 249 986 m 438 824 q 313 744 353 824 q 274 482 274 665 q 314 217 274 296 q 438 139 354 139 q 562 217 522 139 q 601 482 601 296 q 562 744 601 665 q 438 824 522 824 m 606 1304 l 679 1222 l 501 1042 l 372 1042 l 194 1222 l 269 1304 l 438 1189 l 606 1304 z "},"Ɵ":{"ha":875,"x_min":42,"x_max":833,"o":"m 438 986 q 731 858 628 986 q 833 482 833 729 q 730 107 833 238 q 438 -24 626 -24 q 145 106 249 -24 q 42 482 42 235 q 145 856 42 725 q 438 986 249 986 m 438 824 q 317 760 360 824 q 267 551 275 696 l 608 551 q 558 760 600 696 q 438 824 517 824 m 438 139 q 561 205 519 139 q 608 424 603 271 l 267 424 q 315 205 272 271 q 438 139 357 139 z "},"Ô":{"ha":875,"x_min":42,"x_max":833,"o":"m 438 986 q 731 858 628 986 q 833 482 833 729 q 730 107 833 238 q 438 -24 626 -24 q 145 106 249 -24 q 42 482 42 235 q 145 856 42 725 q 438 986 249 986 m 438 824 q 313 744 353 824 q 274 482 274 665 q 314 217 274 296 q 438 139 354 139 q 562 217 522 139 q 601 482 601 296 q 562 744 601 665 q 438 824 522 824 m 269 1053 l 194 1133 l 374 1315 l 501 1315 l 679 1133 l 606 1053 l 438 1168 l 269 1053 z "},"Ố":{"ha":875,"x_min":42,"x_max":857,"o":"m 438 986 q 731 858 628 986 q 833 482 833 729 q 730 107 833 238 q 438 -24 626 -24 q 145 106 249 -24 q 42 482 42 235 q 145 856 42 725 q 438 986 249 986 m 438 824 q 313 744 353 824 q 274 482 274 665 q 314 217 274 296 q 438 139 354 139 q 562 217 522 139 q 601 482 601 296 q 562 744 601 665 q 438 824 522 824 m 269 1006 l 194 1086 l 374 1268 l 501 1268 l 679 1086 l 606 1006 l 438 1121 l 269 1006 m 736 1513 l 857 1403 l 649 1204 l 567 1275 l 736 1513 z "},"Ộ":{"ha":875,"x_min":42,"x_max":833,"o":"m 438 986 q 731 858 628 986 q 833 482 833 729 q 730 107 833 238 q 438 -24 626 -24 q 145 106 249 -24 q 42 482 42 235 q 145 856 42 725 q 438 986 249 986 m 438 824 q 313 744 353 824 q 274 482 274 665 q 314 217 274 296 q 438 139 354 139 q 562 217 522 139 q 601 482 601 296 q 562 744 601 665 q 438 824 522 824 m 269 1053 l 194 1133 l 374 1315 l 501 1315 l 679 1133 l 606 1053 l 438 1168 l 269 1053 m 439 -329 q 349 -294 385 -329 q 314 -208 314 -260 q 349 -121 314 -156 q 439 -86 385 -86 q 528 -121 493 -86 q 563 -208 563 -156 q 528 -294 563 -260 q 439 -329 493 -329 z "},"Ồ":{"ha":875,"x_min":18,"x_max":833,"o":"m 438 986 q 731 858 628 986 q 833 482 833 729 q 730 107 833 238 q 438 -24 626 -24 q 145 106 249 -24 q 42 482 42 235 q 145 856 42 725 q 438 986 249 986 m 438 824 q 313 744 353 824 q 274 482 274 665 q 314 217 274 296 q 438 139 354 139 q 562 217 522 139 q 601 482 601 296 q 562 744 601 665 q 438 824 522 824 m 268 1006 l 193 1086 l 372 1268 l 500 1268 l 678 1086 l 604 1006 l 436 1121 l 268 1006 m 139 1513 l 310 1275 l 226 1204 l 18 1403 l 139 1513 z "},"Ổ":{"ha":875,"x_min":42,"x_max":833,"o":"m 438 986 q 731 858 628 986 q 833 482 833 729 q 730 107 833 238 q 438 -24 626 -24 q 145 106 249 -24 q 42 482 42 235 q 145 856 42 725 q 438 986 249 986 m 438 824 q 313 744 353 824 q 274 482 274 665 q 314 217 274 296 q 438 139 354 139 q 562 217 522 139 q 601 482 601 296 q 562 744 601 665 q 438 824 522 824 m 268 1006 l 193 1086 l 372 1268 l 500 1268 l 678 1086 l 604 1006 l 436 1121 l 268 1006 m 596 1310 q 665 1324 644 1313 q 685 1363 685 1335 q 672 1394 685 1383 q 636 1406 658 1406 q 599 1401 615 1406 q 560 1389 583 1397 l 526 1478 q 667 1514 583 1514 q 783 1475 742 1514 q 825 1374 825 1436 q 798 1288 825 1319 q 719 1246 771 1256 l 719 1186 l 596 1186 l 596 1310 z "},"Ỗ":{"ha":875,"x_min":42,"x_max":833,"o":"m 438 986 q 731 858 628 986 q 833 482 833 729 q 730 107 833 238 q 438 -24 626 -24 q 145 106 249 -24 q 42 482 42 235 q 145 856 42 725 q 438 986 249 986 m 438 824 q 313 744 353 824 q 274 482 274 665 q 314 217 274 296 q 438 139 354 139 q 562 217 522 139 q 601 482 601 296 q 562 744 601 665 q 438 824 522 824 m 267 1006 l 192 1086 l 371 1268 l 499 1268 l 676 1086 l 603 1006 l 435 1121 l 267 1006 m 510 1308 q 463 1317 482 1308 q 415 1342 443 1325 q 388 1358 399 1353 q 364 1364 376 1364 q 328 1351 343 1364 q 297 1308 314 1339 l 194 1354 q 263 1462 219 1421 q 360 1503 306 1503 q 408 1494 388 1503 q 456 1469 429 1486 q 481 1455 468 1461 q 507 1449 494 1449 q 541 1461 526 1449 q 572 1501 556 1474 l 675 1456 q 607 1349 650 1389 q 510 1308 564 1308 z "},"Ȍ":{"ha":875,"x_min":42,"x_max":833,"o":"m 438 986 q 731 858 628 986 q 833 482 833 729 q 730 107 833 238 q 438 -24 626 -24 q 145 106 249 -24 q 42 482 42 235 q 145 856 42 725 q 438 986 249 986 m 438 824 q 313 744 353 824 q 274 482 274 665 q 314 217 274 296 q 438 139 354 139 q 562 217 522 139 q 601 482 601 296 q 562 744 601 665 q 438 824 522 824 m 269 1365 l 393 1094 l 288 1044 l 132 1294 l 269 1365 m 494 1365 l 607 1094 l 500 1050 l 356 1299 l 494 1365 z "},"Ö":{"ha":875,"x_min":42,"x_max":833,"o":"m 438 986 q 731 858 628 986 q 833 482 833 729 q 730 107 833 238 q 438 -24 626 -24 q 145 106 249 -24 q 42 482 42 235 q 145 856 42 725 q 438 986 249 986 m 438 824 q 313 744 353 824 q 274 482 274 665 q 314 217 274 296 q 438 139 354 139 q 562 217 522 139 q 601 482 601 296 q 562 744 601 665 q 438 824 522 824 m 292 1282 q 368 1251 338 1282 q 399 1175 399 1221 q 368 1098 399 1129 q 292 1067 338 1067 q 216 1098 247 1067 q 185 1175 185 1129 q 216 1251 185 1219 q 292 1282 247 1282 m 586 1282 q 663 1251 632 1282 q 694 1175 694 1221 q 664 1098 694 1129 q 586 1067 633 1067 q 510 1098 542 1067 q 479 1175 479 1129 q 510 1251 479 1219 q 586 1282 542 1282 z "},"Ȫ":{"ha":875,"x_min":42,"x_max":833,"o":"m 438 986 q 731 858 628 986 q 833 482 833 729 q 730 107 833 238 q 438 -24 626 -24 q 145 106 249 -24 q 42 482 42 235 q 145 856 42 725 q 438 986 249 986 m 438 824 q 313 744 353 824 q 274 482 274 665 q 314 217 274 296 q 438 139 354 139 q 562 217 522 139 q 601 482 601 296 q 562 744 601 665 q 438 824 522 824 m 289 1250 q 365 1219 335 1250 q 396 1143 396 1189 q 365 1066 396 1097 q 289 1035 335 1035 q 213 1066 244 1035 q 182 1143 182 1097 q 213 1219 182 1188 q 289 1250 244 1250 m 583 1250 q 660 1219 629 1250 q 692 1143 692 1189 q 661 1066 692 1097 q 583 1035 631 1035 q 508 1066 539 1035 q 476 1143 476 1097 q 508 1219 476 1188 q 583 1250 539 1250 m 633 1308 l 244 1308 l 244 1454 l 633 1454 l 633 1308 z "},"Ȯ":{"ha":875,"x_min":42,"x_max":833,"o":"m 438 986 q 731 858 628 986 q 833 482 833 729 q 730 107 833 238 q 438 -24 626 -24 q 145 106 249 -24 q 42 482 42 235 q 145 856 42 725 q 438 986 249 986 m 438 824 q 313 744 353 824 q 274 482 274 665 q 314 217 274 296 q 438 139 354 139 q 562 217 522 139 q 601 482 601 296 q 562 744 601 665 q 438 824 522 824 m 436 1297 q 526 1263 490 1297 q 561 1176 561 1228 q 526 1089 561 1124 q 436 1054 490 1054 q 347 1089 382 1054 q 313 1176 313 1124 q 347 1263 313 1228 q 436 1297 382 1297 z "},"Ȱ":{"ha":875,"x_min":42,"x_max":833,"o":"m 438 986 q 731 858 628 986 q 833 482 833 729 q 730 107 833 238 q 438 -24 626 -24 q 145 106 249 -24 q 42 482 42 235 q 145 856 42 725 q 438 986 249 986 m 438 824 q 313 744 353 824 q 274 482 274 665 q 314 217 274 296 q 438 139 354 139 q 562 217 522 139 q 601 482 601 296 q 562 744 601 665 q 438 824 522 824 m 436 1267 q 526 1232 490 1267 q 561 1146 561 1197 q 526 1058 561 1093 q 436 1024 490 1024 q 347 1058 382 1024 q 313 1146 313 1093 q 347 1232 313 1197 q 436 1267 382 1267 m 632 1308 l 243 1308 l 243 1454 l 632 1454 l 632 1308 z "},"Ọ":{"ha":875,"x_min":42,"x_max":833,"o":"m 438 986 q 731 858 628 986 q 833 482 833 729 q 730 107 833 238 q 438 -24 626 -24 q 145 106 249 -24 q 42 482 42 235 q 145 856 42 725 q 438 986 249 986 m 438 824 q 313 744 353 824 q 274 482 274 665 q 314 217 274 296 q 438 139 354 139 q 562 217 522 139 q 601 482 601 296 q 562 744 601 665 q 438 824 522 824 m 439 -329 q 349 -294 385 -329 q 314 -208 314 -260 q 349 -121 314 -156 q 439 -86 385 -86 q 528 -121 493 -86 q 563 -208 563 -156 q 528 -294 563 -260 q 439 -329 493 -329 z "},"Ò":{"ha":875,"x_min":42,"x_max":833,"o":"m 438 986 q 731 858 628 986 q 833 482 833 729 q 730 107 833 238 q 438 -24 626 -24 q 145 106 249 -24 q 42 482 42 235 q 145 856 42 725 q 438 986 249 986 m 438 824 q 313 744 353 824 q 274 482 274 665 q 314 217 274 296 q 438 139 354 139 q 562 217 522 139 q 601 482 601 296 q 562 744 601 665 q 438 824 522 824 m 336 1318 l 614 1149 l 560 1043 l 256 1161 l 336 1318 z "},"Ỏ":{"ha":875,"x_min":42,"x_max":833,"o":"m 438 986 q 731 858 628 986 q 833 482 833 729 q 730 107 833 238 q 438 -24 626 -24 q 145 106 249 -24 q 42 482 42 235 q 145 856 42 725 q 438 986 249 986 m 438 824 q 313 744 353 824 q 274 482 274 665 q 314 217 274 296 q 438 139 354 139 q 562 217 522 139 q 601 482 601 296 q 562 744 601 665 q 438 824 522 824 m 375 1185 q 444 1199 424 1188 q 464 1238 464 1210 q 451 1269 464 1258 q 415 1281 438 1281 q 378 1276 394 1281 q 339 1264 363 1272 l 306 1353 q 446 1389 363 1389 q 563 1350 521 1389 q 604 1249 604 1311 q 577 1163 604 1194 q 499 1121 550 1131 l 499 1061 l 375 1061 l 375 1185 z "},"Ơ":{"ha":918,"x_min":42,"x_max":908,"o":"m 908 950 q 874 839 908 881 q 776 783 839 797 q 833 482 833 665 q 730 107 833 238 q 438 -24 626 -24 q 145 106 249 -24 q 42 482 42 235 q 145 856 42 725 q 438 986 249 986 q 710 881 610 986 q 752 902 739 885 q 765 953 765 919 q 762 1006 765 985 q 750 1053 758 1026 l 885 1074 q 908 950 908 1018 m 438 139 q 562 217 522 139 q 601 482 601 296 q 562 744 601 665 q 438 824 522 824 q 313 744 353 824 q 274 482 274 665 q 314 217 274 296 q 438 139 354 139 z "},"Ớ":{"ha":918,"x_min":42,"x_max":908,"o":"m 617 1163 l 313 1043 l 258 1150 l 536 1319 l 617 1163 m 908 950 q 874 839 908 881 q 776 783 839 797 q 833 482 833 665 q 730 107 833 238 q 438 -24 626 -24 q 145 106 249 -24 q 42 482 42 235 q 145 856 42 725 q 438 986 249 986 q 710 881 610 986 q 752 902 739 885 q 765 953 765 919 q 762 1006 765 985 q 750 1053 758 1026 l 885 1074 q 908 950 908 1018 m 438 139 q 562 217 522 139 q 601 482 601 296 q 562 744 601 665 q 438 824 522 824 q 313 744 353 824 q 274 482 274 665 q 314 217 274 296 q 438 139 354 139 z "},"Ợ":{"ha":918,"x_min":42,"x_max":908,"o":"m 908 950 q 874 839 908 881 q 776 783 839 797 q 833 482 833 665 q 730 107 833 238 q 438 -24 626 -24 q 145 106 249 -24 q 42 482 42 235 q 145 856 42 725 q 438 986 249 986 q 710 881 610 986 q 752 902 739 885 q 765 953 765 919 q 762 1006 765 985 q 750 1053 758 1026 l 885 1074 q 908 950 908 1018 m 438 139 q 562 217 522 139 q 601 482 601 296 q 562 744 601 665 q 438 824 522 824 q 313 744 353 824 q 274 482 274 665 q 314 217 274 296 q 438 139 354 139 m 439 -86 q 528 -121 493 -86 q 563 -208 563 -156 q 528 -294 563 -260 q 439 -329 493 -329 q 349 -294 385 -329 q 314 -208 314 -260 q 349 -121 314 -156 q 439 -86 385 -86 z "},"Ờ":{"ha":918,"x_min":42,"x_max":908,"o":"m 614 1149 l 560 1043 l 256 1161 l 336 1318 l 614 1149 m 908 950 q 874 839 908 881 q 776 783 839 797 q 833 482 833 665 q 730 107 833 238 q 438 -24 626 -24 q 145 106 249 -24 q 42 482 42 235 q 145 856 42 725 q 438 986 249 986 q 710 881 610 986 q 752 902 739 885 q 765 953 765 919 q 762 1006 765 985 q 750 1053 758 1026 l 885 1074 q 908 950 908 1018 m 438 139 q 562 217 522 139 q 601 482 601 296 q 562 744 601 665 q 438 824 522 824 q 313 744 353 824 q 274 482 274 665 q 314 217 274 296 q 438 139 354 139 z "},"Ở":{"ha":918,"x_min":42,"x_max":908,"o":"m 415 1281 q 378 1276 394 1281 q 339 1264 363 1272 l 306 1353 q 446 1389 363 1389 q 563 1350 521 1389 q 604 1249 604 1311 q 577 1163 604 1194 q 499 1121 550 1131 l 499 1061 l 375 1061 l 375 1185 q 444 1199 424 1188 q 464 1238 464 1210 q 451 1269 464 1258 q 415 1281 438 1281 m 908 950 q 874 839 908 881 q 776 783 839 797 q 833 482 833 665 q 730 107 833 238 q 438 -24 626 -24 q 145 106 249 -24 q 42 482 42 235 q 145 856 42 725 q 438 986 249 986 q 710 881 610 986 q 752 902 739 885 q 765 953 765 919 q 762 1006 765 985 q 750 1053 758 1026 l 885 1074 q 908 950 908 1018 m 438 139 q 562 217 522 139 q 601 482 601 296 q 562 744 601 665 q 438 824 522 824 q 313 744 353 824 q 274 482 274 665 q 314 217 274 296 q 438 139 354 139 z "},"Ỡ":{"ha":918,"x_min":42,"x_max":908,"o":"m 367 1121 q 332 1108 346 1121 q 300 1063 318 1094 l 197 1111 q 265 1226 222 1182 q 363 1269 308 1269 q 411 1260 390 1269 q 458 1233 432 1251 q 472 1225 461 1232 q 492 1215 483 1218 q 510 1211 501 1211 q 544 1224 529 1211 q 575 1268 558 1238 l 678 1219 q 610 1105 653 1147 q 513 1063 567 1063 q 466 1071 485 1063 q 418 1097 447 1079 q 390 1115 400 1110 q 367 1121 379 1121 m 908 950 q 874 839 908 881 q 776 783 839 797 q 833 482 833 665 q 730 107 833 238 q 438 -24 626 -24 q 145 106 249 -24 q 42 482 42 235 q 145 856 42 725 q 438 986 249 986 q 710 881 610 986 q 752 902 739 885 q 765 953 765 919 q 762 1006 765 985 q 750 1053 758 1026 l 885 1074 q 908 950 908 1018 m 438 139 q 562 217 522 139 q 601 482 601 296 q 562 744 601 665 q 438 824 522 824 q 313 744 353 824 q 274 482 274 665 q 314 217 274 296 q 438 139 354 139 z "},"Ő":{"ha":875,"x_min":42,"x_max":833,"o":"m 438 986 q 731 858 628 986 q 833 482 833 729 q 730 107 833 238 q 438 -24 626 -24 q 145 106 249 -24 q 42 482 42 235 q 145 856 42 725 q 438 986 249 986 m 438 824 q 313 744 353 824 q 274 482 274 665 q 314 217 274 296 q 438 139 354 139 q 562 217 522 139 q 601 482 601 296 q 562 744 601 665 q 438 824 522 824 m 382 1365 l 522 1299 l 376 1050 l 269 1094 l 382 1365 m 607 1365 l 744 1294 l 589 1044 l 485 1094 l 607 1365 z "},"Ƣ":{"ha":1213,"x_min":42,"x_max":1138,"o":"m 875 986 q 1067 919 996 986 q 1138 731 1138 853 l 1138 -290 l 914 -290 l 914 742 q 844 831 914 831 q 802 826 821 831 q 761 810 783 821 q 833 482 833 685 q 730 107 833 238 q 438 -24 626 -24 q 145 106 249 -24 q 42 482 42 235 q 145 856 42 725 q 438 986 249 986 q 665 918 572 986 q 875 986 757 986 m 438 139 q 562 217 522 139 q 601 482 601 296 q 562 744 601 665 q 438 824 522 824 q 313 744 353 824 q 274 482 274 665 q 314 217 274 296 q 438 139 354 139 z "},"Ȏ":{"ha":875,"x_min":42,"x_max":833,"o":"m 438 986 q 731 858 628 986 q 833 482 833 729 q 730 107 833 238 q 438 -24 626 -24 q 145 106 249 -24 q 42 482 42 235 q 145 856 42 725 q 438 986 249 986 m 438 824 q 313 744 353 824 q 274 482 274 665 q 314 217 274 296 q 438 139 354 139 q 562 217 522 139 q 601 482 601 296 q 562 744 601 665 q 438 824 522 824 m 436 1319 q 593 1255 536 1319 q 657 1083 650 1190 l 542 1063 q 504 1144 531 1115 q 436 1172 478 1172 q 332 1063 357 1172 l 217 1083 q 280 1255 224 1190 q 436 1319 336 1319 z "},"Ō":{"ha":875,"x_min":42,"x_max":833,"o":"m 438 986 q 731 858 628 986 q 833 482 833 729 q 730 107 833 238 q 438 -24 626 -24 q 145 106 249 -24 q 42 482 42 235 q 145 856 42 725 q 438 986 249 986 m 438 824 q 313 744 353 824 q 274 482 274 665 q 314 217 274 296 q 438 139 354 139 q 562 217 522 139 q 601 482 601 296 q 562 744 601 665 q 438 824 522 824 m 632 1088 l 243 1088 l 243 1233 l 632 1233 l 632 1088 z "},"Ṓ":{"ha":875,"x_min":42,"x_max":833,"o":"m 438 986 q 731 858 628 986 q 833 482 833 729 q 730 107 833 238 q 438 -24 626 -24 q 145 106 249 -24 q 42 482 42 235 q 145 856 42 725 q 438 986 249 986 m 438 824 q 313 744 353 824 q 274 482 274 665 q 314 217 274 296 q 438 139 354 139 q 562 217 522 139 q 601 482 601 296 q 562 744 601 665 q 438 824 522 824 m 632 1058 l 243 1058 l 243 1204 l 632 1204 l 632 1058 m 532 1526 l 613 1369 l 308 1250 l 254 1357 l 532 1526 z "},"Ṑ":{"ha":875,"x_min":42,"x_max":833,"o":"m 338 1535 l 615 1365 l 561 1260 l 257 1378 l 338 1535 m 632 1058 l 243 1058 l 243 1204 l 632 1204 l 632 1058 m 438 986 q 731 858 628 986 q 833 482 833 729 q 730 107 833 238 q 438 -24 626 -24 q 145 106 249 -24 q 42 482 42 235 q 145 856 42 725 q 438 986 249 986 m 438 824 q 313 744 353 824 q 274 482 274 665 q 314 217 274 296 q 438 139 354 139 q 562 217 522 139 q 601 482 601 296 q 562 744 601 665 q 438 824 522 824 z "},"Ꞷ":{"ha":1125,"x_min":58,"x_max":1067,"o":"m 968 963 q 1040 719 1014 847 q 1067 419 1067 592 q 994 83 1067 189 q 783 -24 922 -24 q 640 17 694 -24 q 563 144 586 58 q 487 18 542 60 q 350 -24 432 -24 q 130 81 201 -24 q 58 419 58 185 q 85 719 58 592 q 157 963 111 847 l 363 963 q 301 703 322 821 q 281 431 281 585 q 290 256 281 319 q 322 167 300 193 q 379 140 343 140 q 454 242 454 140 l 454 554 l 674 554 l 674 242 q 692 163 674 188 q 750 139 711 139 q 803 164 783 139 q 834 252 824 189 q 844 429 844 315 q 822 703 844 585 q 754 963 799 822 l 968 963 z "},"Ǫ":{"ha":875,"x_min":42,"x_max":833,"o":"m 833 482 q 769 167 833 290 q 582 0 704 44 q 467 -70 499 -35 q 436 -143 436 -106 q 501 -207 436 -207 q 576 -197 528 -207 l 563 -329 q 475 -340 521 -340 q 337 -297 390 -340 q 283 -181 283 -254 q 367 -18 283 -86 q 126 131 210 4 q 42 482 42 258 q 145 856 42 725 q 438 986 249 986 q 731 858 628 986 q 833 482 833 729 m 438 139 q 562 217 522 139 q 601 482 601 296 q 562 744 601 665 q 438 824 522 824 q 313 744 353 824 q 274 482 274 665 q 314 217 274 296 q 438 139 354 139 z "},"Ǭ":{"ha":875,"x_min":42,"x_max":833,"o":"m 632 1233 l 632 1088 l 243 1088 l 243 1233 l 632 1233 m 833 482 q 769 167 833 290 q 582 0 704 44 q 467 -70 499 -35 q 436 -143 436 -106 q 501 -207 436 -207 q 576 -197 528 -207 l 563 -329 q 475 -340 521 -340 q 337 -297 390 -340 q 283 -181 283 -254 q 367 -18 283 -86 q 126 131 210 4 q 42 482 42 258 q 145 856 42 725 q 438 986 249 986 q 731 858 628 986 q 833 482 833 729 m 438 139 q 562 217 522 139 q 601 482 601 296 q 562 744 601 665 q 438 824 522 824 q 313 744 353 824 q 274 482 274 665 q 314 217 274 296 q 438 139 354 139 z "},"Ɔ":{"ha":728,"x_min":7,"x_max":686,"o":"m 303 986 q 583 858 479 986 q 686 483 686 729 q 637 204 686 318 q 498 33 588 90 q 288 -24 408 -24 q 129 11 200 -24 q 7 100 58 46 l 107 222 q 191 167 154 185 q 276 149 228 149 q 408 226 361 149 q 454 483 454 304 q 412 744 454 667 q 289 821 369 821 q 203 804 242 821 q 124 756 164 788 l 17 881 q 145 960 76 933 q 303 986 214 986 z "},"Ø":{"ha":875,"x_min":42,"x_max":833,"o":"m 651 929 q 787 760 740 872 q 833 482 833 647 q 730 108 833 239 q 438 -24 626 -24 q 383 -21 417 -24 l 338 -186 l 174 -142 l 224 33 q 88 204 135 92 q 42 482 42 317 q 145 856 42 725 q 438 986 249 986 q 492 983 458 986 l 538 1149 l 703 1104 l 651 929 m 438 825 q 308 747 349 825 q 267 482 267 668 q 311 199 267 276 l 471 822 q 438 825 451 825 m 438 138 q 535 171 499 138 q 590 279 572 204 q 608 482 607 354 q 564 760 608 683 l 404 139 q 438 138 415 138 z "},"Ǿ":{"ha":875,"x_min":42,"x_max":833,"o":"m 651 929 q 787 760 740 872 q 833 482 833 647 q 730 108 833 239 q 438 -24 626 -24 q 383 -21 417 -24 l 338 -186 l 174 -142 l 224 33 q 88 204 135 92 q 42 482 42 317 q 145 856 42 725 q 438 986 249 986 q 492 983 458 986 l 538 1149 l 703 1104 l 651 929 m 438 825 q 308 747 349 825 q 267 482 267 668 q 311 199 267 276 l 471 822 q 438 825 451 825 m 438 138 q 535 171 499 138 q 590 279 572 204 q 608 482 607 354 q 564 760 608 683 l 404 139 q 438 138 415 138 m 535 1365 l 615 1208 l 311 1089 l 257 1196 l 535 1365 z "},"Õ":{"ha":875,"x_min":42,"x_max":833,"o":"m 438 986 q 731 858 628 986 q 833 482 833 729 q 730 107 833 238 q 438 -24 626 -24 q 145 106 249 -24 q 42 482 42 235 q 145 856 42 725 q 438 986 249 986 m 438 824 q 313 744 353 824 q 274 482 274 665 q 314 217 274 296 q 438 139 354 139 q 562 217 522 139 q 601 482 601 296 q 562 744 601 665 q 438 824 522 824 m 513 1063 q 466 1071 485 1063 q 418 1097 447 1079 q 390 1115 400 1110 q 367 1121 379 1121 q 332 1108 346 1121 q 300 1063 318 1094 l 197 1111 q 265 1226 222 1182 q 363 1269 308 1269 q 411 1260 390 1269 q 458 1233 432 1251 q 472 1225 461 1232 q 492 1215 483 1218 q 510 1211 501 1211 q 544 1224 529 1211 q 575 1268 558 1238 l 678 1219 q 610 1105 653 1147 q 513 1063 567 1063 z "},"Ṍ":{"ha":875,"x_min":42,"x_max":833,"o":"m 438 986 q 731 858 628 986 q 833 482 833 729 q 730 107 833 238 q 438 -24 626 -24 q 145 106 249 -24 q 42 482 42 235 q 145 856 42 725 q 438 986 249 986 m 438 824 q 313 744 353 824 q 274 482 274 665 q 314 217 274 296 q 438 139 354 139 q 562 217 522 139 q 601 482 601 296 q 562 744 601 665 q 438 824 522 824 m 513 1054 q 466 1063 485 1054 q 418 1089 447 1071 q 390 1107 400 1101 q 367 1113 379 1113 q 332 1099 346 1113 q 300 1054 318 1086 l 197 1103 q 265 1217 222 1174 q 363 1261 308 1261 q 411 1252 390 1261 q 458 1225 432 1243 q 472 1217 461 1224 q 492 1206 483 1210 q 510 1203 501 1203 q 544 1216 529 1203 q 575 1260 558 1229 l 678 1211 q 610 1097 653 1139 q 513 1054 567 1054 m 536 1561 l 617 1404 l 313 1285 l 258 1392 l 536 1561 z "},"Ȭ":{"ha":875,"x_min":42,"x_max":833,"o":"m 438 986 q 731 858 628 986 q 833 482 833 729 q 730 107 833 238 q 438 -24 626 -24 q 145 106 249 -24 q 42 482 42 235 q 145 856 42 725 q 438 986 249 986 m 438 824 q 313 744 353 824 q 274 482 274 665 q 314 217 274 296 q 438 139 354 139 q 562 217 522 139 q 601 482 601 296 q 562 744 601 665 q 438 824 522 824 m 513 1054 q 466 1063 485 1054 q 418 1089 447 1071 q 390 1107 400 1101 q 367 1113 379 1113 q 332 1099 346 1113 q 300 1054 318 1086 l 197 1103 q 265 1217 222 1174 q 363 1261 308 1261 q 411 1252 390 1261 q 458 1225 432 1243 q 472 1217 461 1224 q 492 1206 483 1210 q 510 1203 501 1203 q 544 1216 529 1203 q 575 1260 558 1229 l 678 1211 q 610 1097 653 1139 q 513 1054 567 1054 m 632 1311 l 243 1311 l 243 1457 l 632 1457 l 632 1311 z "},"Œ":{"ha":1139,"x_min":42,"x_max":1101,"o":"m 804 411 q 718 161 789 261 l 1099 161 l 1099 0 l 540 0 q 417 -24 485 -24 q 217 35 301 -24 q 88 208 133 94 q 42 482 42 321 q 88 753 42 640 q 218 926 133 867 q 417 986 303 986 q 544 963 486 986 l 1101 963 l 1078 804 l 718 804 q 803 568 785 711 l 1040 568 l 1040 411 l 804 411 m 425 139 q 539 218 501 139 q 576 482 576 297 q 539 744 576 665 q 425 824 501 824 q 311 744 349 824 q 274 482 274 665 q 312 219 274 299 q 425 139 350 139 z "},"P":{"ha":756,"x_min":76,"x_max":735,"o":"m 351 963 q 635 883 536 963 q 735 650 735 804 q 638 405 735 488 q 372 322 542 322 l 299 322 l 299 0 l 76 0 l 76 963 l 351 963 m 354 483 q 469 522 432 483 q 507 649 507 560 q 470 766 507 728 q 354 804 433 804 l 299 804 l 299 483 l 354 483 z "},"Ṕ":{"ha":756,"x_min":76,"x_max":735,"o":"m 351 963 q 635 883 536 963 q 735 650 735 804 q 638 405 735 488 q 372 322 542 322 l 299 322 l 299 0 l 76 0 l 76 963 l 351 963 m 354 483 q 469 522 432 483 q 507 649 507 560 q 470 766 507 728 q 354 804 433 804 l 299 804 l 299 483 l 354 483 m 481 1319 l 561 1163 l 257 1043 l 203 1150 l 481 1319 z "},"Ṗ":{"ha":756,"x_min":76,"x_max":735,"o":"m 351 963 q 635 883 536 963 q 735 650 735 804 q 638 405 735 488 q 372 322 542 322 l 299 322 l 299 0 l 76 0 l 76 963 l 351 963 m 354 483 q 469 522 432 483 q 507 649 507 560 q 470 766 507 728 q 354 804 433 804 l 299 804 l 299 483 l 354 483 m 381 1297 q 470 1263 435 1297 q 506 1176 506 1228 q 470 1089 506 1124 q 381 1054 435 1054 q 292 1089 326 1054 q 257 1176 257 1124 q 292 1263 257 1228 q 381 1297 326 1297 z "},"Ƥ":{"ha":944,"x_min":4,"x_max":924,"o":"m 540 963 q 824 883 725 963 q 924 650 924 804 q 827 405 924 488 q 561 322 731 322 l 488 322 l 488 0 l 265 0 l 265 804 l 232 804 q 175 746 175 804 q 199 651 175 708 l 63 592 q 19 675 35 635 q 4 764 4 715 q 67 909 4 856 q 243 963 131 963 l 540 963 m 543 483 q 658 522 621 483 q 696 649 696 560 q 659 766 696 728 q 543 804 622 804 l 488 804 l 488 483 l 543 483 z "},"Þ":{"ha":756,"x_min":76,"x_max":735,"o":"m 363 811 q 638 731 540 811 q 735 494 735 651 q 640 243 735 326 q 379 160 544 160 l 299 160 l 299 0 l 76 0 l 76 963 l 299 963 l 299 811 l 363 811 m 360 319 q 472 360 435 319 q 508 494 508 400 q 471 615 508 578 q 357 653 433 653 l 299 653 l 299 319 l 360 319 z "},"Q":{"ha":875,"x_min":42,"x_max":890,"o":"m 624 61 q 772 39 710 61 q 890 -31 833 17 l 757 -200 q 613 -67 689 -114 q 424 -19 536 -19 q 143 110 244 -19 q 42 482 42 240 q 145 855 42 724 q 438 986 249 986 q 730 857 626 986 q 833 482 833 728 q 776 217 833 315 q 624 61 719 119 m 274 482 q 314 219 274 297 q 438 140 354 140 q 563 218 524 140 q 601 482 601 296 q 562 745 601 667 q 438 824 522 824 q 313 745 353 824 q 274 482 274 667 z "},"Ɋ":{"ha":851,"x_min":42,"x_max":1000,"o":"m 1000 -249 q 815 -307 924 -307 q 625 -244 696 -307 q 554 -57 554 -181 l 554 0 l 553 0 l 553 42 q 381 -24 481 -24 q 206 32 282 -24 q 85 198 129 88 q 42 465 42 308 q 86 748 42 631 q 208 926 131 865 q 383 986 285 986 q 569 911 492 986 l 578 963 l 776 963 l 776 -69 q 842 -146 776 -146 q 883 -140 865 -146 q 926 -121 901 -135 l 1000 -249 m 429 136 q 553 188 501 136 l 553 771 q 432 824 503 824 q 313 742 353 824 q 274 465 274 660 q 313 209 274 282 q 429 136 351 136 z "},"R":{"ha":781,"x_min":76,"x_max":789,"o":"m 371 369 l 299 369 l 299 0 l 76 0 l 76 963 l 358 963 q 640 890 547 963 q 733 671 733 817 q 571 411 733 486 l 789 0 l 546 0 l 371 369 m 299 524 l 367 524 q 472 559 439 524 q 506 671 506 594 q 469 773 506 740 q 356 806 433 806 l 299 806 l 299 524 z "},"Ŕ":{"ha":781,"x_min":76,"x_max":789,"o":"m 371 369 l 299 369 l 299 0 l 76 0 l 76 963 l 358 963 q 640 890 547 963 q 733 671 733 817 q 571 411 733 486 l 789 0 l 546 0 l 371 369 m 299 524 l 367 524 q 472 559 439 524 q 506 671 506 594 q 469 773 506 740 q 356 806 433 806 l 299 806 l 299 524 m 481 1319 l 561 1163 l 257 1043 l 203 1150 l 481 1319 z "},"Ř":{"ha":781,"x_min":76,"x_max":789,"o":"m 371 369 l 299 369 l 299 0 l 76 0 l 76 963 l 358 963 q 640 890 547 963 q 733 671 733 817 q 571 411 733 486 l 789 0 l 546 0 l 371 369 m 299 524 l 367 524 q 472 559 439 524 q 506 671 506 594 q 469 773 506 740 q 356 806 433 806 l 299 806 l 299 524 m 550 1304 l 624 1222 l 446 1042 l 317 1042 l 139 1222 l 214 1304 l 382 1189 l 550 1304 z "},"Ŗ":{"ha":781,"x_min":76,"x_max":789,"o":"m 371 369 l 299 369 l 299 0 l 76 0 l 76 963 l 358 963 q 640 890 547 963 q 733 671 733 817 q 571 411 733 486 l 789 0 l 546 0 l 371 369 m 299 524 l 367 524 q 472 559 439 524 q 506 671 506 594 q 469 773 506 740 q 356 806 433 806 l 299 806 l 299 524 m 393 -94 q 468 -124 439 -94 q 497 -200 497 -154 q 490 -251 497 -226 q 464 -317 483 -275 l 406 -449 l 300 -449 l 336 -289 q 289 -200 289 -256 q 319 -126 289 -157 q 393 -94 349 -94 z "},"Ȑ":{"ha":781,"x_min":76,"x_max":789,"o":"m 371 369 l 299 369 l 299 0 l 76 0 l 76 963 l 358 963 q 640 890 547 963 q 733 671 733 817 q 571 411 733 486 l 789 0 l 546 0 l 371 369 m 299 524 l 367 524 q 472 559 439 524 q 506 671 506 594 q 469 773 506 740 q 356 806 433 806 l 299 806 l 299 524 m 214 1365 l 338 1094 l 232 1044 l 76 1294 l 214 1365 m 439 1365 l 551 1094 l 444 1050 l 300 1299 l 439 1365 z "},"Ṛ":{"ha":781,"x_min":76,"x_max":789,"o":"m 371 369 l 299 369 l 299 0 l 76 0 l 76 963 l 358 963 q 640 890 547 963 q 733 671 733 817 q 571 411 733 486 l 789 0 l 546 0 l 371 369 m 299 524 l 367 524 q 472 559 439 524 q 506 671 506 594 q 469 773 506 740 q 356 806 433 806 l 299 806 l 299 524 m 394 -329 q 305 -294 340 -329 q 269 -208 269 -260 q 305 -121 269 -156 q 394 -86 340 -86 q 483 -121 449 -86 q 518 -208 518 -156 q 483 -294 518 -260 q 394 -329 449 -329 z "},"Ȓ":{"ha":781,"x_min":76,"x_max":789,"o":"m 371 369 l 299 369 l 299 0 l 76 0 l 76 963 l 358 963 q 640 890 547 963 q 733 671 733 817 q 571 411 733 486 l 789 0 l 546 0 l 371 369 m 299 524 l 367 524 q 472 559 439 524 q 506 671 506 594 q 469 773 506 740 q 356 806 433 806 l 299 806 l 299 524 m 381 1319 q 538 1255 481 1319 q 601 1083 594 1190 l 486 1063 q 449 1144 475 1115 q 381 1172 422 1172 q 276 1063 301 1172 l 161 1083 q 224 1255 168 1190 q 381 1319 281 1319 z "},"Ɍ":{"ha":797,"x_min":19,"x_max":806,"o":"m 563 0 l 388 369 l 315 369 l 315 0 l 93 0 l 93 369 l 19 369 l 19 524 l 93 524 l 93 963 l 375 963 q 657 890 564 963 q 750 671 750 817 q 588 411 750 486 l 806 0 l 563 0 m 383 524 q 489 559 456 524 q 522 671 522 594 q 486 773 522 740 q 372 806 450 806 l 315 806 l 315 524 l 383 524 z "},"Ɽ":{"ha":781,"x_min":76,"x_max":789,"o":"m 299 -69 q 364 -146 299 -146 q 406 -140 388 -146 q 449 -121 424 -135 l 522 -249 q 338 -307 446 -307 q 147 -244 218 -307 q 76 -57 76 -181 l 76 963 l 358 963 q 640 890 547 963 q 733 671 733 817 q 571 411 733 486 l 789 0 l 546 0 l 371 369 l 299 369 l 299 -69 m 299 806 l 299 524 l 367 524 q 472 559 439 524 q 506 671 506 594 q 469 773 506 740 q 356 806 433 806 l 299 806 z "},"S":{"ha":721,"x_min":7,"x_max":693,"o":"m 364 986 q 535 955 461 986 q 671 863 610 924 l 569 746 q 385 824 479 824 q 301 797 332 824 q 271 725 271 771 q 285 674 271 694 q 333 633 299 653 q 436 589 368 614 q 580 517 525 556 q 664 422 635 479 q 693 281 693 365 q 651 123 693 192 q 528 15 608 54 q 342 -24 449 -24 q 7 113 140 -24 l 115 233 q 219 165 167 189 q 329 142 271 142 q 428 175 393 142 q 463 264 463 208 q 431 349 463 317 q 310 413 399 381 q 104 535 165 467 q 43 708 43 603 q 85 853 43 790 q 199 951 126 917 q 364 986 272 986 z "},"Ś":{"ha":721,"x_min":7,"x_max":693,"o":"m 364 986 q 535 955 461 986 q 671 863 610 924 l 569 746 q 385 824 479 824 q 301 797 332 824 q 271 725 271 771 q 285 674 271 694 q 333 633 299 653 q 436 589 368 614 q 580 517 525 556 q 664 422 635 479 q 693 281 693 365 q 651 123 693 192 q 528 15 608 54 q 342 -24 449 -24 q 7 113 140 -24 l 115 233 q 219 165 167 189 q 329 142 271 142 q 428 175 393 142 q 463 264 463 208 q 431 349 463 317 q 310 413 399 381 q 104 535 165 467 q 43 708 43 603 q 85 853 43 790 q 199 951 126 917 q 364 986 272 986 m 471 1319 l 551 1163 l 247 1043 l 193 1150 l 471 1319 z "},"Ꞌ":{"ha":329,"x_min":61,"x_max":268,"o":"m 86 465 l 61 963 l 268 963 l 243 465 l 86 465 z "},"Š":{"ha":721,"x_min":7,"x_max":693,"o":"m 364 986 q 535 955 461 986 q 671 863 610 924 l 569 746 q 385 824 479 824 q 301 797 332 824 q 271 725 271 771 q 285 674 271 694 q 333 633 299 653 q 436 589 368 614 q 580 517 525 556 q 664 422 635 479 q 693 281 693 365 q 651 123 693 192 q 528 15 608 54 q 342 -24 449 -24 q 7 113 140 -24 l 115 233 q 219 165 167 189 q 329 142 271 142 q 428 175 393 142 q 463 264 463 208 q 431 349 463 317 q 310 413 399 381 q 104 535 165 467 q 43 708 43 603 q 85 853 43 790 q 199 951 126 917 q 364 986 272 986 m 540 1304 l 614 1222 l 436 1042 l 307 1042 l 129 1222 l 204 1304 l 372 1189 l 540 1304 z "},"Ş":{"ha":721,"x_min":7,"x_max":693,"o":"m 693 281 q 618 80 693 161 q 413 -19 543 -1 l 413 -71 q 511 -113 478 -79 q 544 -204 544 -147 q 493 -319 544 -275 q 353 -362 442 -362 q 207 -321 268 -362 l 256 -225 q 336 -246 294 -246 q 393 -203 393 -246 q 365 -166 393 -178 q 276 -154 336 -154 l 292 -21 q 7 113 124 -6 l 115 233 q 219 165 167 189 q 329 142 271 142 q 428 175 393 142 q 463 264 463 208 q 431 349 463 317 q 310 413 399 381 q 104 535 165 467 q 43 708 43 603 q 85 853 43 790 q 199 951 126 917 q 364 986 272 986 q 535 955 461 986 q 671 863 610 924 l 569 746 q 385 824 479 824 q 301 797 332 824 q 271 725 271 771 q 285 674 271 694 q 333 633 299 653 q 436 589 368 614 q 580 517 525 556 q 664 422 635 479 q 693 281 693 365 z "},"Ŝ":{"ha":721,"x_min":7,"x_max":693,"o":"m 364 986 q 535 955 461 986 q 671 863 610 924 l 569 746 q 385 824 479 824 q 301 797 332 824 q 271 725 271 771 q 285 674 271 694 q 333 633 299 653 q 436 589 368 614 q 580 517 525 556 q 664 422 635 479 q 693 281 693 365 q 651 123 693 192 q 528 15 608 54 q 342 -24 449 -24 q 7 113 140 -24 l 115 233 q 219 165 167 189 q 329 142 271 142 q 428 175 393 142 q 463 264 463 208 q 431 349 463 317 q 310 413 399 381 q 104 535 165 467 q 43 708 43 603 q 85 853 43 790 q 199 951 126 917 q 364 986 272 986 m 204 1053 l 129 1133 l 308 1315 l 436 1315 l 614 1133 l 540 1053 l 372 1168 l 204 1053 z "},"Ș":{"ha":721,"x_min":7,"x_max":693,"o":"m 364 986 q 535 955 461 986 q 671 863 610 924 l 569 746 q 385 824 479 824 q 301 797 332 824 q 271 725 271 771 q 285 674 271 694 q 333 633 299 653 q 436 589 368 614 q 580 517 525 556 q 664 422 635 479 q 693 281 693 365 q 651 123 693 192 q 528 15 608 54 q 342 -24 449 -24 q 7 113 140 -24 l 115 233 q 219 165 167 189 q 329 142 271 142 q 428 175 393 142 q 463 264 463 208 q 431 349 463 317 q 310 413 399 381 q 104 535 165 467 q 43 708 43 603 q 85 853 43 790 q 199 951 126 917 q 364 986 272 986 m 357 -94 q 432 -124 403 -94 q 461 -200 461 -154 q 454 -251 461 -226 q 428 -317 447 -275 l 369 -449 l 264 -449 l 300 -289 q 253 -200 253 -256 q 283 -126 253 -157 q 357 -94 313 -94 z "},"Ṡ":{"ha":721,"x_min":7,"x_max":693,"o":"m 364 986 q 535 955 461 986 q 671 863 610 924 l 569 746 q 385 824 479 824 q 301 797 332 824 q 271 725 271 771 q 285 674 271 694 q 333 633 299 653 q 436 589 368 614 q 580 517 525 556 q 664 422 635 479 q 693 281 693 365 q 651 123 693 192 q 528 15 608 54 q 342 -24 449 -24 q 7 113 140 -24 l 115 233 q 219 165 167 189 q 329 142 271 142 q 428 175 393 142 q 463 264 463 208 q 431 349 463 317 q 310 413 399 381 q 104 535 165 467 q 43 708 43 603 q 85 853 43 790 q 199 951 126 917 q 364 986 272 986 m 371 1297 q 460 1263 425 1297 q 496 1176 496 1228 q 460 1089 496 1124 q 371 1054 425 1054 q 282 1089 317 1054 q 247 1176 247 1124 q 282 1263 247 1228 q 371 1297 317 1297 z "},"Ṣ":{"ha":721,"x_min":7,"x_max":693,"o":"m 364 986 q 535 955 461 986 q 671 863 610 924 l 569 746 q 385 824 479 824 q 301 797 332 824 q 271 725 271 771 q 285 674 271 694 q 333 633 299 653 q 436 589 368 614 q 580 517 525 556 q 664 422 635 479 q 693 281 693 365 q 651 123 693 192 q 528 15 608 54 q 342 -24 449 -24 q 7 113 140 -24 l 115 233 q 219 165 167 189 q 329 142 271 142 q 428 175 393 142 q 463 264 463 208 q 431 349 463 317 q 310 413 399 381 q 104 535 165 467 q 43 708 43 603 q 85 853 43 790 q 199 951 126 917 q 364 986 272 986 m 358 -329 q 269 -294 304 -329 q 233 -208 233 -260 q 269 -121 233 -156 q 358 -86 304 -86 q 447 -121 413 -86 q 482 -208 482 -156 q 447 -294 482 -260 q 358 -329 413 -329 z "},"ẞ":{"ha":843,"x_min":76,"x_max":815,"o":"m 389 986 q 578 961 492 986 q 758 890 665 936 l 758 788 l 575 546 q 815 272 815 500 q 774 111 815 178 q 664 10 733 44 q 510 -24 594 -24 q 344 13 414 -24 l 408 157 q 479 144 436 144 q 557 176 529 144 q 585 275 585 208 q 539 390 585 351 q 389 438 493 429 l 389 556 l 564 796 q 408 824 483 824 q 325 792 351 824 q 299 694 299 760 l 299 0 l 76 0 l 76 689 q 157 906 76 826 q 389 986 238 986 z "},"Ə":{"ha":808,"x_min":28,"x_max":765,"o":"m 389 986 q 669 864 572 986 q 765 489 765 742 q 667 103 765 231 q 393 -24 569 -24 q 28 469 28 -24 q 35 561 28 492 l 542 561 q 494 763 538 703 q 368 824 451 824 q 266 803 311 824 q 175 746 221 782 l 76 864 q 219 956 143 926 q 389 986 294 986 m 392 139 q 500 199 464 139 q 542 407 536 258 l 242 407 q 281 200 242 261 q 392 139 319 139 z "},"T":{"ha":681,"x_min":10,"x_max":682,"o":"m 682 963 l 658 793 l 451 793 l 451 0 l 229 0 l 229 793 l 10 793 l 10 963 l 682 963 z "},"Ŧ":{"ha":681,"x_min":10,"x_max":682,"o":"m 658 792 l 451 792 l 451 540 l 592 540 l 592 414 l 451 414 l 451 -1 l 229 -1 l 229 414 l 88 414 l 88 540 l 229 540 l 229 792 l 10 792 l 10 961 l 682 961 l 658 792 z "},"Ť":{"ha":681,"x_min":10,"x_max":682,"o":"m 682 963 l 658 793 l 451 793 l 451 0 l 229 0 l 229 793 l 10 793 l 10 963 l 682 963 m 508 1304 l 582 1222 l 404 1042 l 275 1042 l 97 1222 l 172 1304 l 340 1189 l 508 1304 z "},"Ţ":{"ha":681,"x_min":10,"x_max":682,"o":"m 451 -68 q 551 -111 518 -75 q 585 -204 585 -147 q 533 -319 585 -275 q 392 -362 481 -362 q 312 -351 350 -362 q 247 -321 274 -339 l 296 -221 q 372 -246 336 -246 q 433 -201 433 -246 q 406 -166 433 -178 q 317 -154 378 -154 l 335 0 l 229 0 l 229 793 l 10 793 l 10 963 l 682 963 l 658 793 l 451 793 l 451 -68 z "},"Ṱ":{"ha":681,"x_min":10,"x_max":682,"o":"m 682 963 l 658 793 l 451 793 l 451 0 l 229 0 l 229 793 l 10 793 l 10 963 l 682 963 m 171 -361 l 96 -279 l 274 -87 l 403 -87 l 581 -279 l 506 -361 l 339 -235 l 171 -361 z "},"Ț":{"ha":681,"x_min":10,"x_max":682,"o":"m 682 963 l 658 793 l 451 793 l 451 0 l 229 0 l 229 793 l 10 793 l 10 963 l 682 963 m 340 -94 q 415 -124 386 -94 q 444 -200 444 -154 q 438 -251 444 -226 q 411 -317 431 -275 l 353 -449 l 247 -449 l 283 -289 q 236 -200 236 -256 q 266 -126 236 -157 q 340 -94 296 -94 z "},"Ⱦ":{"ha":682,"x_min":10,"x_max":682,"o":"m 658 800 l 556 800 l 438 531 l 438 0 l 243 0 l 243 85 l 161 -103 l 97 -74 l 243 261 l 243 800 l 10 800 l 10 963 l 550 963 l 589 1053 l 653 1024 l 626 963 l 682 963 l 658 800 m 438 706 l 479 800 l 438 800 l 438 706 z "},"Ṫ":{"ha":681,"x_min":10,"x_max":682,"o":"m 682 963 l 658 793 l 451 793 l 451 0 l 229 0 l 229 793 l 10 793 l 10 963 l 682 963 m 339 1297 q 428 1263 393 1297 q 464 1176 464 1228 q 428 1089 464 1124 q 339 1054 393 1054 q 250 1089 285 1054 q 215 1176 215 1124 q 250 1263 215 1228 q 339 1297 285 1297 z "},"Ṭ":{"ha":681,"x_min":10,"x_max":682,"o":"m 682 963 l 658 793 l 451 793 l 451 0 l 229 0 l 229 793 l 10 793 l 10 963 l 682 963 m 342 -329 q 252 -294 288 -329 q 217 -208 217 -260 q 252 -121 217 -156 q 342 -86 288 -86 q 431 -121 396 -86 q 465 -208 465 -156 q 431 -294 465 -260 q 342 -329 396 -329 z "},"Ƭ":{"ha":754,"x_min":4,"x_max":756,"o":"m 733 792 l 525 792 l 525 0 l 303 0 l 303 792 l 236 792 q 176 736 176 792 q 196 654 176 697 l 53 592 q 4 757 4 676 q 71 908 4 853 q 254 963 138 963 l 756 963 l 733 792 z "},"Ṯ":{"ha":681,"x_min":10,"x_max":682,"o":"m 682 963 l 658 793 l 451 793 l 451 0 l 229 0 l 229 793 l 10 793 l 10 963 l 682 963 m 535 -262 l 146 -262 l 146 -117 l 535 -117 l 535 -262 z "},"Ƽ":{"ha":689,"x_min":15,"x_max":650,"o":"m 586 810 l 274 810 l 274 594 q 406 629 339 629 q 582 547 514 629 q 650 317 650 465 q 608 138 650 215 q 488 19 565 61 q 306 -24 410 -24 q 15 117 129 -24 l 132 224 q 208 160 168 182 q 297 138 247 138 q 398 182 363 138 q 433 315 433 226 q 403 444 433 407 q 319 482 374 482 q 269 474 293 482 q 215 449 244 467 l 71 449 l 71 963 l 610 963 l 586 810 z "},"Ƅ":{"ha":779,"x_min":10,"x_max":761,"o":"m 408 632 q 670 556 579 632 q 761 325 761 479 q 668 81 761 161 q 408 0 575 0 l 103 0 l 103 686 l 10 756 q 140 963 83 835 l 325 963 l 325 632 l 408 632 m 394 161 q 497 199 463 161 q 531 322 531 238 q 497 440 531 403 q 388 478 463 478 l 325 478 l 325 161 l 394 161 z "},"Ƨ":{"ha":710,"x_min":28,"x_max":703,"o":"m 368 986 q 534 953 463 986 q 644 858 606 919 q 683 715 683 796 q 621 542 683 608 q 413 424 558 475 q 291 357 324 393 q 258 263 258 321 q 292 175 258 206 q 385 144 325 144 q 491 167 440 144 q 593 233 542 190 l 703 114 q 558 14 642 51 q 367 -24 474 -24 q 188 14 264 -24 q 69 119 111 51 q 28 275 28 188 q 90 462 28 394 q 285 576 151 529 q 388 621 353 600 q 439 667 424 642 q 454 728 454 692 q 427 799 454 775 q 349 824 400 824 q 249 805 296 824 q 157 747 203 786 l 56 863 q 368 986 186 986 z "},"Ʈ":{"ha":688,"x_min":10,"x_max":682,"o":"m 517 -146 q 558 -140 540 -146 q 601 -121 576 -135 l 675 -249 q 490 -307 599 -307 q 300 -244 371 -307 q 229 -57 229 -181 l 229 793 l 10 793 l 10 963 l 682 963 l 658 793 l 451 793 l 451 -69 q 517 -146 451 -146 z "},"U":{"ha":815,"x_min":63,"x_max":754,"o":"m 754 297 q 715 133 754 206 q 599 18 676 60 q 408 -24 521 -24 q 151 64 239 -24 q 63 297 63 151 l 63 963 l 285 963 l 285 306 q 314 183 285 222 q 408 143 343 143 q 502 183 474 143 q 531 306 531 222 l 531 963 l 754 963 l 754 297 z "},"Ú":{"ha":815,"x_min":63,"x_max":754,"o":"m 754 297 q 715 133 754 206 q 599 18 676 60 q 408 -24 521 -24 q 151 64 239 -24 q 63 297 63 151 l 63 963 l 285 963 l 285 306 q 314 183 285 222 q 408 143 343 143 q 502 183 474 143 q 531 306 531 222 l 531 963 l 754 963 l 754 297 m 507 1319 l 588 1163 l 283 1043 l 229 1150 l 507 1319 z "},"Ʉ":{"ha":858,"x_min":15,"x_max":843,"o":"m 843 696 l 775 696 l 775 297 q 736 133 775 206 q 619 18 697 60 q 429 -24 542 -24 q 172 64 260 -24 q 83 297 83 151 l 83 696 l 15 696 l 15 821 l 83 821 l 83 963 l 306 963 l 306 821 l 551 821 l 551 963 l 775 963 l 775 821 l 843 821 l 843 696 m 551 696 l 306 696 l 306 306 q 335 183 306 222 q 429 143 364 143 q 523 183 494 143 q 551 306 551 222 l 551 696 z "},"Ŭ":{"ha":815,"x_min":63,"x_max":754,"o":"m 754 297 q 715 133 754 206 q 599 18 676 60 q 408 -24 521 -24 q 151 64 239 -24 q 63 297 63 151 l 63 963 l 285 963 l 285 306 q 314 183 285 222 q 408 143 343 143 q 502 183 474 143 q 531 306 531 222 l 531 963 l 754 963 l 754 297 m 407 1043 q 252 1105 308 1043 q 188 1265 196 1167 l 303 1286 q 340 1217 314 1242 q 407 1192 365 1192 q 475 1217 449 1192 q 513 1286 501 1243 l 628 1265 q 563 1106 619 1168 q 407 1043 506 1043 z "},"Ǔ":{"ha":815,"x_min":63,"x_max":754,"o":"m 754 297 q 715 133 754 206 q 599 18 676 60 q 408 -24 521 -24 q 151 64 239 -24 q 63 297 63 151 l 63 963 l 285 963 l 285 306 q 314 183 285 222 q 408 143 343 143 q 502 183 474 143 q 531 306 531 222 l 531 963 l 754 963 l 754 297 m 576 1304 l 650 1222 l 472 1042 l 343 1042 l 165 1222 l 240 1304 l 408 1189 l 576 1304 z "},"Û":{"ha":815,"x_min":63,"x_max":754,"o":"m 754 297 q 715 133 754 206 q 599 18 676 60 q 408 -24 521 -24 q 151 64 239 -24 q 63 297 63 151 l 63 963 l 285 963 l 285 306 q 314 183 285 222 q 408 143 343 143 q 502 183 474 143 q 531 306 531 222 l 531 963 l 754 963 l 754 297 m 240 1053 l 165 1133 l 344 1315 l 472 1315 l 650 1133 l 576 1053 l 408 1168 l 240 1053 z "},"Ȕ":{"ha":815,"x_min":63,"x_max":754,"o":"m 754 297 q 715 133 754 206 q 599 18 676 60 q 408 -24 521 -24 q 151 64 239 -24 q 63 297 63 151 l 63 963 l 285 963 l 285 306 q 314 183 285 222 q 408 143 343 143 q 502 183 474 143 q 531 306 531 222 l 531 963 l 754 963 l 754 297 m 240 1365 l 364 1094 l 258 1044 l 103 1294 l 240 1365 m 465 1365 l 578 1094 l 471 1050 l 326 1299 l 465 1365 z "},"Ü":{"ha":815,"x_min":63,"x_max":754,"o":"m 754 297 q 715 133 754 206 q 599 18 676 60 q 408 -24 521 -24 q 151 64 239 -24 q 63 297 63 151 l 63 963 l 285 963 l 285 306 q 314 183 285 222 q 408 143 343 143 q 502 183 474 143 q 531 306 531 222 l 531 963 l 754 963 l 754 297 m 263 1282 q 339 1251 308 1282 q 369 1175 369 1221 q 339 1098 369 1129 q 263 1067 308 1067 q 187 1098 218 1067 q 156 1175 156 1129 q 187 1251 156 1219 q 263 1282 218 1282 m 557 1282 q 634 1251 603 1282 q 665 1175 665 1221 q 635 1098 665 1129 q 557 1067 604 1067 q 481 1098 513 1067 q 450 1175 450 1129 q 481 1251 450 1219 q 557 1282 513 1282 z "},"Ǘ":{"ha":815,"x_min":63,"x_max":754,"o":"m 754 297 q 715 133 754 206 q 599 18 676 60 q 408 -24 521 -24 q 151 64 239 -24 q 63 297 63 151 l 63 963 l 285 963 l 285 306 q 314 183 285 222 q 408 143 343 143 q 502 183 474 143 q 531 306 531 222 l 531 963 l 754 963 l 754 297 m 501 1515 l 622 1406 l 414 1207 l 332 1278 l 501 1515 m 251 1254 q 328 1224 297 1254 q 358 1147 358 1193 q 328 1070 358 1101 q 251 1039 297 1039 q 175 1070 206 1039 q 144 1147 144 1101 q 175 1223 144 1192 q 251 1254 206 1254 m 565 1254 q 642 1223 611 1254 q 672 1147 672 1192 q 642 1070 672 1101 q 565 1039 611 1039 q 488 1070 519 1039 q 457 1147 457 1101 q 488 1223 457 1192 q 565 1254 519 1254 z "},"Ǚ":{"ha":815,"x_min":63,"x_max":754,"o":"m 754 297 q 715 133 754 206 q 599 18 676 60 q 408 -24 521 -24 q 151 64 239 -24 q 63 297 63 151 l 63 963 l 285 963 l 285 306 q 314 183 285 222 q 408 143 343 143 q 502 183 474 143 q 531 306 531 222 l 531 963 l 754 963 l 754 297 m 576 1517 l 650 1435 l 472 1254 l 343 1254 l 165 1435 l 240 1517 l 408 1401 l 576 1517 m 251 1254 q 328 1223 297 1254 q 358 1147 358 1192 q 328 1070 358 1101 q 251 1039 297 1039 q 174 1070 206 1039 q 143 1147 143 1101 q 174 1223 143 1192 q 251 1254 206 1254 m 564 1254 q 640 1223 610 1254 q 671 1147 671 1192 q 640 1070 671 1101 q 564 1039 610 1039 q 488 1070 518 1039 q 457 1147 457 1101 q 488 1223 457 1192 q 564 1254 518 1254 z "},"Ǜ":{"ha":815,"x_min":63,"x_max":754,"o":"m 754 297 q 715 133 754 206 q 599 18 676 60 q 408 -24 521 -24 q 151 64 239 -24 q 63 297 63 151 l 63 963 l 285 963 l 285 306 q 314 183 285 222 q 408 143 343 143 q 502 183 474 143 q 531 306 531 222 l 531 963 l 754 963 l 754 297 m 324 1515 l 494 1278 l 411 1207 l 203 1406 l 324 1515 m 251 1254 q 328 1224 297 1254 q 358 1147 358 1193 q 328 1070 358 1101 q 251 1039 297 1039 q 176 1070 207 1039 q 144 1147 144 1101 q 176 1223 144 1192 q 251 1254 207 1254 m 565 1254 q 642 1223 611 1254 q 672 1147 672 1192 q 642 1070 672 1101 q 565 1039 611 1039 q 488 1070 519 1039 q 457 1147 457 1101 q 488 1223 457 1192 q 565 1254 519 1254 z "},"Ǖ":{"ha":815,"x_min":63,"x_max":754,"o":"m 754 297 q 715 133 754 206 q 599 18 676 60 q 408 -24 521 -24 q 151 64 239 -24 q 63 297 63 151 l 63 963 l 285 963 l 285 306 q 314 183 285 222 q 408 143 343 143 q 502 183 474 143 q 531 306 531 222 l 531 963 l 754 963 l 754 297 m 260 1250 q 336 1219 306 1250 q 367 1143 367 1189 q 336 1066 367 1097 q 260 1035 306 1035 q 184 1066 215 1035 q 153 1143 153 1097 q 184 1219 153 1188 q 260 1250 215 1250 m 554 1250 q 631 1219 600 1250 q 663 1143 663 1189 q 632 1066 663 1097 q 554 1035 601 1035 q 478 1066 510 1035 q 447 1143 447 1097 q 478 1219 447 1188 q 554 1250 510 1250 m 604 1308 l 215 1308 l 215 1454 l 604 1454 l 604 1308 z "},"Ụ":{"ha":815,"x_min":63,"x_max":754,"o":"m 754 297 q 715 133 754 206 q 599 18 676 60 q 408 -24 521 -24 q 151 64 239 -24 q 63 297 63 151 l 63 963 l 285 963 l 285 306 q 314 183 285 222 q 408 143 343 143 q 502 183 474 143 q 531 306 531 222 l 531 963 l 754 963 l 754 297 m 410 -329 q 320 -294 356 -329 q 285 -208 285 -260 q 320 -121 285 -156 q 410 -86 356 -86 q 499 -121 464 -86 q 533 -208 533 -156 q 499 -294 533 -260 q 410 -329 464 -329 z "},"Ù":{"ha":815,"x_min":63,"x_max":754,"o":"m 754 297 q 715 133 754 206 q 599 18 676 60 q 408 -24 521 -24 q 151 64 239 -24 q 63 297 63 151 l 63 963 l 285 963 l 285 306 q 314 183 285 222 q 408 143 343 143 q 502 183 474 143 q 531 306 531 222 l 531 963 l 754 963 l 754 297 m 307 1318 l 585 1149 l 531 1043 l 226 1161 l 307 1318 z "},"Ủ":{"ha":815,"x_min":63,"x_max":754,"o":"m 754 297 q 715 133 754 206 q 599 18 676 60 q 408 -24 521 -24 q 151 64 239 -24 q 63 297 63 151 l 63 963 l 285 963 l 285 306 q 314 183 285 222 q 408 143 343 143 q 502 183 474 143 q 531 306 531 222 l 531 963 l 754 963 l 754 297 m 346 1185 q 415 1199 394 1188 q 435 1238 435 1210 q 422 1269 435 1258 q 386 1281 408 1281 q 349 1276 365 1281 q 310 1264 333 1272 l 276 1353 q 417 1389 333 1389 q 533 1350 492 1389 q 575 1249 575 1311 q 548 1163 575 1194 q 469 1121 521 1131 l 469 1061 l 346 1061 l 346 1185 z "},"Ư":{"ha":925,"x_min":63,"x_max":944,"o":"m 944 950 q 894 822 944 865 q 754 776 844 779 l 754 297 q 715 133 754 206 q 599 18 676 60 q 408 -24 521 -24 q 151 64 239 -24 q 63 297 63 151 l 63 963 l 285 963 l 285 306 q 314 183 285 222 q 408 143 343 143 q 502 183 474 143 q 531 306 531 222 l 531 963 l 754 963 l 754 883 q 790 906 779 889 q 801 953 801 922 q 798 1006 801 985 q 786 1053 794 1026 l 921 1074 q 944 950 944 1018 z "},"Ứ":{"ha":925,"x_min":63,"x_max":944,"o":"m 588 1163 l 283 1043 l 229 1150 l 507 1319 l 588 1163 m 944 950 q 894 822 944 865 q 754 776 844 779 l 754 297 q 715 133 754 206 q 599 18 676 60 q 408 -24 521 -24 q 151 64 239 -24 q 63 297 63 151 l 63 963 l 285 963 l 285 306 q 314 183 285 222 q 408 143 343 143 q 502 183 474 143 q 531 306 531 222 l 531 963 l 754 963 l 754 883 q 790 906 779 889 q 801 953 801 922 q 798 1006 801 985 q 786 1053 794 1026 l 921 1074 q 944 950 944 1018 z "},"Ự":{"ha":925,"x_min":63,"x_max":944,"o":"m 944 950 q 894 822 944 865 q 754 776 844 779 l 754 297 q 715 133 754 206 q 599 18 676 60 q 408 -24 521 -24 q 151 64 239 -24 q 63 297 63 151 l 63 963 l 285 963 l 285 306 q 314 183 285 222 q 408 143 343 143 q 502 183 474 143 q 531 306 531 222 l 531 963 l 754 963 l 754 883 q 790 906 779 889 q 801 953 801 922 q 798 1006 801 985 q 786 1053 794 1026 l 921 1074 q 944 950 944 1018 m 410 -86 q 499 -121 464 -86 q 533 -208 533 -156 q 499 -294 533 -260 q 410 -329 464 -329 q 320 -294 356 -329 q 285 -208 285 -260 q 320 -121 285 -156 q 410 -86 356 -86 z "},"Ừ":{"ha":925,"x_min":63,"x_max":944,"o":"m 585 1149 l 531 1043 l 226 1161 l 307 1318 l 585 1149 m 944 950 q 894 822 944 865 q 754 776 844 779 l 754 297 q 715 133 754 206 q 599 18 676 60 q 408 -24 521 -24 q 151 64 239 -24 q 63 297 63 151 l 63 963 l 285 963 l 285 306 q 314 183 285 222 q 408 143 343 143 q 502 183 474 143 q 531 306 531 222 l 531 963 l 754 963 l 754 883 q 790 906 779 889 q 801 953 801 922 q 798 1006 801 985 q 786 1053 794 1026 l 921 1074 q 944 950 944 1018 z "},"Ử":{"ha":925,"x_min":63,"x_max":944,"o":"m 386 1281 q 349 1276 365 1281 q 310 1264 333 1272 l 276 1353 q 417 1389 333 1389 q 533 1350 492 1389 q 575 1249 575 1311 q 548 1163 575 1194 q 469 1121 521 1131 l 469 1061 l 346 1061 l 346 1185 q 415 1199 394 1188 q 435 1238 435 1210 q 422 1269 435 1258 q 386 1281 408 1281 m 944 950 q 894 822 944 865 q 754 776 844 779 l 754 297 q 715 133 754 206 q 599 18 676 60 q 408 -24 521 -24 q 151 64 239 -24 q 63 297 63 151 l 63 963 l 285 963 l 285 306 q 314 183 285 222 q 408 143 343 143 q 502 183 474 143 q 531 306 531 222 l 531 963 l 754 963 l 754 883 q 790 906 779 889 q 801 953 801 922 q 798 1006 801 985 q 786 1053 794 1026 l 921 1074 q 944 950 944 1018 z "},"Ữ":{"ha":925,"x_min":63,"x_max":944,"o":"m 338 1121 q 303 1108 317 1121 q 271 1063 289 1094 l 168 1111 q 236 1226 193 1182 q 333 1269 279 1269 q 382 1260 361 1269 q 429 1233 403 1251 q 443 1225 432 1232 q 463 1215 454 1218 q 481 1211 472 1211 q 515 1224 500 1211 q 546 1268 529 1238 l 649 1219 q 581 1105 624 1147 q 483 1063 538 1063 q 437 1071 456 1063 q 389 1097 418 1079 q 360 1115 371 1110 q 338 1121 350 1121 m 944 950 q 894 822 944 865 q 754 776 844 779 l 754 297 q 715 133 754 206 q 599 18 676 60 q 408 -24 521 -24 q 151 64 239 -24 q 63 297 63 151 l 63 963 l 285 963 l 285 306 q 314 183 285 222 q 408 143 343 143 q 502 183 474 143 q 531 306 531 222 l 531 963 l 754 963 l 754 883 q 790 906 779 889 q 801 953 801 922 q 798 1006 801 985 q 786 1053 794 1026 l 921 1074 q 944 950 944 1018 z "},"Ű":{"ha":815,"x_min":63,"x_max":754,"o":"m 754 297 q 715 133 754 206 q 599 18 676 60 q 408 -24 521 -24 q 151 64 239 -24 q 63 297 63 151 l 63 963 l 285 963 l 285 306 q 314 183 285 222 q 408 143 343 143 q 502 183 474 143 q 531 306 531 222 l 531 963 l 754 963 l 754 297 m 353 1365 l 493 1299 l 347 1050 l 240 1094 l 353 1365 m 578 1365 l 715 1294 l 560 1044 l 456 1094 l 578 1365 z "},"Ȗ":{"ha":815,"x_min":63,"x_max":754,"o":"m 754 297 q 715 133 754 206 q 599 18 676 60 q 408 -24 521 -24 q 151 64 239 -24 q 63 297 63 151 l 63 963 l 285 963 l 285 306 q 314 183 285 222 q 408 143 343 143 q 502 183 474 143 q 531 306 531 222 l 531 963 l 754 963 l 754 297 m 407 1319 q 564 1255 507 1319 q 628 1083 621 1190 l 513 1063 q 475 1144 501 1115 q 407 1172 449 1172 q 303 1063 328 1172 l 188 1083 q 251 1255 194 1190 q 407 1319 307 1319 z "},"Ū":{"ha":815,"x_min":63,"x_max":754,"o":"m 754 297 q 715 133 754 206 q 599 18 676 60 q 408 -24 521 -24 q 151 64 239 -24 q 63 297 63 151 l 63 963 l 285 963 l 285 306 q 314 183 285 222 q 408 143 343 143 q 502 183 474 143 q 531 306 531 222 l 531 963 l 754 963 l 754 297 m 603 1088 l 214 1088 l 214 1233 l 603 1233 l 603 1088 z "},"Ų":{"ha":815,"x_min":63,"x_max":754,"o":"m 754 963 l 754 297 q 703 111 754 190 q 551 -1 651 32 q 410 -143 410 -64 q 426 -190 410 -174 q 475 -207 443 -207 q 551 -196 507 -207 l 538 -329 q 449 -340 496 -340 q 313 -296 367 -340 q 260 -179 260 -251 q 371 -22 260 -78 q 141 74 219 -12 q 63 297 63 160 l 63 963 l 285 963 l 285 306 q 314 183 285 222 q 408 143 343 143 q 502 183 474 143 q 531 306 531 222 l 531 963 l 754 963 z "},"Ʊ":{"ha":863,"x_min":36,"x_max":826,"o":"m 432 -24 q 219 31 308 -24 q 83 185 129 85 q 36 418 36 285 q 79 650 36 558 q 201 803 122 742 l 63 803 l 63 963 l 365 963 l 365 811 q 291 655 314 742 q 268 418 268 568 q 308 206 268 272 q 432 140 347 140 q 556 206 515 140 q 596 418 596 272 q 572 653 596 567 q 499 811 549 740 l 499 963 l 801 963 l 801 803 l 661 803 q 784 653 742 744 q 826 418 826 561 q 779 187 826 286 q 643 32 732 88 q 432 -24 554 -24 z "},"Ů":{"ha":815,"x_min":63,"x_max":754,"o":"m 754 297 q 715 133 754 206 q 599 18 676 60 q 408 -24 521 -24 q 151 64 239 -24 q 63 297 63 151 l 63 963 l 285 963 l 285 306 q 314 183 285 222 q 408 143 343 143 q 502 183 474 143 q 531 306 531 222 l 531 963 l 754 963 l 754 297 m 410 1376 q 540 1326 492 1376 q 589 1197 589 1275 q 540 1068 589 1119 q 410 1017 492 1017 q 278 1068 328 1017 q 229 1197 229 1119 q 278 1326 229 1275 q 410 1376 328 1376 m 410 1268 q 354 1197 354 1268 q 410 1125 354 1125 q 464 1197 464 1125 q 410 1268 464 1268 z "},"Ũ":{"ha":815,"x_min":63,"x_max":754,"o":"m 754 297 q 715 133 754 206 q 599 18 676 60 q 408 -24 521 -24 q 151 64 239 -24 q 63 297 63 151 l 63 963 l 285 963 l 285 306 q 314 183 285 222 q 408 143 343 143 q 502 183 474 143 q 531 306 531 222 l 531 963 l 754 963 l 754 297 m 483 1063 q 437 1071 456 1063 q 389 1097 418 1079 q 360 1115 371 1110 q 338 1121 350 1121 q 303 1108 317 1121 q 271 1063 289 1094 l 168 1111 q 236 1226 193 1182 q 333 1269 279 1269 q 382 1260 361 1269 q 429 1233 403 1251 q 443 1225 432 1232 q 463 1215 454 1218 q 481 1211 472 1211 q 515 1224 500 1211 q 546 1268 529 1238 l 649 1219 q 581 1105 624 1147 q 483 1063 538 1063 z "},"Ṹ":{"ha":815,"x_min":63,"x_max":754,"o":"m 754 297 q 715 133 754 206 q 599 18 676 60 q 408 -24 521 -24 q 151 64 239 -24 q 63 297 63 151 l 63 963 l 285 963 l 285 306 q 314 183 285 222 q 408 143 343 143 q 502 183 474 143 q 531 306 531 222 l 531 963 l 754 963 l 754 297 m 483 1054 q 437 1063 456 1054 q 389 1089 418 1071 q 360 1107 371 1101 q 338 1113 350 1113 q 303 1099 317 1113 q 271 1054 289 1086 l 168 1103 q 236 1217 193 1174 q 333 1261 279 1261 q 382 1252 361 1261 q 429 1225 403 1243 q 443 1217 432 1224 q 463 1206 454 1210 q 481 1203 472 1203 q 515 1216 500 1203 q 546 1260 529 1229 l 649 1211 q 581 1097 624 1139 q 483 1054 538 1054 m 507 1561 l 588 1404 l 283 1285 l 229 1392 l 507 1561 z "},"V":{"ha":729,"x_min":-15,"x_max":744,"o":"m 744 963 l 510 0 l 229 0 l -15 963 l 213 963 l 374 175 l 522 963 l 744 963 z "},"Ʋ":{"ha":815,"x_min":63,"x_max":754,"o":"m 556 986 q 703 932 651 986 q 754 772 754 878 l 754 388 q 708 167 754 260 q 577 25 661 74 q 382 -24 493 -24 q 211 15 283 -24 q 101 123 139 54 q 63 279 63 192 l 63 963 l 285 963 l 285 275 q 311 177 285 211 q 388 143 338 143 q 492 202 453 143 q 531 379 531 261 l 531 776 q 496 825 531 825 q 464 818 481 825 l 431 963 q 556 986 486 986 z "},"Ʌ":{"ha":754,"x_min":-15,"x_max":769,"o":"m 511 963 l 769 0 l 538 0 l 375 800 l 213 0 l -15 0 l 244 963 l 511 963 z "},"W":{"ha":1072,"x_min":13,"x_max":1060,"o":"m 1060 963 l 921 0 l 632 0 l 535 742 l 429 0 l 147 0 l 13 963 l 228 963 l 310 168 l 422 963 l 653 963 l 758 168 l 853 963 l 1060 963 z "},"Ẃ":{"ha":1072,"x_min":13,"x_max":1060,"o":"m 1060 963 l 921 0 l 632 0 l 535 742 l 429 0 l 147 0 l 13 963 l 228 963 l 310 168 l 422 963 l 653 963 l 758 168 l 853 963 l 1060 963 m 638 1319 l 718 1163 l 414 1043 l 360 1150 l 638 1319 z "},"Ŵ":{"ha":1072,"x_min":13,"x_max":1060,"o":"m 1060 963 l 921 0 l 632 0 l 535 742 l 429 0 l 147 0 l 13 963 l 228 963 l 310 168 l 422 963 l 653 963 l 758 168 l 853 963 l 1060 963 m 371 1053 l 296 1133 l 475 1315 l 603 1315 l 781 1133 l 707 1053 l 539 1168 l 371 1053 z "},"Ẅ":{"ha":1072,"x_min":13,"x_max":1060,"o":"m 1060 963 l 921 0 l 632 0 l 535 742 l 429 0 l 147 0 l 13 963 l 228 963 l 310 168 l 422 963 l 653 963 l 758 168 l 853 963 l 1060 963 m 393 1282 q 469 1251 439 1282 q 500 1175 500 1221 q 469 1098 500 1129 q 393 1067 439 1067 q 317 1098 349 1067 q 286 1175 286 1129 q 317 1251 286 1219 q 393 1282 349 1282 m 688 1282 q 765 1251 733 1282 q 796 1175 796 1221 q 765 1098 796 1129 q 688 1067 735 1067 q 612 1098 643 1067 q 581 1175 581 1129 q 612 1251 581 1219 q 688 1282 643 1282 z "},"Ẁ":{"ha":1072,"x_min":13,"x_max":1060,"o":"m 1060 963 l 921 0 l 632 0 l 535 742 l 429 0 l 147 0 l 13 963 l 228 963 l 310 168 l 422 963 l 653 963 l 758 168 l 853 963 l 1060 963 m 438 1318 l 715 1149 l 661 1043 l 357 1161 l 438 1318 z "},"Ⱳ":{"ha":1151,"x_min":13,"x_max":1199,"o":"m 147 0 l 429 0 l 535 742 l 632 0 l 918 0 l 1010 753 q 1030 812 1015 794 q 1074 829 1044 829 q 1109 824 1094 829 q 1139 810 1124 819 l 1199 935 q 1126 973 1164 960 q 1040 986 1089 986 q 889 933 944 986 q 822 758 833 881 l 758 168 l 653 963 l 422 963 l 310 168 l 228 963 l 13 963 l 147 0 z "},"Ƿ":{"ha":756,"x_min":76,"x_max":735,"o":"m 493 986 q 615 953 560 986 q 703 860 671 921 q 735 718 735 799 q 690 537 735 611 q 572 414 646 463 q 389 319 499 365 l 299 282 l 299 0 l 76 0 l 76 963 l 299 963 l 299 907 q 493 986 378 986 m 342 458 q 467 563 426 504 q 507 706 507 621 q 482 796 507 767 q 413 825 457 825 q 299 774 347 825 l 299 438 l 342 458 z "},"X":{"ha":736,"x_min":-8,"x_max":744,"o":"m 496 519 l 744 0 l 507 0 l 363 371 l 224 0 l -8 0 l 232 511 l 10 963 l 246 963 l 365 650 l 493 963 l 724 963 l 496 519 z "},"Y":{"ha":753,"x_min":-12,"x_max":765,"o":"m 765 963 l 488 361 l 488 0 l 265 0 l 265 360 l -12 963 l 225 963 l 379 535 l 536 963 l 765 963 z "},"Ý":{"ha":753,"x_min":-12,"x_max":765,"o":"m 765 963 l 488 361 l 488 0 l 265 0 l 265 360 l -12 963 l 225 963 l 379 535 l 536 963 l 765 963 m 475 1319 l 556 1163 l 251 1043 l 197 1150 l 475 1319 z "},"Ŷ":{"ha":753,"x_min":-12,"x_max":765,"o":"m 765 963 l 488 361 l 488 0 l 265 0 l 265 360 l -12 963 l 225 963 l 379 535 l 536 963 l 765 963 m 208 1053 l 133 1133 l 313 1315 l 440 1315 l 618 1133 l 544 1053 l 376 1168 l 208 1053 z "},"Ÿ":{"ha":753,"x_min":-12,"x_max":765,"o":"m 765 963 l 488 361 l 488 0 l 265 0 l 265 360 l -12 963 l 225 963 l 379 535 l 536 963 l 765 963 m 231 1282 q 307 1251 276 1282 q 338 1175 338 1221 q 307 1098 338 1129 q 231 1067 276 1067 q 155 1098 186 1067 q 124 1175 124 1129 q 155 1251 124 1219 q 231 1282 186 1282 m 525 1282 q 602 1251 571 1282 q 633 1175 633 1221 q 603 1098 633 1129 q 525 1067 572 1067 q 449 1098 481 1067 q 418 1175 418 1129 q 449 1251 418 1219 q 525 1282 481 1282 z "},"Ỵ":{"ha":753,"x_min":-12,"x_max":765,"o":"m 765 963 l 488 361 l 488 0 l 265 0 l 265 360 l -12 963 l 225 963 l 379 535 l 536 963 l 765 963 m 378 -329 q 288 -294 324 -329 q 253 -208 253 -260 q 288 -121 253 -156 q 378 -86 324 -86 q 467 -121 432 -86 q 501 -208 501 -156 q 467 -294 501 -260 q 378 -329 432 -329 z "},"Ỳ":{"ha":753,"x_min":-12,"x_max":765,"o":"m 765 963 l 488 361 l 488 0 l 265 0 l 265 360 l -12 963 l 225 963 l 379 535 l 536 963 l 765 963 m 275 1318 l 553 1149 l 499 1043 l 194 1161 l 275 1318 z "},"Ƴ":{"ha":800,"x_min":-12,"x_max":847,"o":"m 265 360 l -12 963 l 225 963 l 381 536 l 465 790 q 550 941 499 896 q 690 986 601 986 q 774 973 738 986 q 847 936 811 960 l 788 810 q 722 829 758 829 q 678 813 694 829 q 643 754 661 797 l 488 361 l 488 0 l 265 0 l 265 360 z "},"Ỷ":{"ha":753,"x_min":-12,"x_max":765,"o":"m 765 963 l 488 361 l 488 0 l 265 0 l 265 360 l -12 963 l 225 963 l 379 535 l 536 963 l 765 963 m 314 1185 q 383 1199 363 1188 q 403 1238 403 1210 q 390 1269 403 1258 q 354 1281 376 1281 q 317 1276 333 1281 q 278 1264 301 1272 l 244 1353 q 385 1389 301 1389 q 501 1350 460 1389 q 543 1249 543 1311 q 516 1163 543 1194 q 438 1121 489 1131 l 438 1061 l 314 1061 l 314 1185 z "},"Ȳ":{"ha":753,"x_min":-12,"x_max":765,"o":"m 765 963 l 488 361 l 488 0 l 265 0 l 265 360 l -12 963 l 225 963 l 379 535 l 536 963 l 765 963 m 571 1088 l 182 1088 l 182 1233 l 571 1233 l 571 1088 z "},"Ʀ":{"ha":785,"x_min":76,"x_max":793,"o":"m 376 210 l 299 210 l 299 0 l 76 0 l 76 963 l 299 963 l 299 803 l 363 803 q 738 510 738 803 q 575 251 738 325 l 793 -160 l 551 -160 l 376 210 m 299 364 l 371 364 q 476 399 443 364 q 510 510 510 433 q 474 613 510 581 q 361 646 439 646 l 299 646 l 299 364 z "},"Ɏ":{"ha":753,"x_min":-12,"x_max":765,"o":"m 715 853 l 765 853 l 765 728 l 657 728 l 488 361 l 488 0 l 265 0 l 265 360 l 96 728 l -11 728 l -11 853 l 38 853 l -12 963 l 217 963 l 257 853 l 504 853 l 544 963 l 765 963 l 715 853 m 381 522 l 457 728 l 304 728 l 381 522 z "},"Ỹ":{"ha":753,"x_min":-12,"x_max":765,"o":"m 765 963 l 488 361 l 488 0 l 265 0 l 265 360 l -12 963 l 225 963 l 379 535 l 536 963 l 765 963 m 451 1063 q 405 1071 424 1063 q 357 1097 386 1079 q 328 1115 339 1110 q 306 1121 318 1121 q 271 1108 285 1121 q 239 1063 257 1094 l 136 1111 q 204 1226 161 1182 q 301 1269 247 1269 q 350 1260 329 1269 q 397 1233 371 1251 q 411 1225 400 1232 q 431 1215 422 1218 q 449 1211 440 1211 q 483 1224 468 1211 q 514 1268 497 1238 l 617 1219 q 549 1105 592 1147 q 451 1063 506 1063 z "},"Z":{"ha":683,"x_min":19,"x_max":657,"o":"m 649 963 l 649 794 l 269 178 l 657 178 l 635 0 l 19 0 l 19 167 l 401 790 l 56 790 l 56 963 l 649 963 z "},"Ź":{"ha":683,"x_min":19,"x_max":657,"o":"m 649 963 l 649 794 l 269 178 l 657 178 l 635 0 l 19 0 l 19 167 l 401 790 l 56 790 l 56 963 l 649 963 m 444 1319 l 525 1163 l 221 1043 l 167 1150 l 444 1319 z "},"Ž":{"ha":683,"x_min":19,"x_max":657,"o":"m 649 963 l 649 794 l 269 178 l 657 178 l 635 0 l 19 0 l 19 167 l 401 790 l 56 790 l 56 963 l 649 963 m 514 1304 l 588 1222 l 410 1042 l 281 1042 l 103 1222 l 178 1304 l 346 1189 l 514 1304 z "},"Ż":{"ha":683,"x_min":19,"x_max":657,"o":"m 649 963 l 649 794 l 269 178 l 657 178 l 635 0 l 19 0 l 19 167 l 401 790 l 56 790 l 56 963 l 649 963 m 344 1297 q 434 1263 399 1297 q 469 1176 469 1228 q 434 1089 469 1124 q 344 1054 399 1054 q 256 1089 290 1054 q 221 1176 221 1124 q 256 1263 221 1228 q 344 1297 290 1297 z "},"Ẓ":{"ha":683,"x_min":19,"x_max":657,"o":"m 649 963 l 649 794 l 269 178 l 657 178 l 635 0 l 19 0 l 19 167 l 401 790 l 56 790 l 56 963 l 649 963 m 333 -329 q 244 -294 279 -329 q 208 -208 208 -260 q 244 -121 208 -156 q 333 -86 279 -86 q 422 -121 388 -86 q 457 -208 457 -156 q 422 -294 457 -260 q 333 -329 388 -329 z "},"Ȥ":{"ha":675,"x_min":19,"x_max":649,"o":"m 649 794 l 269 178 l 647 178 l 647 -57 q 577 -244 647 -181 q 388 -307 507 -307 q 200 -249 279 -307 l 274 -119 q 317 -140 299 -133 q 364 -146 336 -146 q 435 -69 435 -146 l 435 0 l 19 0 l 19 167 l 401 790 l 56 790 l 56 963 l 649 963 l 649 794 z "},"Ƶ":{"ha":683,"x_min":19,"x_max":657,"o":"m 251 178 l 657 178 l 635 0 l 19 0 l 19 158 l 178 408 l 78 408 l 78 551 l 268 551 l 419 790 l 56 790 l 56 963 l 649 963 l 649 803 l 489 551 l 590 551 l 590 408 l 399 408 l 251 178 z "},"ʙ":{"ha":703,"x_min":72,"x_max":663,"o":"m 486 404 q 663 224 663 383 q 581 56 663 111 q 357 0 500 0 l 72 0 l 72 732 q 344 761 238 761 q 558 708 481 761 q 635 561 635 656 q 597 460 635 500 q 486 404 560 419 m 342 625 q 286 622 328 625 l 286 447 l 346 447 q 406 467 385 447 q 426 536 426 488 q 406 606 426 586 q 342 625 386 625 m 353 139 q 422 161 399 139 q 446 239 446 183 q 424 313 446 292 q 354 335 403 335 l 286 335 l 286 139 l 353 139 z "},"ɢ":{"ha":714,"x_min":40,"x_max":663,"o":"m 390 761 q 538 735 475 761 q 654 661 601 708 l 554 550 q 479 594 514 581 q 403 608 444 608 q 296 552 332 608 q 260 372 260 496 q 289 183 260 233 q 378 132 318 132 q 467 150 426 132 l 467 289 l 385 289 l 364 431 l 663 431 l 663 67 q 374 -21 532 -21 q 122 74 204 -21 q 40 372 40 169 q 85 583 40 496 q 210 716 131 671 q 390 761 289 761 z "},"ʛ":{"ha":713,"x_min":40,"x_max":858,"o":"m 685 1053 q 858 1001 781 1053 l 799 871 q 757 889 775 883 q 717 894 739 894 q 669 876 685 894 q 654 817 654 858 l 654 661 l 564 558 q 485 596 521 583 q 406 608 450 608 q 296 553 332 608 q 260 372 260 497 q 289 183 260 233 q 378 132 318 132 q 467 150 426 132 l 467 289 l 385 289 l 364 431 l 663 431 l 663 67 q 375 -21 535 -21 q 123 75 206 -21 q 40 372 40 171 q 84 583 40 494 q 203 716 128 671 q 369 761 278 761 q 468 744 426 761 l 468 833 q 525 996 468 939 q 685 1053 582 1053 z "},"ʜ":{"ha":738,"x_min":72,"x_max":665,"o":"m 451 0 l 451 296 l 286 296 l 286 0 l 72 0 l 72 738 l 286 738 l 286 453 l 451 453 l 451 738 l 665 738 l 665 0 l 451 0 z "},"ɪ":{"ha":424,"x_min":18,"x_max":406,"o":"m 406 586 l 318 586 l 318 154 l 406 154 l 406 0 l 18 0 l 18 154 l 104 154 l 104 586 l 18 586 l 18 738 l 406 738 l 406 586 z "},"ʟ":{"ha":568,"x_min":72,"x_max":560,"o":"m 286 738 l 286 165 l 560 165 l 539 0 l 72 0 l 72 738 l 286 738 z "},"ɴ":{"ha":740,"x_min":72,"x_max":667,"o":"m 667 0 l 413 0 l 229 551 q 250 386 243 460 q 257 214 257 313 l 257 0 l 72 0 l 72 738 l 325 738 l 511 188 q 490 342 496 281 q 483 492 483 403 l 483 738 l 667 738 l 667 0 z "},"ɶ":{"ha":968,"x_min":40,"x_max":944,"o":"m 690 303 q 629 149 676 214 l 939 149 l 939 0 l 493 0 q 369 -24 435 -24 q 128 78 215 -24 q 40 369 40 179 q 128 658 40 554 q 371 761 217 761 q 496 738 436 761 l 944 738 l 922 590 l 631 590 q 688 446 674 529 l 892 446 l 892 303 l 690 303 m 371 135 q 453 189 426 135 q 481 369 481 243 q 453 549 481 494 q 371 603 425 603 q 288 549 314 603 q 261 369 261 494 q 288 188 261 242 q 371 135 314 135 z "},"ʀ":{"ha":672,"x_min":72,"x_max":669,"o":"m 328 257 l 278 257 l 278 0 l 72 0 l 72 738 l 318 738 q 547 676 468 738 q 625 494 625 615 q 510 290 625 350 l 669 0 l 451 0 l 328 257 m 278 386 l 322 386 q 392 411 369 386 q 414 497 414 436 q 390 577 414 554 q 315 600 367 600 l 278 600 l 278 386 z "},"ʁ":{"ha":672,"x_min":72,"x_max":669,"o":"m 510 449 q 597 368 568 421 q 625 246 625 315 q 547 62 625 124 q 318 0 468 0 l 72 0 l 72 738 l 278 738 l 278 482 l 328 482 l 451 738 l 669 738 l 510 449 m 315 138 q 390 161 367 138 q 414 243 414 185 q 392 327 414 303 q 322 351 369 351 l 278 351 l 278 138 l 315 138 z "},"ʏ":{"ha":632,"x_min":-19,"x_max":650,"o":"m 650 738 l 424 268 l 424 0 l 210 0 l 210 267 l -19 738 l 204 738 l 319 401 l 433 738 l 650 738 z "},"a":{"ha":690,"x_min":31,"x_max":658,"o":"m 615 204 q 625 149 615 167 q 658 121 635 131 l 614 -19 q 510 10 550 -14 q 447 83 469 33 q 249 -24 379 -24 q 90 40 149 -24 q 31 207 31 103 q 112 392 31 328 q 347 456 193 456 l 406 456 l 406 490 q 382 581 406 556 q 299 607 358 607 q 125 569 231 607 l 76 707 q 207 747 138 733 q 336 761 276 761 q 547 697 479 761 q 615 503 615 633 l 615 204 m 313 129 q 366 147 342 129 q 406 199 390 165 l 406 336 l 367 336 q 271 309 301 336 q 240 225 240 282 q 259 153 240 178 q 313 129 278 129 z "},"á":{"ha":690,"x_min":31,"x_max":658,"o":"m 615 204 q 625 149 615 167 q 658 121 635 131 l 614 -19 q 510 10 550 -14 q 447 83 469 33 q 249 -24 379 -24 q 90 40 149 -24 q 31 207 31 103 q 112 392 31 328 q 347 456 193 456 l 406 456 l 406 490 q 382 581 406 556 q 299 607 358 607 q 125 569 231 607 l 76 707 q 207 747 138 733 q 336 761 276 761 q 547 697 479 761 q 615 503 615 633 l 615 204 m 313 129 q 366 147 342 129 q 406 199 390 165 l 406 336 l 367 336 q 271 309 301 336 q 240 225 240 282 q 259 153 240 178 q 313 129 278 129 m 429 1153 l 513 996 l 211 865 l 153 971 l 429 1153 z "},"ă":{"ha":690,"x_min":31,"x_max":658,"o":"m 615 204 q 625 149 615 167 q 658 121 635 131 l 614 -19 q 510 10 550 -14 q 447 83 469 33 q 249 -24 379 -24 q 90 40 149 -24 q 31 207 31 103 q 112 392 31 328 q 347 456 193 456 l 406 456 l 406 490 q 382 581 406 556 q 299 607 358 607 q 125 569 231 607 l 76 707 q 207 747 138 733 q 336 761 276 761 q 547 697 479 761 q 615 503 615 633 l 615 204 m 313 129 q 366 147 342 129 q 406 199 390 165 l 406 336 l 367 336 q 271 309 301 336 q 240 225 240 282 q 259 153 240 178 q 313 129 278 129 m 340 879 q 184 944 240 879 q 121 1115 128 1008 l 236 1136 q 340 1026 261 1026 q 408 1055 382 1026 q 446 1136 435 1083 l 561 1115 q 497 944 554 1008 q 340 879 440 879 z "},"ắ":{"ha":690,"x_min":31,"x_max":658,"o":"m 615 204 q 625 149 615 167 q 658 121 635 131 l 614 -19 q 510 10 550 -14 q 447 83 469 33 q 249 -24 379 -24 q 90 40 149 -24 q 31 207 31 103 q 112 392 31 328 q 347 456 193 456 l 406 456 l 406 490 q 382 581 406 556 q 299 607 358 607 q 125 569 231 607 l 76 707 q 207 747 138 733 q 336 761 276 761 q 547 697 479 761 q 615 503 615 633 l 615 204 m 313 129 q 366 147 342 129 q 406 199 390 165 l 406 336 l 367 336 q 271 309 301 336 q 240 225 240 282 q 259 153 240 178 q 313 129 278 129 m 342 835 q 187 897 243 835 q 122 1057 131 958 l 238 1078 q 274 1008 249 1033 q 342 983 300 983 q 410 1009 383 983 q 447 1078 436 1035 l 563 1057 q 497 897 554 960 q 342 835 440 835 m 440 1371 l 561 1261 l 353 1063 l 271 1133 l 440 1371 z "},"ặ":{"ha":690,"x_min":31,"x_max":658,"o":"m 615 204 q 625 149 615 167 q 658 121 635 131 l 614 -19 q 510 10 550 -14 q 447 83 469 33 q 249 -24 379 -24 q 90 40 149 -24 q 31 207 31 103 q 112 392 31 328 q 347 456 193 456 l 406 456 l 406 490 q 382 581 406 556 q 299 607 358 607 q 125 569 231 607 l 76 707 q 207 747 138 733 q 336 761 276 761 q 547 697 479 761 q 615 503 615 633 l 615 204 m 313 129 q 366 147 342 129 q 406 199 390 165 l 406 336 l 367 336 q 271 309 301 336 q 240 225 240 282 q 259 153 240 178 q 313 129 278 129 m 340 879 q 184 944 240 879 q 121 1115 128 1008 l 236 1136 q 340 1026 261 1026 q 408 1055 382 1026 q 446 1136 435 1083 l 561 1115 q 497 944 554 1008 q 340 879 440 879 m 344 -329 q 255 -294 290 -329 q 219 -208 219 -260 q 255 -121 219 -156 q 344 -86 290 -86 q 433 -121 399 -86 q 468 -208 468 -156 q 433 -294 468 -260 q 344 -329 399 -329 z "},"ằ":{"ha":690,"x_min":31,"x_max":658,"o":"m 615 204 q 625 149 615 167 q 658 121 635 131 l 614 -19 q 510 10 550 -14 q 447 83 469 33 q 249 -24 379 -24 q 90 40 149 -24 q 31 207 31 103 q 112 392 31 328 q 347 456 193 456 l 406 456 l 406 490 q 382 581 406 556 q 299 607 358 607 q 125 569 231 607 l 76 707 q 207 747 138 733 q 336 761 276 761 q 547 697 479 761 q 615 503 615 633 l 615 204 m 313 129 q 366 147 342 129 q 406 199 390 165 l 406 336 l 367 336 q 271 309 301 336 q 240 225 240 282 q 259 153 240 178 q 313 129 278 129 m 346 835 q 191 897 247 835 q 126 1057 135 958 l 242 1078 q 278 1008 253 1033 q 346 983 304 983 q 414 1009 388 983 q 451 1078 440 1035 l 567 1057 q 501 897 558 960 q 346 835 444 835 m 253 1371 l 424 1133 l 340 1063 l 132 1261 l 253 1371 z "},"ẳ":{"ha":690,"x_min":31,"x_max":658,"o":"m 615 204 q 625 149 615 167 q 658 121 635 131 l 614 -19 q 510 10 550 -14 q 447 83 469 33 q 249 -24 379 -24 q 90 40 149 -24 q 31 207 31 103 q 112 392 31 328 q 347 456 193 456 l 406 456 l 406 490 q 382 581 406 556 q 299 607 358 607 q 125 569 231 607 l 76 707 q 207 747 138 733 q 336 761 276 761 q 547 697 479 761 q 615 503 615 633 l 615 204 m 313 129 q 366 147 342 129 q 406 199 390 165 l 406 336 l 367 336 q 271 309 301 336 q 240 225 240 282 q 259 153 240 178 q 313 129 278 129 m 344 835 q 190 897 246 835 q 125 1057 133 958 l 240 1078 q 277 1008 251 1033 q 344 983 303 983 q 413 1009 386 983 q 450 1078 439 1035 l 565 1057 q 500 897 557 960 q 344 835 443 835 m 283 1200 q 352 1215 332 1203 q 372 1254 372 1226 q 359 1286 372 1275 q 324 1297 346 1297 q 287 1293 303 1297 q 247 1281 271 1289 l 214 1369 q 354 1404 272 1404 q 471 1366 429 1404 q 513 1265 513 1328 q 485 1178 513 1211 q 407 1136 458 1146 l 407 1063 l 283 1063 l 283 1200 z "},"ẵ":{"ha":690,"x_min":31,"x_max":658,"o":"m 615 204 q 625 149 615 167 q 658 121 635 131 l 614 -19 q 510 10 550 -14 q 447 83 469 33 q 249 -24 379 -24 q 90 40 149 -24 q 31 207 31 103 q 112 392 31 328 q 347 456 193 456 l 406 456 l 406 490 q 382 581 406 556 q 299 607 358 607 q 125 569 231 607 l 76 707 q 207 747 138 733 q 336 761 276 761 q 547 697 479 761 q 615 503 615 633 l 615 204 m 313 129 q 366 147 342 129 q 406 199 390 165 l 406 336 l 367 336 q 271 309 301 336 q 240 225 240 282 q 259 153 240 178 q 313 129 278 129 m 342 835 q 187 897 243 835 q 122 1057 131 958 l 238 1078 q 274 1008 249 1033 q 342 983 300 983 q 410 1009 383 983 q 447 1078 436 1035 l 563 1057 q 497 897 554 960 q 342 835 440 835 m 418 1119 q 371 1128 390 1119 q 324 1153 351 1136 q 296 1169 307 1164 q 272 1175 285 1175 q 237 1163 251 1175 q 206 1119 222 1150 l 103 1165 q 171 1273 128 1232 q 268 1314 214 1314 q 317 1306 296 1314 q 364 1281 338 1297 q 390 1266 376 1272 q 415 1260 403 1260 q 449 1272 435 1260 q 481 1313 464 1285 l 583 1267 q 515 1160 558 1200 q 418 1119 472 1119 z "},"ǎ":{"ha":690,"x_min":31,"x_max":658,"o":"m 615 204 q 625 149 615 167 q 658 121 635 131 l 614 -19 q 510 10 550 -14 q 447 83 469 33 q 249 -24 379 -24 q 90 40 149 -24 q 31 207 31 103 q 112 392 31 328 q 347 456 193 456 l 406 456 l 406 490 q 382 581 406 556 q 299 607 358 607 q 125 569 231 607 l 76 707 q 207 747 138 733 q 336 761 276 761 q 547 697 479 761 q 615 503 615 633 l 615 204 m 313 129 q 366 147 342 129 q 406 199 390 165 l 406 336 l 367 336 q 271 309 301 336 q 240 225 240 282 q 259 153 240 178 q 313 129 278 129 m 510 1125 l 583 1042 l 406 850 l 276 850 l 99 1042 l 174 1125 l 342 997 l 510 1125 z "},"â":{"ha":690,"x_min":31,"x_max":658,"o":"m 615 204 q 625 149 615 167 q 658 121 635 131 l 614 -19 q 510 10 550 -14 q 447 83 469 33 q 249 -24 379 -24 q 90 40 149 -24 q 31 207 31 103 q 112 392 31 328 q 347 456 193 456 l 406 456 l 406 490 q 382 581 406 556 q 299 607 358 607 q 125 569 231 607 l 76 707 q 207 747 138 733 q 336 761 276 761 q 547 697 479 761 q 615 503 615 633 l 615 204 m 313 129 q 366 147 342 129 q 406 199 390 165 l 406 336 l 367 336 q 271 309 301 336 q 240 225 240 282 q 259 153 240 178 q 313 129 278 129 m 174 865 l 99 947 l 276 1139 l 406 1139 l 583 947 l 508 865 l 342 993 l 174 865 z "},"ấ":{"ha":690,"x_min":31,"x_max":760,"o":"m 615 204 q 625 149 615 167 q 658 121 635 131 l 614 -19 q 510 10 550 -14 q 447 83 469 33 q 249 -24 379 -24 q 90 40 149 -24 q 31 207 31 103 q 112 392 31 328 q 347 456 193 456 l 406 456 l 406 490 q 382 581 406 556 q 299 607 358 607 q 125 569 231 607 l 76 707 q 207 747 138 733 q 336 761 276 761 q 547 697 479 761 q 615 503 615 633 l 615 204 m 313 129 q 366 147 342 129 q 406 199 390 165 l 406 336 l 367 336 q 271 309 301 336 q 240 225 240 282 q 259 153 240 178 q 313 129 278 129 m 172 817 l 97 897 l 276 1079 l 404 1079 l 582 897 l 508 817 l 340 932 l 172 817 m 639 1324 l 760 1214 l 551 1015 l 469 1086 l 639 1324 z "},"ậ":{"ha":690,"x_min":31,"x_max":658,"o":"m 615 204 q 625 149 615 167 q 658 121 635 131 l 614 -19 q 510 10 550 -14 q 447 83 469 33 q 249 -24 379 -24 q 90 40 149 -24 q 31 207 31 103 q 112 392 31 328 q 347 456 193 456 l 406 456 l 406 490 q 382 581 406 556 q 299 607 358 607 q 125 569 231 607 l 76 707 q 207 747 138 733 q 336 761 276 761 q 547 697 479 761 q 615 503 615 633 l 615 204 m 313 129 q 366 147 342 129 q 406 199 390 165 l 406 336 l 367 336 q 271 309 301 336 q 240 225 240 282 q 259 153 240 178 q 313 129 278 129 m 174 865 l 99 947 l 276 1139 l 406 1139 l 583 947 l 508 865 l 342 993 l 174 865 m 344 -329 q 255 -294 290 -329 q 219 -208 219 -260 q 255 -121 219 -156 q 344 -86 290 -86 q 433 -121 399 -86 q 468 -208 468 -156 q 433 -294 468 -260 q 344 -329 399 -329 z "},"ầ":{"ha":690,"x_min":-79,"x_max":658,"o":"m 615 204 q 625 149 615 167 q 658 121 635 131 l 614 -19 q 510 10 550 -14 q 447 83 469 33 q 249 -24 379 -24 q 90 40 149 -24 q 31 207 31 103 q 112 392 31 328 q 347 456 193 456 l 406 456 l 406 490 q 382 581 406 556 q 299 607 358 607 q 125 569 231 607 l 76 707 q 207 747 138 733 q 336 761 276 761 q 547 697 479 761 q 615 503 615 633 l 615 204 m 313 129 q 366 147 342 129 q 406 199 390 165 l 406 336 l 367 336 q 271 309 301 336 q 240 225 240 282 q 259 153 240 178 q 313 129 278 129 m 171 817 l 96 897 l 275 1079 l 403 1079 l 581 897 l 507 817 l 339 932 l 171 817 m 42 1324 l 213 1086 l 129 1015 l -79 1214 l 42 1324 z "},"ẩ":{"ha":690,"x_min":31,"x_max":703,"o":"m 615 204 q 625 149 615 167 q 658 121 635 131 l 614 -19 q 510 10 550 -14 q 447 83 469 33 q 249 -24 379 -24 q 90 40 149 -24 q 31 207 31 103 q 112 392 31 328 q 347 456 193 456 l 406 456 l 406 490 q 382 581 406 556 q 299 607 358 607 q 125 569 231 607 l 76 707 q 207 747 138 733 q 336 761 276 761 q 547 697 479 761 q 615 503 615 633 l 615 204 m 313 129 q 366 147 342 129 q 406 199 390 165 l 406 336 l 367 336 q 271 309 301 336 q 240 225 240 282 q 259 153 240 178 q 313 129 278 129 m 172 817 l 97 897 l 276 1079 l 404 1079 l 582 897 l 508 817 l 340 932 l 172 817 m 474 1181 q 542 1195 522 1183 q 563 1235 563 1207 q 549 1267 563 1256 q 514 1278 536 1278 q 477 1274 493 1278 q 438 1261 461 1269 l 404 1350 q 544 1385 463 1385 q 661 1347 619 1385 q 703 1246 703 1308 q 676 1159 703 1192 q 597 1117 649 1126 l 597 1043 l 474 1043 l 474 1181 z "},"ẫ":{"ha":690,"x_min":31,"x_max":658,"o":"m 615 204 q 625 149 615 167 q 658 121 635 131 l 614 -19 q 510 10 550 -14 q 447 83 469 33 q 249 -24 379 -24 q 90 40 149 -24 q 31 207 31 103 q 112 392 31 328 q 347 456 193 456 l 406 456 l 406 490 q 382 581 406 556 q 299 607 358 607 q 125 569 231 607 l 76 707 q 207 747 138 733 q 336 761 276 761 q 547 697 479 761 q 615 503 615 633 l 615 204 m 313 129 q 366 147 342 129 q 406 199 390 165 l 406 336 l 367 336 q 271 309 301 336 q 240 225 240 282 q 259 153 240 178 q 313 129 278 129 m 172 811 l 97 892 l 276 1074 l 404 1074 l 582 892 l 508 811 l 340 926 l 172 811 m 415 1114 q 368 1122 388 1114 q 321 1147 349 1131 q 293 1164 304 1158 q 269 1169 282 1169 q 234 1157 249 1169 q 203 1114 219 1144 l 100 1160 q 168 1267 125 1226 q 265 1308 211 1308 q 314 1300 293 1308 q 361 1275 335 1292 q 387 1260 374 1267 q 413 1254 400 1254 q 447 1267 432 1254 q 478 1307 461 1279 l 581 1261 q 513 1154 556 1194 q 415 1114 469 1114 z "},"ȁ":{"ha":690,"x_min":31,"x_max":658,"o":"m 615 204 q 625 149 615 167 q 658 121 635 131 l 614 -19 q 510 10 550 -14 q 447 83 469 33 q 249 -24 379 -24 q 90 40 149 -24 q 31 207 31 103 q 112 392 31 328 q 347 456 193 456 l 406 456 l 406 490 q 382 581 406 556 q 299 607 358 607 q 125 569 231 607 l 76 707 q 207 747 138 733 q 336 761 276 761 q 547 697 479 761 q 615 503 615 633 l 615 204 m 313 129 q 366 147 342 129 q 406 199 390 165 l 406 336 l 367 336 q 271 309 301 336 q 240 225 240 282 q 259 153 240 178 q 313 129 278 129 m 189 1190 l 313 919 l 207 869 l 51 1119 l 189 1190 m 414 1190 l 526 919 l 419 875 l 275 1124 l 414 1190 z "},"ä":{"ha":690,"x_min":31,"x_max":658,"o":"m 615 204 q 625 149 615 167 q 658 121 635 131 l 614 -19 q 510 10 550 -14 q 447 83 469 33 q 249 -24 379 -24 q 90 40 149 -24 q 31 207 31 103 q 112 392 31 328 q 347 456 193 456 l 406 456 l 406 490 q 382 581 406 556 q 299 607 358 607 q 125 569 231 607 l 76 707 q 207 747 138 733 q 336 761 276 761 q 547 697 479 761 q 615 503 615 633 l 615 204 m 313 129 q 366 147 342 129 q 406 199 390 165 l 406 336 l 367 336 q 271 309 301 336 q 240 225 240 282 q 259 153 240 178 q 313 129 278 129 m 193 1107 q 269 1076 239 1107 q 300 1000 300 1046 q 269 923 300 954 q 193 892 239 892 q 117 923 149 892 q 86 1000 86 954 q 117 1076 86 1044 q 193 1107 149 1107 m 488 1107 q 565 1076 533 1107 q 596 1000 596 1046 q 565 923 596 954 q 488 892 535 892 q 412 923 443 892 q 381 1000 381 954 q 412 1076 381 1044 q 488 1107 443 1107 z "},"ǟ":{"ha":690,"x_min":31,"x_max":658,"o":"m 615 204 q 625 149 615 167 q 658 121 635 131 l 614 -19 q 510 10 550 -14 q 447 83 469 33 q 249 -24 379 -24 q 90 40 149 -24 q 31 207 31 103 q 112 392 31 328 q 347 456 193 456 l 406 456 l 406 490 q 382 581 406 556 q 299 607 358 607 q 125 569 231 607 l 76 707 q 207 747 138 733 q 336 761 276 761 q 547 697 479 761 q 615 503 615 633 l 615 204 m 313 129 q 366 147 342 129 q 406 199 390 165 l 406 336 l 367 336 q 271 309 301 336 q 240 225 240 282 q 259 153 240 178 q 313 129 278 129 m 194 1053 q 271 1022 240 1053 q 301 946 301 992 q 271 869 301 900 q 194 838 240 838 q 119 869 150 838 q 88 946 88 900 q 119 1022 88 990 q 194 1053 150 1053 m 489 1053 q 566 1022 535 1053 q 597 946 597 992 q 567 869 597 900 q 489 838 536 838 q 413 869 444 838 q 382 946 382 900 q 413 1022 382 990 q 489 1053 444 1053 m 536 1115 l 147 1115 l 147 1261 l 536 1261 l 536 1115 z "},"ȧ":{"ha":690,"x_min":31,"x_max":658,"o":"m 615 204 q 625 149 615 167 q 658 121 635 131 l 614 -19 q 510 10 550 -14 q 447 83 469 33 q 249 -24 379 -24 q 90 40 149 -24 q 31 207 31 103 q 112 392 31 328 q 347 456 193 456 l 406 456 l 406 490 q 382 581 406 556 q 299 607 358 607 q 125 569 231 607 l 76 707 q 207 747 138 733 q 336 761 276 761 q 547 697 479 761 q 615 503 615 633 l 615 204 m 313 129 q 366 147 342 129 q 406 199 390 165 l 406 336 l 367 336 q 271 309 301 336 q 240 225 240 282 q 259 153 240 178 q 313 129 278 129 m 340 1122 q 430 1088 394 1122 q 465 1001 465 1053 q 430 914 465 949 q 340 879 394 879 q 251 914 286 879 q 217 1001 217 949 q 251 1088 217 1053 q 340 1122 286 1122 z "},"ạ":{"ha":690,"x_min":31,"x_max":658,"o":"m 615 204 q 625 149 615 167 q 658 121 635 131 l 614 -19 q 510 10 550 -14 q 447 83 469 33 q 249 -24 379 -24 q 90 40 149 -24 q 31 207 31 103 q 112 392 31 328 q 347 456 193 456 l 406 456 l 406 490 q 382 581 406 556 q 299 607 358 607 q 125 569 231 607 l 76 707 q 207 747 138 733 q 336 761 276 761 q 547 697 479 761 q 615 503 615 633 l 615 204 m 313 129 q 366 147 342 129 q 406 199 390 165 l 406 336 l 367 336 q 271 309 301 336 q 240 225 240 282 q 259 153 240 178 q 313 129 278 129 m 344 -329 q 255 -294 290 -329 q 219 -208 219 -260 q 255 -121 219 -156 q 344 -86 290 -86 q 433 -121 399 -86 q 468 -208 468 -156 q 433 -294 468 -260 q 344 -329 399 -329 z "},"ǡ":{"ha":690,"x_min":31,"x_max":658,"o":"m 615 204 q 625 149 615 167 q 658 121 635 131 l 614 -19 q 510 10 550 -14 q 447 83 469 33 q 249 -24 379 -24 q 90 40 149 -24 q 31 207 31 103 q 112 392 31 328 q 347 456 193 456 l 406 456 l 406 490 q 382 581 406 556 q 299 607 358 607 q 125 569 231 607 l 76 707 q 207 747 138 733 q 336 761 276 761 q 547 697 479 761 q 615 503 615 633 l 615 204 m 313 129 q 366 147 342 129 q 406 199 390 165 l 406 336 l 367 336 q 271 309 301 336 q 240 225 240 282 q 259 153 240 178 q 313 129 278 129 m 340 1069 q 430 1035 394 1069 q 465 949 465 1000 q 430 861 465 896 q 340 826 394 826 q 251 861 286 826 q 217 949 217 896 q 251 1035 217 1000 q 340 1069 286 1069 m 536 1118 l 147 1118 l 147 1264 l 536 1264 l 536 1118 z "},"à":{"ha":690,"x_min":31,"x_max":658,"o":"m 615 204 q 625 149 615 167 q 658 121 635 131 l 614 -19 q 510 10 550 -14 q 447 83 469 33 q 249 -24 379 -24 q 90 40 149 -24 q 31 207 31 103 q 112 392 31 328 q 347 456 193 456 l 406 456 l 406 490 q 382 581 406 556 q 299 607 358 607 q 125 569 231 607 l 76 707 q 207 747 138 733 q 336 761 276 761 q 547 697 479 761 q 615 503 615 633 l 615 204 m 313 129 q 366 147 342 129 q 406 199 390 165 l 406 336 l 367 336 q 271 309 301 336 q 240 225 240 282 q 259 153 240 178 q 313 129 278 129 m 257 1153 l 533 971 l 475 865 l 174 996 l 257 1153 z "},"ả":{"ha":690,"x_min":31,"x_max":658,"o":"m 615 204 q 625 149 615 167 q 658 121 635 131 l 614 -19 q 510 10 550 -14 q 447 83 469 33 q 249 -24 379 -24 q 90 40 149 -24 q 31 207 31 103 q 112 392 31 328 q 347 456 193 456 l 406 456 l 406 490 q 382 581 406 556 q 299 607 358 607 q 125 569 231 607 l 76 707 q 207 747 138 733 q 336 761 276 761 q 547 697 479 761 q 615 503 615 633 l 615 204 m 313 129 q 366 147 342 129 q 406 199 390 165 l 406 336 l 367 336 q 271 309 301 336 q 240 225 240 282 q 259 153 240 178 q 313 129 278 129 m 281 978 q 349 992 329 981 q 369 1032 369 1004 q 356 1064 369 1053 q 321 1075 343 1075 q 284 1071 300 1075 q 244 1058 268 1067 l 211 1147 q 351 1182 269 1182 q 468 1144 426 1182 q 510 1043 510 1106 q 483 956 510 989 q 404 914 456 924 l 404 840 l 281 840 l 281 978 z "},"ȃ":{"ha":690,"x_min":31,"x_max":658,"o":"m 615 204 q 625 149 615 167 q 658 121 635 131 l 614 -19 q 510 10 550 -14 q 447 83 469 33 q 249 -24 379 -24 q 90 40 149 -24 q 31 207 31 103 q 112 392 31 328 q 347 456 193 456 l 406 456 l 406 490 q 382 581 406 556 q 299 607 358 607 q 125 569 231 607 l 76 707 q 207 747 138 733 q 336 761 276 761 q 547 697 479 761 q 615 503 615 633 l 615 204 m 313 129 q 366 147 342 129 q 406 199 390 165 l 406 336 l 367 336 q 271 309 301 336 q 240 225 240 282 q 259 153 240 178 q 313 129 278 129 m 340 1094 q 497 1030 440 1094 q 561 858 554 965 l 446 838 q 408 919 435 890 q 340 947 382 947 q 236 838 261 947 l 121 858 q 184 1030 128 965 q 340 1094 240 1094 z "},"ɑ":{"ha":757,"x_min":40,"x_max":729,"o":"m 676 233 q 688 169 676 190 q 729 131 699 147 l 668 -24 q 557 14 599 -11 q 492 83 515 39 q 409 5 458 33 q 299 -24 360 -24 q 107 78 174 -24 q 40 369 40 181 q 74 576 40 488 q 170 713 108 665 q 313 761 232 761 q 479 679 414 761 l 490 738 l 676 738 l 676 233 m 358 133 q 463 210 417 133 l 463 549 q 419 590 442 576 q 368 604 397 604 q 289 551 317 604 q 261 369 261 497 q 286 184 261 235 q 358 133 311 133 z "},"ɒ":{"ha":757,"x_min":28,"x_max":717,"o":"m 458 761 q 650 659 583 761 q 717 368 717 557 q 683 161 717 250 q 587 24 649 72 q 444 -24 525 -24 q 278 58 343 -24 l 267 0 l 81 0 l 81 504 q 69 569 81 547 q 28 607 58 590 l 89 761 q 200 724 158 749 q 265 654 242 699 q 348 733 299 704 q 458 761 397 761 m 389 133 q 468 187 440 133 q 496 368 496 240 q 471 554 496 504 q 399 604 446 604 q 294 528 340 604 l 294 189 q 338 147 315 161 q 389 133 360 133 z "},"ā":{"ha":690,"x_min":31,"x_max":658,"o":"m 615 204 q 625 149 615 167 q 658 121 635 131 l 614 -19 q 510 10 550 -14 q 447 83 469 33 q 249 -24 379 -24 q 90 40 149 -24 q 31 207 31 103 q 112 392 31 328 q 347 456 193 456 l 406 456 l 406 490 q 382 581 406 556 q 299 607 358 607 q 125 569 231 607 l 76 707 q 207 747 138 733 q 336 761 276 761 q 547 697 479 761 q 615 503 615 633 l 615 204 m 313 129 q 366 147 342 129 q 406 199 390 165 l 406 336 l 367 336 q 271 309 301 336 q 240 225 240 282 q 259 153 240 178 q 313 129 278 129 m 536 913 l 147 913 l 147 1058 l 536 1058 l 536 913 z "},"ą":{"ha":690,"x_min":31,"x_max":658,"o":"m 614 -19 q 499 -90 531 -54 q 468 -162 468 -125 q 533 -226 468 -226 q 608 -217 560 -226 l 594 -349 q 507 -360 553 -360 q 369 -317 422 -360 q 315 -200 315 -274 q 363 -72 315 -125 q 497 18 410 -19 q 447 83 465 42 q 249 -24 379 -24 q 90 40 149 -24 q 31 207 31 103 q 112 392 31 328 q 347 456 193 456 l 406 456 l 406 490 q 382 581 406 556 q 299 607 358 607 q 125 569 231 607 l 76 707 q 207 747 138 733 q 336 761 276 761 q 547 697 479 761 q 615 503 615 633 l 615 204 q 625 149 615 167 q 658 121 635 131 l 614 -19 m 313 129 q 366 147 342 129 q 406 199 390 165 l 406 336 l 367 336 q 271 309 301 336 q 240 225 240 282 q 259 153 240 178 q 313 129 278 129 z "},"å":{"ha":690,"x_min":31,"x_max":658,"o":"m 615 204 q 625 149 615 167 q 658 121 635 131 l 614 -19 q 510 10 550 -14 q 447 83 469 33 q 249 -24 379 -24 q 90 40 149 -24 q 31 207 31 103 q 112 392 31 328 q 347 456 193 456 l 406 456 l 406 490 q 382 581 406 556 q 299 607 358 607 q 125 569 231 607 l 76 707 q 207 747 138 733 q 336 761 276 761 q 547 697 479 761 q 615 503 615 633 l 615 204 m 313 129 q 366 147 342 129 q 406 199 390 165 l 406 336 l 367 336 q 271 309 301 336 q 240 225 240 282 q 259 153 240 178 q 313 129 278 129 m 342 1201 q 472 1151 424 1201 q 521 1022 521 1100 q 472 893 521 944 q 342 842 424 842 q 210 893 260 842 q 161 1022 161 944 q 210 1151 161 1100 q 342 1201 260 1201 m 342 1093 q 286 1022 286 1093 q 342 950 286 950 q 396 1022 396 950 q 342 1093 396 1093 z "},"ǻ":{"ha":690,"x_min":31,"x_max":658,"o":"m 521 1290 l 217 1171 l 163 1278 l 440 1447 l 521 1290 m 342 801 q 210 853 260 801 q 161 982 161 904 q 210 1110 161 1060 q 342 1161 260 1161 q 472 1110 424 1161 q 521 982 521 1060 q 472 853 521 904 q 342 801 424 801 m 342 1053 q 286 982 286 1053 q 342 910 286 910 q 396 982 396 910 q 342 1053 396 1053 m 615 204 q 625 149 615 167 q 658 121 635 131 l 614 -19 q 510 10 550 -14 q 447 83 469 33 q 249 -24 379 -24 q 90 40 149 -24 q 31 207 31 103 q 112 392 31 328 q 347 456 193 456 l 406 456 l 406 490 q 382 581 406 556 q 299 607 358 607 q 125 569 231 607 l 76 707 q 207 747 138 733 q 336 761 276 761 q 547 697 479 761 q 615 503 615 633 l 615 204 m 313 129 q 366 147 342 129 q 406 199 390 165 l 406 336 l 367 336 q 271 309 301 336 q 240 225 240 282 q 259 153 240 178 q 313 129 278 129 z "},"ⱥ":{"ha":690,"x_min":31,"x_max":658,"o":"m 615 204 q 625 149 615 167 q 658 121 635 131 l 614 -19 q 510 10 550 -14 q 447 83 469 33 q 288 -21 392 -7 l 269 -103 l 200 -87 l 215 -22 q 80 51 129 -11 q 31 207 31 113 q 103 380 31 319 q 318 447 176 440 l 356 614 q 319 617 333 617 q 125 579 231 617 l 76 707 q 207 747 138 733 q 336 761 276 761 q 388 758 354 761 l 404 833 l 472 818 l 457 746 q 615 503 615 701 l 615 204 m 431 496 q 418 574 431 544 l 390 447 l 431 447 l 431 496 m 318 121 q 431 199 381 131 l 431 336 l 367 336 l 318 121 m 218 222 q 249 133 218 158 l 292 328 q 218 222 218 308 z "},"ã":{"ha":690,"x_min":31,"x_max":658,"o":"m 615 204 q 625 149 615 167 q 658 121 635 131 l 614 -19 q 510 10 550 -14 q 447 83 469 33 q 249 -24 379 -24 q 90 40 149 -24 q 31 207 31 103 q 112 392 31 328 q 347 456 193 456 l 406 456 l 406 490 q 382 581 406 556 q 299 607 358 607 q 125 569 231 607 l 76 707 q 207 747 138 733 q 336 761 276 761 q 547 697 479 761 q 615 503 615 633 l 615 204 m 313 129 q 366 147 342 129 q 406 199 390 165 l 406 336 l 367 336 q 271 309 301 336 q 240 225 240 282 q 259 153 240 178 q 313 129 278 129 m 417 888 q 370 896 389 888 q 322 922 351 904 q 294 940 304 935 q 271 946 283 946 q 236 933 250 946 q 204 888 222 919 l 101 936 q 169 1051 126 1007 q 267 1094 213 1094 q 315 1085 294 1094 q 363 1058 336 1076 q 376 1050 365 1057 q 397 1040 388 1043 q 414 1036 406 1036 q 448 1049 433 1036 q 479 1093 463 1063 l 582 1044 q 514 930 557 972 q 417 888 471 888 z "},"ɐ":{"ha":690,"x_min":32,"x_max":660,"o":"m 392 131 q 565 168 460 131 l 614 31 q 483 -10 553 4 q 354 -24 414 -24 q 143 40 211 -24 q 75 235 75 104 l 75 533 q 65 589 75 571 q 32 617 56 607 l 76 757 q 181 728 140 751 q 243 654 221 704 q 442 761 313 761 q 601 698 542 761 q 660 531 660 635 q 578 346 660 410 q 343 282 497 282 l 285 282 l 285 247 q 308 156 285 182 q 392 131 332 131 m 378 608 q 324 590 349 608 q 285 539 300 572 l 285 401 l 324 401 q 419 428 389 401 q 450 513 450 456 q 431 584 450 560 q 378 608 413 608 z "},"æ":{"ha":1078,"x_min":31,"x_max":1044,"o":"m 1044 383 q 1040 306 1044 339 l 631 306 q 675 172 639 210 q 776 133 711 133 q 851 149 814 133 q 932 196 888 164 l 1019 79 q 757 -24 907 -24 q 601 9 668 -24 q 490 100 533 42 q 257 -24 404 -24 q 92 40 153 -24 q 31 207 31 104 q 114 388 31 325 q 356 451 197 451 l 414 451 l 414 488 q 390 580 414 554 q 307 606 367 606 q 133 568 239 606 l 86 707 q 340 761 217 761 q 464 738 415 761 q 543 668 513 714 q 750 761 622 761 q 965 663 885 761 q 1044 383 1044 564 m 838 444 q 736 618 838 618 q 661 576 688 618 q 629 435 635 535 l 838 435 l 838 444 m 322 129 q 435 219 385 129 q 418 329 419 272 l 418 331 l 376 331 q 282 304 313 331 q 251 221 251 278 q 322 129 251 129 z "},"ǽ":{"ha":1078,"x_min":31,"x_max":1044,"o":"m 1044 383 q 1040 306 1044 339 l 631 306 q 675 172 639 210 q 776 133 711 133 q 851 149 814 133 q 932 196 888 164 l 1019 79 q 757 -24 907 -24 q 601 9 668 -24 q 490 100 533 42 q 257 -24 404 -24 q 92 40 153 -24 q 31 207 31 104 q 114 388 31 325 q 356 451 197 451 l 414 451 l 414 488 q 390 580 414 554 q 307 606 367 606 q 133 568 239 606 l 86 707 q 340 761 217 761 q 464 738 415 761 q 543 668 513 714 q 750 761 622 761 q 965 663 885 761 q 1044 383 1044 564 m 838 444 q 736 618 838 618 q 661 576 688 618 q 629 435 635 535 l 838 435 l 838 444 m 322 129 q 435 219 385 129 q 418 329 419 272 l 418 331 l 376 331 q 282 304 313 331 q 251 221 251 278 q 322 129 251 129 m 626 1153 l 710 996 l 408 865 l 350 971 l 626 1153 z "},"ǣ":{"ha":1078,"x_min":31,"x_max":1044,"o":"m 1044 383 q 1040 306 1044 339 l 631 306 q 675 172 639 210 q 776 133 711 133 q 851 149 814 133 q 932 196 888 164 l 1019 79 q 757 -24 907 -24 q 601 9 668 -24 q 490 100 533 42 q 257 -24 404 -24 q 92 40 153 -24 q 31 207 31 104 q 114 388 31 325 q 356 451 197 451 l 414 451 l 414 488 q 390 580 414 554 q 307 606 367 606 q 133 568 239 606 l 86 707 q 340 761 217 761 q 464 738 415 761 q 543 668 513 714 q 750 761 622 761 q 965 663 885 761 q 1044 383 1044 564 m 838 444 q 736 618 838 618 q 661 576 688 618 q 629 435 635 535 l 838 435 l 838 444 m 322 129 q 435 219 385 129 q 418 329 419 272 l 418 331 l 376 331 q 282 304 313 331 q 251 221 251 278 q 322 129 251 129 m 733 913 l 344 913 l 344 1058 l 733 1058 l 733 913 z "},"b":{"ha":754,"x_min":72,"x_max":711,"o":"m 467 761 q 648 660 585 761 q 711 368 711 560 q 679 163 711 251 q 588 25 647 74 q 446 -24 528 -24 q 349 1 393 -24 q 272 69 304 25 l 263 0 l 72 0 l 72 1031 l 286 1053 l 286 665 q 364 735 317 710 q 467 761 411 761 m 383 132 q 463 185 435 132 q 490 368 490 239 q 465 555 490 506 q 393 604 440 604 q 335 582 363 604 q 286 521 308 560 l 286 201 q 383 132 325 132 z "},"ḃ":{"ha":754,"x_min":72,"x_max":711,"o":"m 467 761 q 648 660 585 761 q 711 368 711 560 q 679 163 711 251 q 588 25 647 74 q 446 -24 528 -24 q 349 1 393 -24 q 272 69 304 25 l 263 0 l 72 0 l 72 1031 l 286 1053 l 286 665 q 364 735 317 710 q 467 761 411 761 m 383 132 q 463 185 435 132 q 490 368 490 239 q 465 555 490 506 q 393 604 440 604 q 335 582 363 604 q 286 521 308 560 l 286 201 q 383 132 325 132 m 401 1365 q 491 1331 456 1365 q 526 1244 526 1296 q 491 1157 526 1192 q 401 1122 456 1122 q 313 1157 347 1122 q 278 1244 278 1192 q 313 1331 278 1296 q 401 1365 347 1365 z "},"ḅ":{"ha":754,"x_min":72,"x_max":711,"o":"m 467 761 q 648 660 585 761 q 711 368 711 560 q 679 163 711 251 q 588 25 647 74 q 446 -24 528 -24 q 349 1 393 -24 q 272 69 304 25 l 263 0 l 72 0 l 72 1031 l 286 1053 l 286 665 q 364 735 317 710 q 467 761 411 761 m 383 132 q 463 185 435 132 q 490 368 490 239 q 465 555 490 506 q 393 604 440 604 q 335 582 363 604 q 286 521 308 560 l 286 201 q 383 132 325 132 m 390 -329 q 301 -294 336 -329 q 265 -208 265 -260 q 301 -121 265 -156 q 390 -86 336 -86 q 479 -121 444 -86 q 514 -208 514 -156 q 479 -294 514 -260 q 390 -329 444 -329 z "},"ꞵ":{"ha":768,"x_min":72,"x_max":736,"o":"m 489 563 q 665 491 593 551 q 736 288 736 431 q 699 124 736 194 q 599 15 663 53 q 454 -24 535 -24 q 278 32 356 -24 l 278 -279 l 72 -308 l 72 758 q 156 976 72 900 q 374 1053 239 1053 q 588 981 510 1053 q 665 790 665 910 q 489 563 665 601 m 392 140 q 485 179 450 140 q 521 304 521 218 q 372 479 521 479 l 328 479 l 340 625 l 367 625 q 434 661 410 625 q 458 772 458 697 q 435 872 458 842 q 369 903 413 903 q 301 869 324 903 q 278 760 278 836 l 278 171 q 392 140 326 140 z "},"ɓ":{"ha":754,"x_min":72,"x_max":711,"o":"m 465 761 q 648 660 585 761 q 711 368 711 560 q 679 163 711 251 q 588 25 647 74 q 446 -24 528 -24 q 349 1 393 -24 q 272 69 304 25 l 263 0 l 72 0 l 72 813 q 140 985 72 918 q 336 1053 208 1053 q 522 1007 440 1053 l 463 871 q 364 894 414 894 q 304 874 322 894 q 286 806 286 853 l 286 665 q 364 735 317 710 q 465 761 411 761 m 383 132 q 463 185 435 132 q 490 368 490 239 q 465 555 490 506 q 393 604 440 604 q 335 582 363 604 q 286 521 308 560 l 286 201 q 383 132 325 132 z "},"ʭ":{"ha":471,"x_min":42,"x_max":429,"o":"m 42 556 l 42 783 l 429 783 l 429 556 l 304 556 l 304 672 l 167 672 l 167 556 l 42 556 m 42 0 l 42 228 l 429 228 l 429 0 l 304 0 l 304 117 l 167 117 l 167 0 l 42 0 z "},"ʘ":{"ha":1011,"x_min":42,"x_max":968,"o":"m 506 986 q 749 926 644 986 q 910 753 853 867 q 968 482 968 639 q 910 215 968 329 q 748 39 853 101 q 506 -24 643 -24 q 263 37 368 -24 q 99 211 157 97 q 42 482 42 325 q 100 748 42 633 q 263 924 158 863 q 506 986 368 986 m 507 838 q 251 482 251 838 q 507 125 251 125 q 696 210 631 125 q 761 482 761 296 q 692 751 761 664 q 507 838 624 838 m 508 582 q 588 552 557 582 q 618 476 618 522 q 588 400 618 431 q 508 369 557 369 q 431 400 461 369 q 400 476 400 431 q 431 551 400 521 q 508 582 461 582 z "},"ʬ":{"ha":586,"x_min":38,"x_max":549,"o":"m 549 926 l 474 556 l 340 556 l 297 826 l 251 556 l 119 556 l 38 926 l 139 926 l 189 639 l 239 926 l 360 926 l 407 638 l 454 926 l 549 926 m 549 371 l 474 0 l 340 0 l 297 271 l 251 0 l 119 0 l 38 371 l 139 371 l 189 83 l 239 371 l 360 371 l 407 82 l 454 371 l 549 371 z "},"ƀ":{"ha":763,"x_min":8,"x_max":719,"o":"m 475 761 q 656 660 593 761 q 719 368 719 560 q 688 163 719 251 q 596 25 656 74 q 454 -24 536 -24 q 357 1 401 -24 q 281 69 313 25 l 271 0 l 81 0 l 81 829 l 8 829 l 8 956 l 81 956 l 81 1031 l 294 1053 l 294 956 l 457 956 l 457 829 l 294 829 l 294 665 q 372 735 325 710 q 475 761 419 761 m 392 132 q 471 185 443 132 q 499 368 499 239 q 474 555 499 506 q 401 604 449 604 q 344 582 371 604 q 294 521 317 560 l 294 201 q 392 132 333 132 z "},"ƃ":{"ha":754,"x_min":72,"x_max":711,"o":"m 465 754 q 648 654 585 754 q 711 365 711 554 q 679 162 711 250 q 588 25 647 74 q 446 -24 528 -24 q 349 1 393 -24 q 272 69 304 25 l 263 0 l 72 0 l 72 1031 l 558 1031 l 535 878 l 286 878 l 286 658 q 364 728 317 703 q 465 754 411 754 m 383 132 q 463 185 435 132 q 490 365 490 239 q 465 548 490 499 q 393 597 440 597 q 335 575 363 597 q 286 514 308 553 l 286 201 q 383 132 325 132 z "},"c":{"ha":606,"x_min":40,"x_max":604,"o":"m 375 761 q 500 739 444 761 q 604 671 556 717 l 515 549 q 454 585 483 574 q 392 597 425 597 q 296 544 328 597 q 264 364 264 492 q 297 193 264 242 q 390 144 329 144 q 449 155 422 144 q 511 190 475 165 l 604 64 q 378 -24 508 -24 q 130 78 219 -24 q 40 363 40 179 q 81 574 40 483 q 198 713 122 664 q 375 761 274 761 z "},"ć":{"ha":606,"x_min":40,"x_max":604,"o":"m 375 761 q 500 739 444 761 q 604 671 556 717 l 515 549 q 454 585 483 574 q 392 597 425 597 q 296 544 328 597 q 264 364 264 492 q 297 193 264 242 q 390 144 329 144 q 449 155 422 144 q 511 190 475 165 l 604 64 q 378 -24 508 -24 q 130 78 219 -24 q 40 363 40 179 q 81 574 40 483 q 198 713 122 664 q 375 761 274 761 m 460 1153 l 543 996 l 242 865 l 183 971 l 460 1153 z "},"č":{"ha":606,"x_min":40,"x_max":614,"o":"m 375 761 q 500 739 444 761 q 604 671 556 717 l 515 549 q 454 585 483 574 q 392 597 425 597 q 296 544 328 597 q 264 364 264 492 q 297 193 264 242 q 390 144 329 144 q 449 155 422 144 q 511 190 475 165 l 604 64 q 378 -24 508 -24 q 130 78 219 -24 q 40 363 40 179 q 81 574 40 483 q 198 713 122 664 q 375 761 274 761 m 540 1125 l 614 1042 l 436 850 l 307 850 l 129 1042 l 204 1125 l 372 997 l 540 1125 z "},"ç":{"ha":606,"x_min":40,"x_max":604,"o":"m 604 64 q 414 -22 524 -10 l 414 -71 q 513 -113 479 -79 q 546 -204 546 -147 q 494 -319 546 -275 q 354 -362 443 -362 q 208 -321 269 -362 l 257 -225 q 338 -246 296 -246 q 394 -203 394 -246 q 366 -166 394 -178 q 278 -154 338 -154 l 294 -15 q 107 108 174 10 q 40 363 40 206 q 81 574 40 483 q 198 713 122 664 q 375 761 274 761 q 500 739 444 761 q 604 671 556 717 l 515 549 q 454 585 483 574 q 392 597 425 597 q 296 544 328 597 q 264 364 264 492 q 297 193 264 242 q 390 144 329 144 q 449 155 422 144 q 511 190 475 165 l 604 64 z "},"ĉ":{"ha":606,"x_min":40,"x_max":614,"o":"m 375 761 q 500 739 444 761 q 604 671 556 717 l 515 549 q 454 585 483 574 q 392 597 425 597 q 296 544 328 597 q 264 364 264 492 q 297 193 264 242 q 390 144 329 144 q 449 155 422 144 q 511 190 475 165 l 604 64 q 378 -24 508 -24 q 130 78 219 -24 q 40 363 40 179 q 81 574 40 483 q 198 713 122 664 q 375 761 274 761 m 204 865 l 129 947 l 307 1139 l 436 1139 l 614 947 l 539 865 l 372 993 l 204 865 z "},"ɕ":{"ha":636,"x_min":40,"x_max":632,"o":"m 469 350 q 586 306 540 350 q 632 186 632 263 q 564 31 632 85 q 392 -24 496 -24 q 303 -14 344 -24 l 261 -117 l 158 -75 l 203 25 q 82 158 124 71 q 40 363 40 246 q 81 574 40 483 q 198 713 122 664 q 375 761 274 761 q 500 739 444 761 q 604 671 556 717 l 514 549 q 392 597 456 597 q 296 544 328 597 q 264 364 264 492 q 288 206 264 265 q 360 316 315 282 q 469 350 406 350 m 418 131 q 469 146 451 131 q 488 192 488 161 q 451 236 488 236 q 406 214 426 236 q 365 138 386 192 q 418 131 396 131 z "},"ċ":{"ha":606,"x_min":40,"x_max":604,"o":"m 375 761 q 500 739 444 761 q 604 671 556 717 l 515 549 q 454 585 483 574 q 392 597 425 597 q 296 544 328 597 q 264 364 264 492 q 297 193 264 242 q 390 144 329 144 q 449 155 422 144 q 511 190 475 165 l 604 64 q 378 -24 508 -24 q 130 78 219 -24 q 40 363 40 179 q 81 574 40 483 q 198 713 122 664 q 375 761 274 761 m 371 1122 q 460 1088 425 1122 q 496 1001 496 1053 q 460 914 496 949 q 371 879 425 879 q 282 914 317 879 q 247 1001 247 949 q 282 1088 247 1053 q 371 1122 317 1122 z "},"ƈ":{"ha":606,"x_min":40,"x_max":808,"o":"m 635 1053 q 808 1001 731 1053 l 749 871 q 707 889 725 883 q 667 894 689 894 q 619 876 635 894 q 604 817 604 858 l 604 671 l 521 557 q 393 597 460 597 q 296 544 328 597 q 264 364 264 492 q 297 193 264 242 q 390 144 329 144 q 449 155 422 144 q 511 190 475 165 l 604 64 q 378 -24 508 -24 q 130 78 219 -24 q 40 363 40 179 q 80 572 40 482 q 190 712 119 663 q 349 761 260 761 q 418 751 379 761 l 418 833 q 475 996 418 939 q 635 1053 532 1053 z "},"ʗ":{"ha":624,"x_min":51,"x_max":624,"o":"m 401 761 q 624 671 529 761 l 535 549 q 414 596 472 596 q 310 512 344 596 q 275 222 275 428 q 308 -58 275 21 q 408 -136 342 -136 q 467 -126 440 -136 q 528 -92 494 -115 l 621 -219 q 399 -307 522 -307 q 140 -173 229 -307 q 51 222 51 -39 q 143 622 51 483 q 401 761 235 761 z "},"ȼ":{"ha":606,"x_min":40,"x_max":604,"o":"m 390 144 q 449 155 422 144 q 511 190 475 165 l 604 64 q 378 -24 508 -24 q 319 -19 349 -24 l 300 -103 l 229 -86 l 250 -3 q 94 127 149 33 q 40 363 40 221 q 81 574 40 483 q 198 713 122 664 q 375 761 274 761 q 433 757 404 761 l 451 833 l 521 818 l 501 738 q 604 671 556 715 l 515 549 q 464 582 488 571 l 360 147 q 390 144 379 144 m 264 364 q 297 193 264 246 l 394 597 l 392 597 q 296 544 328 597 q 264 364 264 492 z "},"d":{"ha":757,"x_min":43,"x_max":683,"o":"m 683 1031 l 683 0 l 494 0 l 485 82 q 297 -24 414 -24 q 108 80 174 -24 q 43 369 43 183 q 77 575 43 486 q 173 713 111 664 q 315 761 235 761 q 469 693 408 761 l 469 1053 l 683 1031 m 365 133 q 422 152 397 133 q 469 210 447 171 l 469 544 q 426 590 447 575 q 375 604 404 604 q 264 369 264 604 q 290 185 264 238 q 365 133 317 133 z "},"ð":{"ha":739,"x_min":40,"x_max":692,"o":"m 456 929 q 638 700 583 832 q 692 385 692 568 q 653 175 692 268 q 540 29 614 82 q 361 -24 465 -24 q 197 17 269 -24 q 82 138 124 58 q 40 325 40 217 q 75 500 40 422 q 169 622 110 578 q 300 665 228 665 q 390 649 351 665 q 464 600 429 632 q 417 718 446 668 q 339 811 389 768 l 269 733 l 138 796 l 217 882 q 101 914 167 899 l 142 1051 q 326 1000 231 1038 l 419 1106 l 531 1017 l 456 929 m 364 133 q 448 185 421 133 q 475 347 475 236 l 474 456 q 363 515 429 515 q 281 468 307 515 q 256 328 256 421 q 283 178 256 224 q 364 133 311 133 z "},"ȸ":{"ha":1101,"x_min":43,"x_max":1058,"o":"m 832 761 q 999 661 940 761 q 1058 368 1058 561 q 1027 160 1058 249 q 938 24 996 72 q 804 -24 881 -24 q 716 3 757 -24 q 646 78 675 31 l 635 0 l 469 0 l 458 82 q 283 -24 389 -24 q 106 80 168 -24 q 43 369 43 183 q 75 577 43 489 q 164 713 107 665 q 294 761 221 761 q 378 739 339 761 q 446 675 417 717 l 446 1031 l 660 1053 l 660 667 q 734 736 690 711 q 832 761 778 761 m 351 133 q 446 207 400 133 l 446 540 q 358 604 407 604 q 264 369 264 604 q 287 184 264 235 q 351 133 310 133 m 746 133 q 838 368 838 133 q 815 553 838 504 q 751 603 792 603 q 660 533 699 603 l 660 204 q 698 151 678 169 q 746 133 718 133 z "},"ď":{"ha":882,"x_min":43,"x_max":918,"o":"m 683 1031 l 683 0 l 494 0 l 485 82 q 297 -24 414 -24 q 108 80 174 -24 q 43 369 43 183 q 77 575 43 486 q 173 713 111 664 q 315 761 235 761 q 469 693 408 761 l 469 1053 l 683 1031 m 365 133 q 422 152 397 133 q 469 210 447 171 l 469 544 q 426 590 447 575 q 375 604 404 604 q 264 369 264 604 q 290 185 264 238 q 365 133 317 133 m 849 733 l 918 1031 l 761 1053 l 731 751 l 849 733 z "},"ḓ":{"ha":757,"x_min":43,"x_max":683,"o":"m 683 1031 l 683 0 l 494 0 l 485 82 q 297 -24 414 -24 q 108 80 174 -24 q 43 369 43 183 q 77 575 43 486 q 173 713 111 664 q 315 761 235 761 q 469 693 408 761 l 469 1053 l 683 1031 m 365 133 q 422 152 397 133 q 469 210 447 171 l 469 544 q 426 590 447 575 q 375 604 404 604 q 264 369 264 604 q 290 185 264 238 q 365 133 317 133 m 218 -361 l 143 -279 l 321 -87 l 450 -87 l 628 -279 l 553 -361 l 386 -235 l 218 -361 z "},"đ":{"ha":765,"x_min":43,"x_max":757,"o":"m 757 956 l 757 829 l 683 829 l 683 0 l 494 0 l 485 82 q 297 -24 414 -24 q 108 80 174 -24 q 43 369 43 183 q 77 575 43 486 q 173 713 111 664 q 315 761 235 761 q 469 693 408 761 l 469 829 l 304 829 l 304 956 l 469 956 l 469 1053 l 683 1031 l 683 956 l 757 956 m 365 133 q 422 152 397 133 q 469 210 447 171 l 469 544 q 426 590 447 575 q 375 604 404 604 q 264 369 264 604 q 290 185 264 238 q 365 133 317 133 z "},"ȡ":{"ha":997,"x_min":43,"x_max":1007,"o":"m 856 338 q 964 295 921 338 q 1007 179 1007 253 q 939 28 1007 79 q 763 -24 871 -24 q 703 -19 732 -24 l 663 -117 l 563 -75 l 600 11 q 504 103 538 44 q 297 -24 425 -24 q 108 80 174 -24 q 43 369 43 183 q 77 575 43 486 q 174 713 111 664 q 318 761 236 761 q 469 693 408 761 l 469 1053 l 683 1031 l 683 247 q 686 201 683 226 q 758 306 718 274 q 856 338 797 338 m 365 133 q 471 213 426 133 q 469 253 469 226 l 469 544 q 426 590 447 575 q 376 604 404 604 q 264 369 264 604 q 290 185 264 238 q 365 133 317 133 m 793 131 q 861 186 861 131 q 832 222 861 222 q 798 203 813 222 q 763 132 783 185 q 793 131 772 131 z "},"ḋ":{"ha":757,"x_min":43,"x_max":683,"o":"m 683 1031 l 683 0 l 494 0 l 485 82 q 297 -24 414 -24 q 108 80 174 -24 q 43 369 43 183 q 77 575 43 486 q 173 713 111 664 q 315 761 235 761 q 469 693 408 761 l 469 1053 l 683 1031 m 365 133 q 422 152 397 133 q 469 210 447 171 l 469 544 q 426 590 447 575 q 375 604 404 604 q 264 369 264 604 q 290 185 264 238 q 365 133 317 133 m 372 1365 q 462 1331 426 1365 q 497 1244 497 1296 q 462 1157 497 1192 q 372 1122 426 1122 q 283 1157 318 1122 q 249 1244 249 1192 q 283 1331 249 1296 q 372 1365 318 1365 z "},"ḍ":{"ha":757,"x_min":43,"x_max":683,"o":"m 683 1031 l 683 0 l 494 0 l 485 82 q 297 -24 414 -24 q 108 80 174 -24 q 43 369 43 183 q 77 575 43 486 q 173 713 111 664 q 315 761 235 761 q 469 693 408 761 l 469 1053 l 683 1031 m 365 133 q 422 152 397 133 q 469 210 447 171 l 469 544 q 426 590 447 575 q 375 604 404 604 q 264 369 264 604 q 290 185 264 238 q 365 133 317 133 m 389 -329 q 299 -294 335 -329 q 264 -208 264 -260 q 299 -121 264 -156 q 389 -86 335 -86 q 478 -121 443 -86 q 513 -208 513 -156 q 478 -294 513 -260 q 389 -329 443 -329 z "},"ƍ":{"ha":733,"x_min":40,"x_max":693,"o":"m 693 407 q 500 101 693 196 q 600 13 574 58 q 626 -94 626 -32 q 556 -249 626 -187 q 349 -310 486 -310 q 213 -287 275 -310 q 106 -226 151 -264 l 199 -115 q 265 -149 233 -137 q 335 -160 297 -160 q 401 -141 379 -160 q 422 -92 422 -122 q 414 -51 422 -67 q 380 -18 406 -35 q 301 24 354 -1 q 101 169 161 88 q 40 389 40 251 q 128 663 40 564 q 367 761 215 761 q 607 670 521 761 q 693 407 693 579 m 261 388 q 272 283 261 322 q 310 215 282 244 q 393 157 338 186 q 456 257 439 200 q 475 400 474 314 q 450 558 475 511 q 368 604 425 604 q 287 556 313 604 q 261 388 261 507 z "},"ʤ":{"ha":1293,"x_min":43,"x_max":1274,"o":"m 1001 293 q 1274 13 1274 274 q 1233 -152 1274 -79 q 1115 -266 1192 -225 q 932 -307 1038 -307 q 631 -167 738 -307 l 743 -60 q 828 -125 789 -106 q 918 -144 868 -144 q 1019 -103 983 -144 q 1054 22 1054 -61 q 1017 134 1054 100 q 900 168 979 168 l 786 168 l 786 293 l 1000 578 l 683 578 l 683 0 l 494 0 l 485 82 q 297 -24 414 -24 q 108 80 174 -24 q 43 369 43 183 q 77 575 43 486 q 173 713 111 664 q 315 761 235 761 q 469 693 408 761 l 469 1053 l 683 1031 l 683 738 l 1232 738 l 1232 590 l 1001 293 m 365 133 q 422 152 397 133 q 469 210 447 171 l 469 544 q 426 590 447 575 q 375 604 404 604 q 264 369 264 604 q 290 185 264 238 q 365 133 317 133 z "},"ɗ":{"ha":757,"x_min":43,"x_max":888,"o":"m 714 1053 q 888 1001 810 1053 l 828 871 q 786 889 804 883 q 746 894 768 894 q 699 876 714 894 q 683 817 683 858 l 683 0 l 494 0 l 485 82 q 297 -24 414 -24 q 108 80 172 -24 q 43 369 43 183 q 77 575 43 486 q 174 713 111 664 q 318 761 236 761 q 469 693 408 761 l 469 811 q 533 988 469 922 q 714 1053 596 1053 m 365 133 q 422 152 397 133 q 469 210 447 171 l 469 544 q 426 590 447 575 q 376 604 404 604 q 264 369 264 604 q 290 185 264 238 q 365 133 317 133 z "},"ḏ":{"ha":757,"x_min":43,"x_max":683,"o":"m 683 1031 l 683 0 l 494 0 l 485 82 q 297 -24 414 -24 q 108 80 174 -24 q 43 369 43 183 q 77 575 43 486 q 173 713 111 664 q 315 761 235 761 q 469 693 408 761 l 469 1053 l 683 1031 m 365 133 q 422 152 397 133 q 469 210 447 171 l 469 544 q 426 590 447 575 q 375 604 404 604 q 264 369 264 604 q 290 185 264 238 q 365 133 317 133 m 582 -262 l 193 -262 l 193 -117 l 582 -117 l 582 -262 z "},"ɖ":{"ha":757,"x_min":43,"x_max":911,"o":"m 911 -249 q 724 -307 836 -307 q 540 -244 610 -307 q 469 -61 469 -181 l 469 61 q 297 -24 401 -24 q 108 80 172 -24 q 43 369 43 183 q 77 575 43 486 q 174 713 111 664 q 318 761 236 761 q 469 693 408 761 l 469 1053 l 683 1031 l 683 -75 q 701 -133 683 -114 q 751 -151 719 -151 q 794 -146 776 -151 q 838 -126 813 -140 l 911 -249 m 365 133 q 422 152 397 133 q 469 210 447 171 l 469 544 q 426 590 447 575 q 376 604 404 604 q 264 369 264 604 q 290 185 264 238 q 365 133 317 133 z "},"ƌ":{"ha":757,"x_min":43,"x_max":683,"o":"m 683 0 l 494 0 l 485 82 q 297 -24 414 -24 q 108 78 172 -24 q 43 361 43 181 q 77 560 43 474 q 174 696 111 647 q 318 744 236 744 q 469 676 408 744 l 469 878 l 211 878 l 211 1031 l 683 1031 l 683 0 m 365 133 q 422 152 397 133 q 469 210 447 171 l 469 528 q 426 573 447 558 q 376 588 404 588 q 294 533 324 588 q 264 361 264 479 q 290 184 264 235 q 365 133 317 133 z "},"ǳ":{"ha":1338,"x_min":43,"x_max":1319,"o":"m 683 1031 l 683 0 l 494 0 l 485 82 q 297 -24 414 -24 q 108 80 174 -24 q 43 369 43 183 q 77 575 43 486 q 173 713 111 664 q 315 761 235 761 q 469 693 408 761 l 469 1053 l 683 1031 m 365 133 q 422 152 397 133 q 469 210 447 171 l 469 544 q 426 590 447 575 q 375 604 404 604 q 264 369 264 604 q 290 185 264 238 q 365 133 317 133 m 1313 738 l 1313 586 l 1011 163 l 1319 163 l 1300 0 l 772 0 l 772 151 l 1074 576 l 797 576 l 797 738 l 1313 738 z "},"ʣ":{"ha":1243,"x_min":43,"x_max":1225,"o":"m 1225 163 l 1206 0 l 494 0 l 485 82 q 297 -24 414 -24 q 108 80 174 -24 q 43 369 43 183 q 77 575 43 486 q 173 713 111 664 q 315 761 235 761 q 469 693 408 761 l 469 1053 l 683 1031 l 683 738 l 1218 738 l 1218 586 l 911 163 l 1225 163 m 365 133 q 422 152 397 133 q 469 210 447 171 l 469 544 q 426 590 447 575 q 375 604 404 604 q 264 369 264 604 q 290 185 264 238 q 365 133 317 133 m 683 576 l 683 158 l 985 576 l 683 576 z "},"ǆ":{"ha":1338,"x_min":43,"x_max":1319,"o":"m 683 1031 l 683 0 l 494 0 l 485 82 q 297 -24 414 -24 q 108 80 174 -24 q 43 369 43 183 q 77 575 43 486 q 173 713 111 664 q 315 761 235 761 q 469 693 408 761 l 469 1053 l 683 1031 m 365 133 q 422 152 397 133 q 469 210 447 171 l 469 544 q 426 590 447 575 q 375 604 404 604 q 264 369 264 604 q 290 185 264 238 q 365 133 317 133 m 1313 738 l 1313 586 l 1011 163 l 1319 163 l 1300 0 l 772 0 l 772 151 l 1074 576 l 797 576 l 797 738 l 1313 738 m 1221 1125 l 1294 1042 l 1117 850 l 988 850 l 810 1042 l 885 1125 l 1053 997 l 1221 1125 z "},"ʥ":{"ha":1367,"x_min":43,"x_max":1388,"o":"m 1226 365 q 1342 322 1297 365 q 1388 203 1388 279 q 1117 0 1388 -1 q 1110 -178 1110 -51 l 990 -178 q 999 0 990 -79 l 494 0 l 485 82 q 297 -24 414 -24 q 108 80 174 -24 q 43 369 43 183 q 77 575 43 486 q 173 713 111 664 q 315 761 235 761 q 469 693 408 761 l 469 1053 l 683 1031 l 683 738 l 1217 738 l 1217 594 l 908 163 l 1021 163 q 1100 317 1049 269 q 1226 365 1151 365 m 365 133 q 422 152 397 133 q 469 210 447 171 l 469 544 q 426 590 447 575 q 375 604 404 604 q 264 369 264 604 q 290 185 264 238 q 365 133 317 133 m 683 576 l 683 161 l 982 576 l 683 576 m 1151 163 q 1222 174 1200 163 q 1243 214 1243 185 q 1208 251 1243 251 q 1167 231 1185 251 q 1140 163 1150 210 l 1151 163 m 1119 17 l 1121 25 l 1119 22 l 1119 17 z "},"e":{"ha":704,"x_min":40,"x_max":671,"o":"m 671 383 q 667 306 671 339 l 256 306 q 299 171 264 208 q 397 133 333 133 q 476 149 439 133 q 558 196 514 164 l 646 78 q 381 -24 532 -24 q 127 80 214 -24 q 40 365 40 183 q 124 652 40 543 q 358 761 207 761 q 588 663 504 761 q 671 383 671 565 m 461 444 q 438 576 461 532 q 361 619 415 619 q 286 578 313 619 q 254 435 260 538 l 461 435 l 461 444 z "},"é":{"ha":704,"x_min":40,"x_max":671,"o":"m 671 383 q 667 306 671 339 l 256 306 q 299 171 264 208 q 397 133 333 133 q 476 149 439 133 q 558 196 514 164 l 646 78 q 381 -24 532 -24 q 127 80 214 -24 q 40 365 40 183 q 124 652 40 543 q 358 761 207 761 q 588 663 504 761 q 671 383 671 565 m 461 444 q 438 576 461 532 q 361 619 415 619 q 286 578 313 619 q 254 435 260 538 l 461 435 l 461 444 m 449 1153 l 532 996 l 231 865 l 172 971 l 449 1153 z "},"ĕ":{"ha":704,"x_min":40,"x_max":671,"o":"m 671 383 q 667 306 671 339 l 256 306 q 299 171 264 208 q 397 133 333 133 q 476 149 439 133 q 558 196 514 164 l 646 78 q 381 -24 532 -24 q 127 80 214 -24 q 40 365 40 183 q 124 652 40 543 q 358 761 207 761 q 588 663 504 761 q 671 383 671 565 m 461 444 q 438 576 461 532 q 361 619 415 619 q 286 578 313 619 q 254 435 260 538 l 461 435 l 461 444 m 360 879 q 203 944 260 879 q 140 1115 147 1008 l 256 1136 q 360 1026 281 1026 q 428 1055 401 1026 q 465 1136 454 1083 l 581 1115 q 517 944 574 1008 q 360 879 460 879 z "},"ě":{"ha":704,"x_min":40,"x_max":671,"o":"m 671 383 q 667 306 671 339 l 256 306 q 299 171 264 208 q 397 133 333 133 q 476 149 439 133 q 558 196 514 164 l 646 78 q 381 -24 532 -24 q 127 80 214 -24 q 40 365 40 183 q 124 652 40 543 q 358 761 207 761 q 588 663 504 761 q 671 383 671 565 m 461 444 q 438 576 461 532 q 361 619 415 619 q 286 578 313 619 q 254 435 260 538 l 461 435 l 461 444 m 529 1125 l 603 1042 l 425 850 l 296 850 l 118 1042 l 193 1125 l 361 997 l 529 1125 z "},"ȩ":{"ha":704,"x_min":40,"x_max":671,"o":"m 671 383 q 667 306 671 339 l 256 306 q 299 171 264 208 q 397 133 333 133 q 476 149 439 133 q 558 196 514 164 l 646 78 q 433 -21 553 -6 l 433 -71 q 532 -113 499 -79 q 565 -204 565 -147 q 514 -319 565 -275 q 374 -362 463 -362 q 228 -321 289 -362 l 276 -225 q 357 -246 315 -246 q 414 -203 414 -246 q 385 -166 414 -178 q 297 -154 357 -154 l 314 -18 q 110 103 179 3 q 40 365 40 204 q 124 652 40 543 q 358 761 207 761 q 588 663 504 761 q 671 383 671 565 m 461 444 q 438 576 461 532 q 361 619 415 619 q 286 578 313 619 q 254 435 260 538 l 461 435 l 461 444 z "},"ê":{"ha":704,"x_min":40,"x_max":671,"o":"m 671 383 q 667 306 671 339 l 256 306 q 299 171 264 208 q 397 133 333 133 q 476 149 439 133 q 558 196 514 164 l 646 78 q 381 -24 532 -24 q 127 80 214 -24 q 40 365 40 183 q 124 652 40 543 q 358 761 207 761 q 588 663 504 761 q 671 383 671 565 m 461 444 q 438 576 461 532 q 361 619 415 619 q 286 578 313 619 q 254 435 260 538 l 461 435 l 461 444 m 193 865 l 118 947 l 296 1139 l 425 1139 l 603 947 l 528 865 l 361 993 l 193 865 z "},"ế":{"ha":704,"x_min":40,"x_max":779,"o":"m 671 383 q 667 306 671 339 l 256 306 q 299 171 264 208 q 397 133 333 133 q 476 149 439 133 q 558 196 514 164 l 646 78 q 381 -24 532 -24 q 127 80 214 -24 q 40 365 40 183 q 124 652 40 543 q 358 761 207 761 q 588 663 504 761 q 671 383 671 565 m 461 444 q 438 576 461 532 q 361 619 415 619 q 286 578 313 619 q 254 435 260 538 l 461 435 l 461 444 m 192 817 l 117 897 l 296 1079 l 424 1079 l 601 897 l 528 817 l 360 932 l 192 817 m 658 1324 l 779 1214 l 571 1015 l 489 1086 l 658 1324 z "},"ệ":{"ha":704,"x_min":40,"x_max":671,"o":"m 671 383 q 667 306 671 339 l 256 306 q 299 171 264 208 q 397 133 333 133 q 476 149 439 133 q 558 196 514 164 l 646 78 q 381 -24 532 -24 q 127 80 214 -24 q 40 365 40 183 q 124 652 40 543 q 358 761 207 761 q 588 663 504 761 q 671 383 671 565 m 461 444 q 438 576 461 532 q 361 619 415 619 q 286 578 313 619 q 254 435 260 538 l 461 435 l 461 444 m 193 865 l 118 947 l 296 1139 l 425 1139 l 603 947 l 528 865 l 361 993 l 193 865 m 375 -329 q 285 -294 321 -329 q 250 -208 250 -260 q 285 -121 250 -156 q 375 -86 321 -86 q 464 -121 429 -86 q 499 -208 499 -156 q 464 -294 499 -260 q 375 -329 429 -329 z "},"ề":{"ha":704,"x_min":-60,"x_max":671,"o":"m 671 383 q 667 306 671 339 l 256 306 q 299 171 264 208 q 397 133 333 133 q 476 149 439 133 q 558 196 514 164 l 646 78 q 381 -24 532 -24 q 127 80 214 -24 q 40 365 40 183 q 124 652 40 543 q 358 761 207 761 q 588 663 504 761 q 671 383 671 565 m 461 444 q 438 576 461 532 q 361 619 415 619 q 286 578 313 619 q 254 435 260 538 l 461 435 l 461 444 m 190 817 l 115 897 l 294 1079 l 422 1079 l 600 897 l 526 817 l 358 932 l 190 817 m 61 1324 l 232 1086 l 149 1015 l -60 1214 l 61 1324 z "},"ể":{"ha":704,"x_min":40,"x_max":722,"o":"m 671 383 q 667 306 671 339 l 256 306 q 299 171 264 208 q 397 133 333 133 q 476 149 439 133 q 558 196 514 164 l 646 78 q 381 -24 532 -24 q 127 80 214 -24 q 40 365 40 183 q 124 652 40 543 q 358 761 207 761 q 588 663 504 761 q 671 383 671 565 m 461 444 q 438 576 461 532 q 361 619 415 619 q 286 578 313 619 q 254 435 260 538 l 461 435 l 461 444 m 192 817 l 117 897 l 296 1079 l 424 1079 l 601 897 l 528 817 l 360 932 l 192 817 m 493 1181 q 562 1195 542 1183 q 582 1235 582 1207 q 569 1267 582 1256 q 533 1278 556 1278 q 497 1274 513 1278 q 457 1261 481 1269 l 424 1350 q 564 1385 482 1385 q 681 1347 639 1385 q 722 1246 722 1308 q 695 1159 722 1192 q 617 1117 668 1126 l 617 1043 l 493 1043 l 493 1181 z "},"ễ":{"ha":704,"x_min":40,"x_max":671,"o":"m 671 383 q 667 306 671 339 l 256 306 q 299 171 264 208 q 397 133 333 133 q 476 149 439 133 q 558 196 514 164 l 646 78 q 381 -24 532 -24 q 127 80 214 -24 q 40 365 40 183 q 124 652 40 543 q 358 761 207 761 q 588 663 504 761 q 671 383 671 565 m 461 444 q 438 576 461 532 q 361 619 415 619 q 286 578 313 619 q 254 435 260 538 l 461 435 l 461 444 m 192 811 l 117 892 l 296 1074 l 424 1074 l 601 892 l 528 811 l 360 926 l 192 811 m 435 1114 q 388 1122 407 1114 q 340 1147 368 1131 q 313 1164 324 1158 q 289 1169 301 1169 q 253 1157 268 1169 q 222 1114 239 1144 l 119 1160 q 188 1267 144 1226 q 285 1308 231 1308 q 333 1300 313 1308 q 381 1275 354 1292 q 406 1260 393 1267 q 432 1254 419 1254 q 466 1267 451 1254 q 497 1307 481 1279 l 600 1261 q 532 1154 575 1194 q 435 1114 489 1114 z "},"ȅ":{"ha":704,"x_min":40,"x_max":671,"o":"m 671 383 q 667 306 671 339 l 256 306 q 299 171 264 208 q 397 133 333 133 q 476 149 439 133 q 558 196 514 164 l 646 78 q 381 -24 532 -24 q 127 80 214 -24 q 40 365 40 183 q 124 652 40 543 q 358 761 207 761 q 588 663 504 761 q 671 383 671 565 m 461 444 q 438 576 461 532 q 361 619 415 619 q 286 578 313 619 q 254 435 260 538 l 461 435 l 461 444 m 208 1190 l 332 919 l 226 869 l 71 1119 l 208 1190 m 433 1190 l 546 919 l 439 875 l 294 1124 l 433 1190 z "},"ë":{"ha":704,"x_min":40,"x_max":671,"o":"m 671 383 q 667 306 671 339 l 256 306 q 299 171 264 208 q 397 133 333 133 q 476 149 439 133 q 558 196 514 164 l 646 78 q 381 -24 532 -24 q 127 80 214 -24 q 40 365 40 183 q 124 652 40 543 q 358 761 207 761 q 588 663 504 761 q 671 383 671 565 m 461 444 q 438 576 461 532 q 361 619 415 619 q 286 578 313 619 q 254 435 260 538 l 461 435 l 461 444 m 213 1107 q 289 1076 258 1107 q 319 1000 319 1046 q 289 923 319 954 q 213 892 258 892 q 137 923 168 892 q 106 1000 106 954 q 137 1076 106 1044 q 213 1107 168 1107 m 507 1107 q 584 1076 553 1107 q 615 1000 615 1046 q 585 923 615 954 q 507 892 554 892 q 431 923 463 892 q 400 1000 400 954 q 431 1076 400 1044 q 507 1107 463 1107 z "},"ė":{"ha":704,"x_min":40,"x_max":671,"o":"m 671 383 q 667 306 671 339 l 256 306 q 299 171 264 208 q 397 133 333 133 q 476 149 439 133 q 558 196 514 164 l 646 78 q 381 -24 532 -24 q 127 80 214 -24 q 40 365 40 183 q 124 652 40 543 q 358 761 207 761 q 588 663 504 761 q 671 383 671 565 m 461 444 q 438 576 461 532 q 361 619 415 619 q 286 578 313 619 q 254 435 260 538 l 461 435 l 461 444 m 360 1122 q 449 1088 414 1122 q 485 1001 485 1053 q 449 914 485 949 q 360 879 414 879 q 271 914 306 879 q 236 1001 236 949 q 271 1088 236 1053 q 360 1122 306 1122 z "},"ẹ":{"ha":704,"x_min":40,"x_max":671,"o":"m 671 383 q 667 306 671 339 l 256 306 q 299 171 264 208 q 397 133 333 133 q 476 149 439 133 q 558 196 514 164 l 646 78 q 381 -24 532 -24 q 127 80 214 -24 q 40 365 40 183 q 124 652 40 543 q 358 761 207 761 q 588 663 504 761 q 671 383 671 565 m 461 444 q 438 576 461 532 q 361 619 415 619 q 286 578 313 619 q 254 435 260 538 l 461 435 l 461 444 m 375 -329 q 285 -294 321 -329 q 250 -208 250 -260 q 285 -121 250 -156 q 375 -86 321 -86 q 464 -121 429 -86 q 499 -208 499 -156 q 464 -294 499 -260 q 375 -329 429 -329 z "},"è":{"ha":704,"x_min":40,"x_max":671,"o":"m 671 383 q 667 306 671 339 l 256 306 q 299 171 264 208 q 397 133 333 133 q 476 149 439 133 q 558 196 514 164 l 646 78 q 381 -24 532 -24 q 127 80 214 -24 q 40 365 40 183 q 124 652 40 543 q 358 761 207 761 q 588 663 504 761 q 671 383 671 565 m 461 444 q 438 576 461 532 q 361 619 415 619 q 286 578 313 619 q 254 435 260 538 l 461 435 l 461 444 m 276 1153 l 553 971 l 494 865 l 193 996 l 276 1153 z "},"ẻ":{"ha":704,"x_min":40,"x_max":671,"o":"m 671 383 q 667 306 671 339 l 256 306 q 299 171 264 208 q 397 133 333 133 q 476 149 439 133 q 558 196 514 164 l 646 78 q 381 -24 532 -24 q 127 80 214 -24 q 40 365 40 183 q 124 652 40 543 q 358 761 207 761 q 588 663 504 761 q 671 383 671 565 m 461 444 q 438 576 461 532 q 361 619 415 619 q 286 578 313 619 q 254 435 260 538 l 461 435 l 461 444 m 300 978 q 369 992 349 981 q 389 1032 389 1004 q 376 1064 389 1053 q 340 1075 363 1075 q 303 1071 319 1075 q 264 1058 288 1067 l 231 1147 q 371 1182 289 1182 q 488 1144 446 1182 q 529 1043 529 1106 q 502 956 529 989 q 424 914 475 924 l 424 840 l 300 840 l 300 978 z "},"ȇ":{"ha":704,"x_min":40,"x_max":671,"o":"m 671 383 q 667 306 671 339 l 256 306 q 299 171 264 208 q 397 133 333 133 q 476 149 439 133 q 558 196 514 164 l 646 78 q 381 -24 532 -24 q 127 80 214 -24 q 40 365 40 183 q 124 652 40 543 q 358 761 207 761 q 588 663 504 761 q 671 383 671 565 m 461 444 q 438 576 461 532 q 361 619 415 619 q 286 578 313 619 q 254 435 260 538 l 461 435 l 461 444 m 360 1094 q 517 1030 460 1094 q 581 858 574 965 l 465 838 q 428 919 454 890 q 360 947 401 947 q 256 838 281 947 l 140 858 q 203 1030 147 965 q 360 1094 260 1094 z "},"ē":{"ha":704,"x_min":40,"x_max":671,"o":"m 671 383 q 667 306 671 339 l 256 306 q 299 171 264 208 q 397 133 333 133 q 476 149 439 133 q 558 196 514 164 l 646 78 q 381 -24 532 -24 q 127 80 214 -24 q 40 365 40 183 q 124 652 40 543 q 358 761 207 761 q 588 663 504 761 q 671 383 671 565 m 461 444 q 438 576 461 532 q 361 619 415 619 q 286 578 313 619 q 254 435 260 538 l 461 435 l 461 444 m 556 913 l 167 913 l 167 1058 l 556 1058 l 556 913 z "},"ę":{"ha":704,"x_min":40,"x_max":671,"o":"m 671 383 q 667 306 671 339 l 256 306 q 299 171 264 208 q 397 133 333 133 q 476 149 439 133 q 558 196 514 164 l 646 78 q 515 -1 588 26 q 399 -131 399 -57 q 415 -178 399 -161 q 464 -194 432 -194 q 540 -183 496 -194 l 526 -317 q 438 -328 485 -328 q 302 -283 356 -328 q 249 -167 249 -239 q 338 -22 249 -76 q 116 94 192 -8 q 40 365 40 196 q 124 652 40 543 q 358 761 207 761 q 588 663 504 761 q 671 383 671 565 m 461 444 q 438 576 461 532 q 361 619 415 619 q 286 578 313 619 q 254 435 260 538 l 461 435 l 461 444 z "},"ɛ":{"ha":610,"x_min":40,"x_max":610,"o":"m 336 761 q 590 679 483 761 l 507 569 q 435 602 468 592 q 367 613 403 613 q 303 592 326 613 q 281 532 281 571 q 304 471 281 493 q 372 449 328 449 l 453 449 l 432 311 l 363 311 q 285 288 308 311 q 261 221 261 265 q 365 129 261 129 q 439 142 403 129 q 521 183 475 154 l 610 65 q 488 0 558 24 q 332 -24 417 -24 q 122 36 203 -24 q 40 203 40 96 q 87 331 40 285 q 228 393 133 378 q 65 558 65 428 q 140 706 65 651 q 336 761 215 761 z "},"ʚ":{"ha":731,"x_min":40,"x_max":690,"o":"m 354 -24 q 126 39 211 -24 q 40 213 40 101 q 85 336 40 293 q 225 393 131 379 q 74 556 74 432 q 151 705 74 649 q 351 761 228 761 q 601 658 513 761 q 690 369 690 554 q 603 78 690 179 q 354 -24 517 -24 m 354 129 q 429 152 403 129 q 467 226 456 175 q 478 369 478 278 q 449 556 478 500 q 360 613 421 613 q 303 592 324 613 q 283 533 283 571 q 306 470 283 492 q 368 449 328 449 l 385 449 l 397 310 l 357 310 q 281 290 307 310 q 256 225 256 271 q 354 129 256 129 z "},"ɜ":{"ha":628,"x_min":1,"x_max":588,"o":"m 292 761 q 481 706 406 761 q 556 557 556 650 q 517 454 556 494 q 400 393 479 414 q 541 336 494 379 q 588 213 588 293 q 503 37 588 97 q 275 -24 418 -24 q 1 67 111 -24 l 100 182 q 181 141 144 153 q 261 129 217 129 q 367 224 367 129 q 338 290 367 269 q 253 311 310 311 l 158 311 l 169 449 l 238 449 q 339 536 339 449 q 316 594 339 575 q 254 613 293 613 q 185 601 217 613 q 118 565 153 589 l 21 675 q 292 761 132 761 z "},"ɞ":{"ha":731,"x_min":40,"x_max":690,"o":"m 376 -24 q 127 78 214 -24 q 40 369 40 179 q 129 658 40 554 q 379 761 218 761 q 580 705 503 761 q 657 556 657 649 q 506 393 657 432 q 645 336 600 379 q 690 213 690 293 q 605 39 690 101 q 376 -24 519 -24 m 376 129 q 475 225 475 129 q 449 290 475 271 q 374 310 424 310 l 333 310 l 346 449 l 363 449 q 425 470 403 449 q 447 533 447 492 q 427 592 447 571 q 371 613 407 613 q 281 556 310 613 q 253 369 253 500 q 264 226 253 278 q 301 152 275 175 q 376 129 328 129 z "},"ɝ":{"ha":983,"x_min":1,"x_max":1000,"o":"m 1000 479 q 842 426 935 426 q 704 469 754 426 q 644 586 654 513 l 642 604 l 556 550 q 400 393 551 432 q 541 336 494 379 q 588 213 588 293 q 503 37 588 97 q 275 -24 418 -24 q 1 67 111 -24 l 100 182 q 181 141 144 153 q 261 129 217 129 q 367 224 367 129 q 338 290 367 269 q 253 311 310 311 l 158 311 l 169 449 l 238 449 q 339 536 339 449 q 316 594 339 575 q 254 613 293 613 q 185 601 217 613 q 118 565 153 589 l 21 675 q 292 761 132 761 q 424 737 364 761 q 518 669 483 713 l 632 738 l 807 738 l 807 644 q 867 576 807 576 q 903 581 888 576 q 940 597 919 586 l 1000 479 z "},"ɘ":{"ha":704,"x_min":33,"x_max":664,"o":"m 350 761 q 586 658 508 761 q 664 365 664 556 q 576 79 664 182 q 321 -24 489 -24 q 58 78 172 -24 l 146 196 q 228 149 190 164 q 308 133 265 133 q 406 171 371 133 q 449 306 440 208 l 38 306 q 33 383 33 339 q 119 663 33 564 q 350 761 204 761 m 242 435 l 450 435 q 435 549 447 508 q 403 604 424 589 q 347 619 382 619 q 268 575 293 619 q 242 444 243 531 l 242 435 z "},"ʃ":{"ha":358,"x_min":-154,"x_max":490,"o":"m 317 1053 q 490 1001 413 1053 l 431 871 q 389 889 407 883 q 349 894 371 894 q 301 876 317 894 q 286 817 286 858 l 286 1 l 288 1 l 288 -61 q 217 -244 288 -181 q 33 -307 147 -307 q -154 -249 -79 -307 l -81 -126 q -37 -146 -56 -140 q 6 -151 -19 -151 q 56 -133 38 -151 q 74 -75 74 -114 l 74 0 l 72 0 l 72 811 q 135 988 72 922 q 317 1053 199 1053 z "},"ʆ":{"ha":435,"x_min":-99,"x_max":567,"o":"m 363 -8 q 485 -61 432 -31 l 444 -149 q 351 -111 404 -129 q 93 -307 307 -307 q -49 -264 0 -307 q -99 -144 -99 -221 q -46 -15 -99 -60 q 99 29 7 29 q 149 28 135 29 l 149 811 q 212 988 149 922 q 393 1053 275 1053 q 567 1001 489 1053 l 507 871 q 465 889 483 883 q 425 894 447 894 q 378 876 393 894 q 363 817 363 858 l 363 7 l 363 -8 m 78 -194 q 133 -166 115 -194 q 149 -74 150 -137 q 99 -71 135 -71 q 24 -137 24 -71 q 78 -194 24 -194 z "},"ƪ":{"ha":532,"x_min":-39,"x_max":686,"o":"m 686 -249 q 499 -307 611 -307 q 315 -244 385 -307 q 244 -61 244 -181 l 244 600 q 168 585 210 585 q 18 648 75 585 q -39 817 -39 711 q 26 988 -39 924 q 203 1053 90 1053 q 390 986 322 1053 q 458 811 458 919 l 458 -75 q 476 -133 458 -114 q 526 -151 494 -151 q 569 -146 551 -151 q 613 -126 588 -140 l 686 -249 m 206 733 q 244 739 219 733 l 244 831 q 233 887 244 869 q 196 904 221 904 q 143 821 143 904 q 158 753 143 774 q 206 733 174 733 z "},"ʅ":{"ha":617,"x_min":-14,"x_max":631,"o":"m 631 36 q 443 -22 556 -22 q 259 41 329 -22 q 189 224 189 104 l 189 286 l 190 286 l 190 525 q 175 585 190 567 q 128 603 160 603 q 88 597 106 603 q 46 579 69 592 l -14 710 q 160 761 64 761 q 341 696 278 761 q 404 519 404 631 l 404 285 l 403 285 l 403 210 q 421 152 403 171 q 471 133 439 133 q 514 139 496 133 q 557 158 532 144 l 631 36 z "},"ɇ":{"ha":704,"x_min":40,"x_max":671,"o":"m 375 310 l 335 139 q 397 132 365 132 q 477 147 439 132 q 558 194 515 161 l 646 79 q 381 -24 533 -24 q 297 -15 338 -24 l 276 -103 l 207 -86 l 229 6 q 88 139 136 46 q 40 365 40 232 q 124 652 40 543 q 358 761 207 761 q 410 758 376 761 l 428 833 l 497 818 l 479 740 q 621 615 571 706 q 671 383 671 524 q 667 310 671 343 l 375 310 m 361 624 q 272 581 301 624 q 236 431 242 538 l 331 431 l 378 624 l 361 624 m 486 440 q 444 596 486 554 l 404 431 l 486 431 l 486 440 m 301 310 l 236 310 q 272 185 244 222 l 301 310 z "},"ẽ":{"ha":704,"x_min":40,"x_max":671,"o":"m 671 383 q 667 306 671 339 l 256 306 q 299 171 264 208 q 397 133 333 133 q 476 149 439 133 q 558 196 514 164 l 646 78 q 381 -24 532 -24 q 127 80 214 -24 q 40 365 40 183 q 124 652 40 543 q 358 761 207 761 q 588 663 504 761 q 671 383 671 565 m 461 444 q 438 576 461 532 q 361 619 415 619 q 286 578 313 619 q 254 435 260 538 l 461 435 l 461 444 m 436 888 q 390 896 408 888 q 342 922 371 904 q 313 940 324 935 q 290 946 303 946 q 256 933 269 946 q 224 888 242 919 l 121 936 q 189 1051 146 1007 q 286 1094 232 1094 q 335 1085 314 1094 q 382 1058 356 1076 q 396 1050 385 1057 q 416 1040 407 1043 q 433 1036 425 1036 q 467 1049 453 1036 q 499 1093 482 1063 l 601 1044 q 533 930 576 972 q 436 888 490 888 z "},"ǝ":{"ha":707,"x_min":33,"x_max":667,"o":"m 342 761 q 586 658 506 761 q 667 369 667 556 q 583 83 667 189 q 346 -24 500 -24 q 117 73 200 -24 q 33 354 33 169 q 38 432 33 399 l 463 432 q 426 567 458 526 q 333 608 394 608 q 248 595 288 608 q 164 550 208 582 l 78 667 q 342 761 188 761 m 347 128 q 431 166 403 128 q 464 303 458 204 l 232 303 l 232 292 q 347 128 233 128 z "},"ə":{"ha":707,"x_min":33,"x_max":667,"o":"m 342 761 q 586 658 506 761 q 667 369 667 556 q 583 83 667 189 q 346 -24 500 -24 q 117 73 200 -24 q 33 354 33 169 q 38 432 33 399 l 463 432 q 426 567 458 526 q 333 608 394 608 q 248 595 288 608 q 164 550 208 582 l 78 667 q 342 761 188 761 m 347 128 q 431 166 403 128 q 464 303 458 204 l 232 303 l 232 292 q 347 128 233 128 z "},"ɚ":{"ha":1060,"x_min":33,"x_max":1076,"o":"m 1076 479 q 918 426 1011 426 q 781 469 831 426 q 721 586 731 513 l 718 604 l 640 556 q 667 369 667 476 q 583 83 667 189 q 346 -24 500 -24 q 117 73 200 -24 q 33 354 33 169 q 38 432 33 399 l 463 432 q 426 567 458 526 q 333 608 394 608 q 248 595 288 608 q 164 550 208 582 l 78 667 q 342 761 188 761 q 583 663 500 761 l 708 738 l 883 738 l 883 644 q 943 576 883 576 q 980 581 964 576 q 1017 597 996 586 l 1076 479 m 347 128 q 431 166 403 128 q 464 303 458 204 l 232 303 l 232 292 q 347 128 233 128 z "},"ʒ":{"ha":643,"x_min":-19,"x_max":624,"o":"m 351 293 q 624 13 624 274 q 583 -152 624 -79 q 465 -266 542 -225 q 282 -307 388 -307 q -19 -167 88 -307 l 93 -60 q 178 -125 139 -106 q 268 -144 218 -144 q 369 -103 333 -144 q 404 22 404 -61 q 367 134 404 100 q 250 168 329 168 l 136 168 l 136 293 l 350 578 l 32 578 l 32 738 l 582 738 l 582 590 l 351 293 z "},"ǯ":{"ha":643,"x_min":-19,"x_max":624,"o":"m 351 293 q 624 13 624 274 q 583 -152 624 -79 q 465 -266 542 -225 q 282 -307 388 -307 q -19 -167 88 -307 l 93 -60 q 178 -125 139 -106 q 268 -144 218 -144 q 369 -103 333 -144 q 404 22 404 -61 q 367 134 404 100 q 250 168 329 168 l 136 168 l 136 293 l 350 578 l 32 578 l 32 738 l 582 738 l 582 590 l 351 293 m 475 1125 l 549 1042 l 371 850 l 242 850 l 64 1042 l 139 1125 l 307 997 l 475 1125 z "},"ʓ":{"ha":643,"x_min":-29,"x_max":624,"o":"m 624 17 q 569 -170 624 -92 q 408 -283 514 -249 l 443 -361 l 340 -401 l 300 -304 q 243 -307 264 -307 q 44 -252 117 -307 q -29 -94 -29 -197 q 16 29 -29 -15 q 131 74 61 74 q 248 31 203 74 q 336 -122 293 -12 l 336 -124 q 388 -67 371 -104 q 404 28 404 -31 q 367 142 404 108 q 254 176 331 176 l 136 176 l 136 301 l 351 578 l 32 578 l 32 738 l 582 738 l 582 590 l 353 303 q 554 222 485 293 q 624 17 624 151 m 114 -85 q 140 -130 114 -117 q 235 -143 167 -143 q 194 -62 211 -83 q 153 -40 176 -40 q 114 -85 114 -40 z "},"ƹ":{"ha":643,"x_min":19,"x_max":663,"o":"m 663 -167 q 535 -271 610 -235 q 358 -307 461 -307 q 178 -267 254 -307 q 60 -155 101 -226 q 19 7 19 -83 q 90 211 19 139 q 292 293 161 283 l 61 590 l 61 738 l 611 738 l 611 578 l 292 578 l 507 292 l 507 168 l 393 168 q 277 131 315 168 q 239 15 239 94 q 274 -104 239 -64 q 374 -144 310 -144 q 464 -125 424 -144 q 551 -61 504 -106 l 663 -167 z "},"ƺ":{"ha":646,"x_min":26,"x_max":618,"o":"m 240 -308 q 90 -223 144 -276 q 35 -99 35 -169 q 86 19 35 -24 q 246 85 138 63 q 367 125 333 103 q 400 193 400 147 q 376 247 400 229 q 300 264 353 264 l 140 264 l 140 381 l 340 586 l 26 586 l 26 738 l 575 738 l 575 599 l 360 389 l 389 389 q 556 336 494 389 q 618 190 618 283 q 552 28 618 83 q 371 -50 486 -26 q 281 -72 311 -62 q 240 -93 251 -82 q 229 -122 229 -104 q 289 -189 229 -156 l 240 -308 z "},"f":{"ha":457,"x_min":4,"x_max":550,"o":"m 393 896 q 333 876 351 896 q 315 810 315 856 l 315 738 l 467 738 l 443 589 l 315 589 l 315 0 l 101 0 l 101 589 l 4 589 l 4 738 l 101 738 l 101 808 q 169 985 101 918 q 363 1053 236 1053 q 550 1008 465 1053 l 493 871 q 393 896 443 896 z "},"ḟ":{"ha":457,"x_min":4,"x_max":550,"o":"m 393 896 q 333 876 351 896 q 315 810 315 856 l 315 738 l 467 738 l 443 589 l 315 589 l 315 0 l 101 0 l 101 589 l 4 589 l 4 738 l 101 738 l 101 808 q 169 985 101 918 q 363 1053 236 1053 q 550 1008 465 1053 l 493 871 q 393 896 443 896 m 336 1365 q 426 1331 390 1365 q 461 1244 461 1296 q 426 1157 461 1192 q 336 1122 390 1122 q 247 1157 282 1122 q 213 1244 213 1192 q 247 1331 213 1296 q 336 1365 282 1365 z "},"ʩ":{"ha":1115,"x_min":4,"x_max":1049,"o":"m 864 761 q 999 703 950 761 q 1049 546 1049 646 l 1049 -61 q 979 -244 1049 -181 q 794 -307 910 -307 q 607 -249 682 -307 l 681 -126 q 724 -146 706 -140 q 767 -151 742 -151 q 817 -133 799 -151 q 835 -75 835 -114 l 835 517 q 822 581 835 563 q 782 600 808 600 q 728 577 754 600 q 675 510 703 554 l 675 0 l 461 0 l 461 588 l 315 588 l 315 0 l 101 0 l 101 588 l 4 588 l 4 738 l 101 738 l 101 808 q 169 985 101 918 q 363 1053 236 1053 q 550 1008 465 1053 l 493 871 q 393 896 443 896 q 333 876 351 896 q 315 810 315 856 l 315 738 l 649 738 l 664 650 q 753 733 704 706 q 864 761 801 761 z "},"g":{"ha":690,"x_min":1,"x_max":694,"o":"m 694 694 q 504 667 631 667 q 602 591 571 636 q 633 475 633 546 q 599 348 633 404 q 499 260 564 292 q 347 229 435 229 q 272 238 306 229 q 249 193 249 222 q 265 158 249 171 q 324 146 281 146 l 414 146 q 608 87 536 146 q 681 -65 681 28 q 589 -242 681 -178 q 326 -307 497 -307 q 72 -247 143 -307 q 1 -71 1 -187 l 193 -71 q 221 -144 193 -122 q 329 -167 249 -167 q 436 -144 406 -167 q 467 -81 467 -121 q 368 -3 467 -3 l 289 -3 q 125 37 178 -3 q 72 142 72 76 q 94 218 72 182 q 154 281 117 254 q 62 368 90 318 q 33 492 33 418 q 116 689 33 617 q 338 760 199 761 q 500 781 435 758 q 644 850 565 804 l 694 694 m 338 619 q 244 494 244 619 q 269 399 244 431 q 338 367 293 367 q 407 398 383 367 q 431 497 431 429 q 408 590 431 561 q 338 619 385 619 z "},"ǵ":{"ha":690,"x_min":1,"x_max":694,"o":"m 694 694 q 504 667 631 667 q 602 591 571 636 q 633 475 633 546 q 599 348 633 404 q 499 260 564 292 q 347 229 435 229 q 272 238 306 229 q 249 193 249 222 q 265 158 249 171 q 324 146 281 146 l 414 146 q 608 87 536 146 q 681 -65 681 28 q 589 -242 681 -178 q 326 -307 497 -307 q 72 -247 143 -307 q 1 -71 1 -187 l 193 -71 q 221 -144 193 -122 q 329 -167 249 -167 q 436 -144 406 -167 q 467 -81 467 -121 q 368 -3 467 -3 l 289 -3 q 125 37 178 -3 q 72 142 72 76 q 94 218 72 182 q 154 281 117 254 q 62 368 90 318 q 33 492 33 418 q 116 689 33 617 q 338 760 199 761 q 500 781 435 758 q 644 850 565 804 l 694 694 m 338 619 q 244 494 244 619 q 269 399 244 431 q 338 367 293 367 q 407 398 383 367 q 431 497 431 429 q 408 590 431 561 q 338 619 385 619 m 435 1153 l 518 996 l 217 865 l 158 971 l 435 1153 z "}}}
